<svg xmlns="http://www.w3.org/2000/svg" width="400.063" height="246.297" viewBox="0 0 400.063 246.297"><g transform="translate(-127.797 494.546)"><g transform="translate(-7 -40)"><path d="M189.818-428.479c46.223-36.916,106.05-23.989,108.538-23.411,37.8,8.781,36.105,28.487,77.327,43.275,29.272,10.5,51.785,8.332,71.161,6.164,20.447-2.288,37.4-4.575,55.114,8.024,26.963,19.177,38.26,60.448,30.5,91.513-14.347,57.464-96.592,90.834-158.908,83-59.5-7.48-75.178-49.3-141.173-48.24-42.679.684-57.24,18.513-73.779,7.095-31.753-21.923-26.673-121.19,31.215-167.421" fill="#dfddf2"/><path d="M459.7-232.811H213.417a12.8,12.8,0,0,1-12.8-12.805V-403.774a12.8,12.8,0,0,1,12.8-12.805H459.7A12.806,12.806,0,0,1,472.5-403.774v158.157A12.806,12.806,0,0,1,459.7-232.811" fill="#fff"/><path d="M462.02-415.946H212.842c-6.492-.249-11.855,4.183-11.661,11.684v4.065l270.778-.251v-4.633c0-5.753-4.537-10.865-9.939-10.865" fill="#e1e1df"/><path d="M315.6-284.01H226.022a3.112,3.112,0,0,1-3.112-3.112v-27.705a3.112,3.112,0,0,1,3.112-3.112H315.6a3.112,3.112,0,0,1,3.112,3.112v27.705a3.112,3.112,0,0,1-3.112,3.112" fill="#3a4da8"/><path d="M251.341-300.49a9.21,9.21,0,0,1-9.209,9.209,9.21,9.21,0,0,1-9.209-9.209,9.209,9.209,0,0,1,9.209-9.209,9.209,9.209,0,0,1,9.209,9.209" fill="#fff"/><path d="M259.1-298.854h48.472v-1.333H259.1Z" fill="#fff"/><path d="M259.1-305.126h23.225v-1.333H259.1Z" fill="#fff"/><path d="M259.1-293.037h48.472v-1.333H259.1Z" fill="#fff"/><path d="M457.3-380.21v-4.632a5.281,5.281,0,0,0-5.28-5.28H351.154a5.281,5.281,0,0,0-5.281,5.28v45.2L457.3-380.21" fill="#f9ad31"/><path d="M401.586-349.247,382.692-341.7l-16-40.027,18.895-7.552,16,40.027" fill="#f9ad31"/><path d="M450.324-260.382v-.667H352.848a6.287,6.287,0,0,1-4.461-1.848,6.293,6.293,0,0,1-1.848-4.463V-383.146a6.29,6.29,0,0,1,1.848-4.461,6.288,6.288,0,0,1,4.463-1.848h97.474a6.287,6.287,0,0,1,4.461,1.848,6.288,6.288,0,0,1,1.848,4.461v115.786a6.293,6.293,0,0,1-1.848,4.463,6.287,6.287,0,0,1-4.461,1.848v1.333a7.644,7.644,0,0,0,7.643-7.644V-383.146a7.643,7.643,0,0,0-7.643-7.643H352.85a7.644,7.644,0,0,0-7.644,7.643v115.786a7.645,7.645,0,0,0,7.643,7.644h97.476v-.667" fill="#a6a9a7"/><path d="M394.667-334.607l-18.895,7.551-16-40.025,18.895-7.552,16,40.027" fill="#f9ad31"/><path d="M379.754-340.522l-18.893,7.551-7.552-18.893,18.895-7.551,7.551,18.893" fill="#f9ad31"/><path d="M455.366-357.487l-18.895,7.552-10.747-26.893,18.895-7.551,10.747,26.892" fill="#f9ad31"/><path d="M318.717-376.251H223.227v-13.871h95.489v13.871" fill="#e1e1df"/><path d="M318.717-269.945H223.227V-275.3h95.489v5.352" fill="#e1e1df"/><path d="M318.717-259.971H223.227v-5.352h95.489v5.352" fill="#e1e1df"/><path d="M297.454-327.331h-9.074V-326h9.074Zm-18.149,0h-9.076V-326H279.3Zm-18.151,0H252.08V-326h9.074Zm-18.151,0h-9.075V-326H243Zm-17.879-.169a2.445,2.445,0,0,1-1.548-2.276v-5.353h-1.333v5.353a3.777,3.777,0,0,0,2.393,3.516Zm-1.548-25.779h-1.333v9.075h1.333Zm2.431-6.649h9.071v-1.333H226Zm18.147,0h9.074v-1.333h-9.074Zm18.149,0h9.076v-1.333H262.3Zm18.151,0h9.074v-1.333h-9.075Zm18.151,0h9.075v-1.333H298.6Zm17.883.164a2.447,2.447,0,0,1,1.563,2.281v5.335h1.333v-5.335a3.781,3.781,0,0,0-2.413-3.524ZM318.05-334h1.333v-9.075H318.05Zm-2.416,6.667h-9.1V-326h9.119l-.015-1.333" fill="#a6a9a7"/><path d="M450.242-407.378a2.219,2.219,0,0,1-2.219,2.219,2.219,2.219,0,0,1-2.219-2.219,2.219,2.219,0,0,1,2.219-2.219,2.219,2.219,0,0,1,2.219,2.219" fill="#f79525"/><path d="M457.647-407.378a2.219,2.219,0,0,1-2.219,2.219,2.219,2.219,0,0,1-2.219-2.219,2.219,2.219,0,0,1,2.219-2.219,2.219,2.219,0,0,1,2.219,2.219" fill="#f03939"/><path d="M465.052-407.378a2.219,2.219,0,0,1-2.219,2.219,2.219,2.219,0,0,1-2.219-2.219,2.219,2.219,0,0,1,2.219-2.219,2.219,2.219,0,0,1,2.219,2.219" fill="#3a4da8"/><path d="M435.935-403.716H212.123a4.36,4.36,0,0,1-4.36-4.36,4.36,4.36,0,0,1,4.36-4.36H435.935a4.36,4.36,0,0,1,4.36,4.36,4.36,4.36,0,0,1-4.36,4.36" fill="#fff"/><path d="M459.7-232.811v-.667H213.417a12.1,12.1,0,0,1-8.583-3.556,12.1,12.1,0,0,1-3.555-8.583V-403.774a12.1,12.1,0,0,1,3.555-8.583,12.1,12.1,0,0,1,8.583-3.556H459.7a12.1,12.1,0,0,1,8.584,3.556,12.1,12.1,0,0,1,3.555,8.583v158.157a12.1,12.1,0,0,1-3.555,8.583,12.107,12.107,0,0,1-8.584,3.556v1.333a13.473,13.473,0,0,0,13.472-13.472V-403.774A13.472,13.472,0,0,0,459.7-417.246H213.417a13.471,13.471,0,0,0-13.471,13.472v158.157a13.472,13.472,0,0,0,13.471,13.472H459.7v-.667" fill="#a6a9a7"/><path d="M279.735-326.665H190.153a3.112,3.112,0,0,1-3.112-3.112v-27.707a3.112,3.112,0,0,1,3.112-3.112h89.582a3.112,3.112,0,0,1,3.112,3.112v27.707a3.112,3.112,0,0,1-3.112,3.112" fill="#3a4da8"/><path d="M215.471-343.145a9.209,9.209,0,0,1-9.209,9.209,9.209,9.209,0,0,1-9.209-9.209,9.21,9.21,0,0,1,9.209-9.211,9.21,9.21,0,0,1,9.209,9.211" fill="#fff"/><path d="M223.227-341.509H271.7v-1.333H223.227Z" fill="#fff"/><path d="M223.227-347.781h23.226v-1.333H223.227Z" fill="#fff"/><path d="M223.227-335.693H271.7v-1.333H223.227Z" fill="#fff"/><path d="M176.881-218.993a56.5,56.5,0,0,1,8.955,3.348c2.364,1.312,2.66,2.405-.261,2.413a82.781,82.781,0,0,1-10.831-.484c-1.8-.28-1.052-4.513-.749-5.236l2.887-.041" fill="#f79525"/><path d="M176.353-218.985l.611-2.337-3.112.367.143,2,2.359-.033" fill="#fab485"/><path d="M187.649-213.781c-3.24-.112-10.039-.392-11.82-.817a4.978,4.978,0,0,1-2.236-1.141c.061,1.016.36,1.9,1.151,2.024a82.781,82.781,0,0,0,10.831.484c1.263,0,1.923-.209,2.075-.549" fill="#3a4da8"/><path d="M162.654-300.473s-.749-3.539,5.548-8.245a95.878,95.878,0,0,0,9.7-8.123l5.967-20.667,2.072.979s.131,16.22-.779,21.035-20.865,25.7-22.505,15.021" fill="#d48f75"/><path d="M179.014-321.938l6.775.984-.255,5.66s-9.9,15.451-16.348,17.888-10.316-1.325-8.737-4.016,16.395-15.26,16.395-15.26l2.171-5.256" fill="#f79525"/><path d="M185.938-319.458l.528-3.347-8.017-1.267-.529,3.348,8.019,1.265" fill="#f9ad31"/><path d="M185.932-331.826s-3.913-9.577-2.765-10.679c0,0,3.659,6.171,4.767,8.775" fill="#d48f75"/><path d="M139.757-224.859a56.644,56.644,0,0,1,5.88,7.54c1.325,2.356,1.005,3.444-1.488,1.92a82.682,82.682,0,0,1-8.976-6.081c-1.387-1.181,1.467-4.395,2.1-4.853l2.481,1.475" fill="#f9ad31"/><path d="M139.3-225.129l1.743-1.672-2.844-1.315-.927,1.781,2.028,1.205" fill="#fab485"/><path d="M174.9-276.355l-12.34-6.881s2.073,26.023,9.955,37.52c0,0,.061,20.935,1.437,25.449l2.885-.072s4.411-23.813,4-27.608c-.756-6.98-1.487-17.04-5.936-28.408" fill="#3a4da8"/><path d="M161.83-324.278s-4.939,2.423-5.331,11.512-1.967,9.427-1.967,9.427a15.474,15.474,0,0,0,14.155,0l-6.857-20.939" fill="#331412"/><path d="M167.79-323.426a10.814,10.814,0,0,1,3.039,7.525c.108,3.016-4.52,3.424-7.144,1.959-2.328-1.3-3.98-4.211-3.536-6.695.576-3.217,4.995-5.212,7.641-2.789" fill="#fab485"/><path d="M165.088-319.73l-4.864.756,1.827,11.765a3.088,3.088,0,0,0,3.525,2.576,3.084,3.084,0,0,0,2.508-3.844l-3-11.253" fill="#fab485"/><path d="M165.6-324.045s1.207,6.581-5.383,8.2c-4.6,1.127-4.471-10.321,2.023-10.56,9.125-.335,7.072,4.912,7.072,4.912s-2.2-3.215-3.712-2.548" fill="#331412"/><path d="M167.1-312.175l-3.7-1.627,3.441.624Z" fill="#d48f75"/><path d="M172.581-281.751l-15.028,3.995s-4.227,5.733-2.676,28.061c0,0-13.121,11.033-16.784,21.772l2.432,1.589S159-242.842,161.6-245.639c3.116-3.36,9.14-14.541,10.983-36.112" fill="#3a4da8"/><path d="M170.99-307.326a4.09,4.09,0,0,0-2.569-2.919c-2.78-1.019-9.553-1.071-9.616,8.076-.124,17.993-1.252,24.412-1.252,24.412s3.609,3.139,17.352,1.4l-1.811-11.367,1.6-3.492a11.215,11.215,0,0,0-.287-8.529l-3.421-7.583" fill="#f9ad31"/><path d="M165.4-299.749s-.749-3.537,5.548-8.244a96.073,96.073,0,0,0,9.7-8.123l5.967-20.667,2.072.977s.129,16.221-.779,21.036-20.867,25.7-22.505,15.02" fill="#fab485"/><path d="M186.145-334.854s-1.376-5.824-.228-6.925c0,0,1.121,2.419,2.229,5.023.347.813,3.873,3.356,2.053,3.087a21.362,21.362,0,0,1-4.055-1.184" fill="#fab485"/><path d="M168.688-322.3a7.676,7.676,0,0,0,2.685,1.853,2.73,2.73,0,0,1-1.151,1.589l-1.535-3.443" fill="#fab485"/><path d="M146.2-214.781c-2.7-1.792-8.349-5.588-9.644-6.883a5.007,5.007,0,0,1-1.309-2.143c-.479.9-.687,1.807-.079,2.325a82.682,82.682,0,0,0,8.976,6.081c1.077.659,1.748.827,2.056.619" fill="#3a4da8"/><path d="M137.5-226.2s3.284,5.677,4.744,4.211l-2.428-3.631-2.316-.58" fill="#fab485"/><path d="M174.34-219.043s5.76,3.229,6.171,1.2l-4.025-1.695-2.145.495" fill="#fab485"/><path d="M182.258-321.686l6.18,1.136-.373,7.136s-9.188,13.825-15.635,16.263-10.317-1.325-8.737-4.016,16.395-15.26,16.395-15.26l2.171-5.259" fill="#f9ad31"/><path d="M189.181-319.2l.529-3.348-8.017-1.265-.529,3.347,8.017,1.267" fill="#f9ad31"/><path d="M174.9-276.355l1.611,4.539-10.38,11.451.975-15.465a50.826,50.826,0,0,0,7.795-.524" fill="#3a4da8"/><path d="M162.857-251.393c-2.119,2.181-2.791,3.169-3.088,4.452-.244,1.045.019,1.183-.273,1.816-.8,1.728-3.059,1.373-5.813,2.635-2.017.923-3.344,2.4-6,5.359-1.317,1.469-1.2,1.552-3.36,4.271-2.563,3.221-4.117,4.851-4.849,5.841l1.048.685S159-242.842,161.6-245.639c1.4-1.507,3.38-4.592,5.307-9.476-.355-.077-1.6,1.207-4.048,3.723" fill="#4456af"/><path d="M172.868-220.138h4.845v-1.912h-4.845v1.912" fill="#3a4da8"/><path d="M136.754-227.819l4.2,2.421.956-1.656-4.2-2.423-.956,1.657" fill="#3a4da8"/><path d="M156.288-316.951l11.089-8.759a7.065,7.065,0,0,0-9.924-1.164,7.065,7.065,0,0,0-1.165,9.923" fill="#f9ad31"/><path d="M159.833-328.1a7.017,7.017,0,0,0-2.38,1.229,7.065,7.065,0,0,0-1.165,9.923l2.887-2.28a7.055,7.055,0,0,1,.659-8.872" fill="#f79525"/><path d="M156.776-316.339l-1.208-1.619,13.135-9.8,1.208,1.617-13.135,9.8" fill="#f79525"/><path d="M174.7-291.214a11.218,11.218,0,0,0,.179-7.287,16.189,16.189,0,0,1-10.481.389c-2.263-8.127,1.288-11.752,2.22-12.535a7.881,7.881,0,0,0-2.868.211c-1.419,2.035-2.885,5.695-1.656,11.417a13.9,13.9,0,0,1-3.295-2.156c-.159,17.231-1.679,24.205-1.679,24.205s4.044,2.352,17.787.613l-1.811-11.367,1.6-3.492" fill="#3a4da8"/><path d="M180.841-247.947c-.756-6.98-1.487-17.04-5.936-28.408l-1.811-11.367,1.6-3.492a11.218,11.218,0,0,0,.179-7.287,18.221,18.221,0,0,1-2.089.612,13.6,13.6,0,0,1-1.029,7.436,12.812,12.812,0,0,0-1.453,4,12.033,12.033,0,0,0,.364,5.087c1.551,6.016,3.088,10.355,3.088,10.355,2.144,6.048,3.215,9.072,3.271,10.539.207,5.5-2.305,8.6-.183,11.445,1.02,1.367,2.453,1.795,2.544,3.271.087,1.4-1.149,1.877-2,3.632-1.159,2.395-.128,4.135,0,7.631.131,3.551-.851,3.973-1.272,7.812a33.1,33.1,0,0,0-.033,6.365l.757-.02s4.411-23.813,4-27.608" fill="#4456af"/><path d="M254.558-216.2H230.8l7.735-39.152h8.285l7.735,39.152" fill="#f03939"/><path d="M259.082-214.1h-33.9v-4.047h33.9v4.047" fill="#f03939"/><path d="M254.558-216.2H230.8l7.735-39.152h8.285l7.735,39.152" fill="#f03939"/><path d="M235.261-238.761H250.1l-1.211-6.131H236.471l-1.211,6.131" fill="#fff"/><path d="M232.426-224.414h20.511l-1.212-6.131H233.638l-1.212,6.131" fill="#fff"/><path d="M509.4-222.022s-9.3,5.117-12.364,5.155-.793,1.349,2.541,1.661c2.64.245,7.924-.505,11.008-1.1a4.589,4.589,0,0,0,.976-.8l.209.724a9.662,9.662,0,0,0,1.6-.129,33.312,33.312,0,0,0-.657-5.532l-3.309.021" fill="#3a4da8"/><path d="M509.4-222.022l.124-2.485,3.3.164-.115,2.3-3.309.021" fill="#f8a46d"/><path d="M509.285-296.55l11.013,1.885s-3.357,29.439-6.835,40.9c0,0,2.281,19.723-.159,30.384l-4.364.209s-3.715-25.216-4.725-29.472c-1.212-5.112.293-17.448,5.069-43.911" fill="#3a4da8"/><path d="M507.977-225.646l.332,2.853,5.463-.133.3-2.564-6.092-.156" fill="#3a4da8"/><path d="M522.395-221.015s-9.3,5.117-12.364,5.155-.795,1.349,2.54,1.661c2.641.245,7.924-.505,11.009-1.1a4.584,4.584,0,0,0,.976-.8l.209.724a9.663,9.663,0,0,0,1.6-.129,33.26,33.26,0,0,0-.659-5.532l-3.308.021" fill="#3a4da8"/><path d="M522.395-221.015l.123-2.485,3.3.164-.115,2.3-3.308.021" fill="#f8a46d"/><path d="M514.632-294.809l11.675,9.1s3.839,5.667-2.029,32.277a65.764,65.764,0,0,1,1.835,31l-4.319.655s-5.216-27.123-6.656-31.253c-1.728-4.96-3.115-18.733-.505-41.779" fill="#3a4da8"/><path d="M520.7-224.409l.557,2.819,5.435-.568.092-2.58-6.084.329" fill="#3a4da8"/><path d="M513.777-285.891l-6.339-.169-1.013,6.089,9.179,15.739-1.827-21.659" fill="#3a4da8"/><path d="M520.536-318.689s-4.332-3.909-9.607,3.957a100.7,100.7,0,0,1-8.737,11.575l-20.043-11.051-2.092,4.256s18.056,20.656,23.795,19.267,29.631-26.688,16.684-28" fill="#f9ad31"/><path d="M480.188-309.8s-9.709-7.475-5.083-6.157c2.1.6,3.944,2.189,4.684,1.532.721-.645-.817-1.239-1.084-2.669-.239-1.292,4.324,3.559,4.324,3.559l-2.841,3.736" fill="#f8a46d"/><path d="M495.273-299.989l-9.405-4.4,1.088-3.36,8.317,7.764" fill="#e09c2d"/><path d="M506.555-294.245l-5.011-1.336,10.023-9.079v2.4l-5.012,8.015" fill="#e09c2d"/><path d="M478.946-309.947,481-308.391l3.829-4.673-2.057-1.555-3.831,4.672" fill="#f9ad31"/><path d="M516.359-321.849c3.348-1.228,12.84-2.033,14.3,6.073,1.336,7.4-1.485,13.841-2.591,19.095a89.873,89.873,0,0,0-1.215,9.389s-6.217,7.347-17.781,4.055l.745-12.576.792-6.964c-.641-7.908-.453-8.873.955-12.853.587-1.661,2.745-5.24,4.329-6.019a4.516,4.516,0,0,1,.463-.2" fill="#f9ad31"/><path d="M511.253-308.93l-.984-.743c0-5.059,2.076-12.039,10.211-12.664h.257c-10.468,2.027-9.484,13.28-9.484,13.407" fill="#3a4da8"/><path d="M519.339-334.982l6.019-.037-.725,12.547a1.342,1.342,0,0,1-.444,1.047,4.959,4.959,0,0,1-4.561.907c-2.033-.484-.555-1.407-.26-3.695l-.028-10.768" fill="#f8a46d"/><path d="M518.585-337.816a14.2,14.2,0,0,0-3.159,10.248c.121,4.255,5.779,4.3,9.38,2.065a8.5,8.5,0,0,0,3.909-9.1c-1.024-4.495-6.981-7.169-10.131-3.209" fill="#f8a46d"/><path d="M519.077-322.974l.264-1.063h0a6.725,6.725,0,0,1-.264,1.063h0" fill="#c3c3e1"/><path d="M519.077-322.974a6.727,6.727,0,0,0,.264-1.063l.077-.008c.121.005.243.008.367.008a9.1,9.1,0,0,0,2.117-.263l.6-.061-3.423,1.387" fill="#e29462"/><path d="M519.785-324.037c-.124,0-.245,0-.367-.008l2.484-.255a9.1,9.1,0,0,1-2.117.263" fill="#e29462"/><path d="M516.648-333.769a16.054,16.054,0,0,0-2.468,2.6,3,3,0,0,0,1.6,1.448l.869-4.052" fill="#f8a46d"/><path d="M529.356-335.264c-.225-5.8-10.3-5.74-11.509-4.792a2.556,2.556,0,0,0-.456,3.895l.5-.369.28-.121c1.483.217,6.671,1.283,5.087,5.367-.4,1.029.484,1.505,1.539,1.56a17.312,17.312,0,0,1-.116,3.9c-.147.96,5.041-.027,4.677-9.443" fill="#331412"/><path d="M487.378-302.785l-1.429,1.615-19.877-17.589a.832.832,0,0,1-.072-1.175l.877-.992,20.5,18.141" fill="#3a4da8"/><path d="M486.5-308.633a2.7,2.7,0,0,1,.908,2.041l-.037,3.815-20.5-18.141,5.909.916a3.654,3.654,0,0,1,1.861.873l11.86,10.5" fill="#fff"/><path d="M521.384-328.926c.464.7,1.656.728,2.663.061s1.448-1.776.983-2.479-1.656-.727-2.664-.06-1.447,1.776-.981,2.477" fill="#f8a46d"/><path d="M526.912-284.051s.369-8.884,1.159-12.629c.443-2.1,1.157-4.4,1.772-6.861-7.471-.683-14.649-3.731-19.568-6.317a65.474,65.474,0,0,0,.337,7.083l-1.537,6.957-2.133,12.747c11.565,3.291,19.971-.979,19.971-.979" fill="#3a4da8"/><path d="M523.217-275.985l-3.9-1.056c5.027-18.539,7.479-35.891,5.353-37.891-1.389-1.248-2.289-1.187-2.847-1.031-2.949.82-5.8,7.245-6.712,10.228l-3.057-1.185c.355-1.152,2.825-11.3,8.689-12.933,1.56-.432,3.979-.453,6.621,1.916,5.245,4.7-1.156,30.905-4.151,41.952" fill="#3a4da8"/><path d="M522.168-317.317s-3.939-.009-8.2,8.448-6.489,10.7-6.489,10.7l-20.111-8.869-3.491,4.536s21.5,18.347,26.525,15.241c9.364-5.791,24.78-30.347,11.769-30.057" fill="#f9ad31"/><path d="M483.873-302.5s-4.592.379-5.677-2.349c-.692-1.739-3.141-5.608-.723-3.819,1.521,1.124,3.605,3.215,4.227,2.339.607-.856-2.568-1.185-1.749-2.869l5.395,3.021-1.472,3.677" fill="#f8a46d"/><path d="M482.292-301.351l2.284,1.2,3.823-6.765-2.284-1.2-3.823,6.765" fill="#f9ad31"/><path d="M530.056-333.354l-12.6-6.4a7.064,7.064,0,0,1,9.5-3.1,7.064,7.064,0,0,1,3.1,9.5" fill="#f9ad31"/><path d="M524.383-343.588a7.046,7.046,0,0,1,2.576.735,7.066,7.066,0,0,1,3.1,9.5l-3.279-1.667a7.054,7.054,0,0,0-2.395-8.568" fill="#f79525"/><path d="M529.7-332.658l.867-1.824L515.756-341.5l-.864,1.824,14.805,7.017" fill="#f79525"/><path d="M496.417-216.2H472.663l7.736-39.152h8.285l7.733,39.152" fill="#f03939"/><path d="M500.941-214.1h-33.9v-4.047h33.9v4.047" fill="#f03939"/><path d="M496.417-216.2H472.663l7.736-39.152h8.285l7.733,39.152" fill="#f03939"/><path d="M477.12-238.761h14.841l-1.212-6.131H478.332l-1.212,6.131" fill="#fff"/><path d="M474.285-224.414H494.8l-1.212-6.131H475.5l-1.212,6.131" fill="#fff"/><path d="M318.766-208.249a1.033,1.033,0,0,0,1.012-.828l17.979-87.71a1.032,1.032,0,0,0-.805-1.221,1.035,1.035,0,0,0-1.221.807l-17.979,87.709a1.036,1.036,0,0,0,.805,1.223l.209.021" fill="#3a4da8"/><path d="M335.906-288.345h25.943a1.034,1.034,0,0,0,1.035-1.033,1.036,1.036,0,0,0-1.035-1.036H335.906a1.036,1.036,0,0,0-1.036,1.036,1.034,1.034,0,0,0,1.036,1.033" fill="#4456af"/><path d="M333.373-277.062h25.943a1.036,1.036,0,0,0,1.036-1.035,1.036,1.036,0,0,0-1.036-1.036H333.373a1.036,1.036,0,0,0-1.035,1.036,1.036,1.036,0,0,0,1.035,1.035" fill="#4456af"/><path d="M331.2-265.779h25.944a1.036,1.036,0,0,0,1.036-1.035,1.036,1.036,0,0,0-1.036-1.036H331.2a1.036,1.036,0,0,0-1.035,1.036,1.036,1.036,0,0,0,1.035,1.035" fill="#4456af"/><path d="M328.849-254.5h25.944a1.036,1.036,0,0,0,1.035-1.035,1.036,1.036,0,0,0-1.035-1.036H328.849a1.035,1.035,0,0,0-1.035,1.036,1.035,1.035,0,0,0,1.035,1.035" fill="#4456af"/><path d="M326.633-243.215h25.944a1.036,1.036,0,0,0,1.035-1.035,1.036,1.036,0,0,0-1.035-1.036H326.633a1.035,1.035,0,0,0-1.035,1.036,1.035,1.035,0,0,0,1.035,1.035" fill="#4456af"/><path d="M324.433-231.934h25.943a1.036,1.036,0,0,0,1.036-1.036A1.036,1.036,0,0,0,350.375-234H324.433a1.035,1.035,0,0,0-1.035,1.035,1.035,1.035,0,0,0,1.035,1.036" fill="#4456af"/><path d="M322.191-220.651h25.944a1.036,1.036,0,0,0,1.033-1.036,1.035,1.035,0,0,0-1.033-1.035H322.191a1.035,1.035,0,0,0-1.035,1.035,1.035,1.035,0,0,0,1.035,1.036" fill="#4456af"/><path d="M346.534-208.249a1.034,1.034,0,0,0,1.013-.828l17.98-87.71a1.036,1.036,0,0,0-.807-1.221,1.036,1.036,0,0,0-1.223.807L345.52-209.493a1.035,1.035,0,0,0,.805,1.223l.208.021" fill="#3a4da8"/><path d="M430.782-352.6l5.312,13.513a1.334,1.334,0,0,0,1.729.753,1.334,1.334,0,0,0,.753-1.729l-5.313-13.512a1.333,1.333,0,0,0-1.728-.753,1.333,1.333,0,0,0-.753,1.728" fill="#3a4da8"/><path d="M417.46-355.994l1.939,3.381,12.66-.439,9.317-8.295-1.441-4.833a.666.666,0,0,0-.829-.448.666.666,0,0,0-.448.829l1.2,4.02-8.324,7.411-11.376.395-1.539-2.684a.665.665,0,0,0-.909-.247.666.666,0,0,0-.248.909" fill="#3a4da8"/><path d="M440.026-367.423l-23.407,10.341a.666.666,0,0,0-.34.88.667.667,0,0,0,.879.34L440.564-366.2a.666.666,0,0,0,.34-.879.665.665,0,0,0-.879-.34" fill="#3a4da8"/><path d="M437.03-360.7l-13.681,5.74a3.905,3.905,0,0,1-5.1-2.083,3.9,3.9,0,0,1,2.084-5.1l13.683-5.74a3.905,3.905,0,0,1,5.1,2.084,3.9,3.9,0,0,1-2.085,5.095" fill="#f79525"/><path d="M422.57-356.491l13.681-5.74a3.9,3.9,0,0,0,2.256-4.535,3.893,3.893,0,0,0-4.488-1.117l-13.683,5.74a3.9,3.9,0,0,0-2.255,4.535,3.893,3.893,0,0,0,4.488,1.117" fill="#f9ad31"/><path d="M419.562-231.045H401.794l-3.268-24.307h24.3l-3.268,24.307" fill="#3a4da8"/><path d="M400.783-254.749a9.865,9.865,0,0,1,2.9-7,9.865,9.865,0,0,1,7-2.9,9.86,9.86,0,0,1,7,2.9,9.866,9.866,0,0,1,2.9,7h1.333a11.228,11.228,0,0,0-11.228-11.228,11.227,11.227,0,0,0-11.228,11.228h1.333" fill="#3a4da8"/><path d="M417.875-254.554a.914.914,0,0,0,.14-.8H403.38c-.28,1.657.407,3.468,1,3.548.737.1,1.247-2.468,2.148-2.407.76.052,1.807,1.791,1.076,5.931-.644,3.653,1.58,4.425,1.823,4.379,2.277-.431.8-8.777,2.819-9.364.764-.221,1.517.9,2.536.472.84-.352.879-1.352,1.891-1.632.62-.172.956.107,1.2-.129" fill="#f9ad31"/><path d="M433.234-277.207l11.435,2.029,8.607-4.455s-.859-6.079-.811-7.777c.116-4.075,2.08-13.255-.819-19.8-2.132-4.816-6.1-2.625-11.125-1.037l-5.655.617s-9.067-5.479-2.731,19.779c.721,2.877,1.1,10.645,1.1,10.645" fill="#f9ad31"/><path d="M437.963-325.737c-2.247,2.3-3.192,5.86-3.127,9.184.071,3.605,5.623,3.784,8.656,1.861,2.693-1.705,4.472-5.288,3.775-8.224-.9-3.8-6.307-5.888-9.3-2.821" fill="#fab485"/><path d="M436.79-324.086a7.51,7.51,0,0,1-2.523,1.955,2.68,2.68,0,0,0,1.211,1.492l1.312-3.447" fill="#fab485"/><path d="M429.886-305.5l-2.909,11.112-1.821,5.744-11.1,19.531,3.469,2.319,14.019-19.673,2.149-6.113,8.333-16.216c.668-1.9-3.395-1.831-5.3-2.5s-5.469,1.825-6.843,5.8" fill="#f9ad31"/><path d="M414.527-269.945s-4.2,4.647-1.328,4.333c2.019-.22.556-.515.556-.515s-2.868,2.516-1.6,2.471,3.931,1.077,4.58-.651c.785-2.093,1.149-3.319,1.149-3.319l-3.355-2.32" fill="#fab485"/><path d="M419.963-268.785l-1.507,2.212-4.953-3.372,1.507-2.213,4.953,3.373" fill="#f9ad31"/><path d="M442.843-319.082l-7.549-21.159,3.817-1.684,10.4,21.8,1.057,6.395-6.928.616-.8-5.972" fill="#f9ad31"/><path d="M449.41-298.362a3.653,3.653,0,0,1-4.2-3.008l-1.569-11.74,6.928-.616,2.208,10.259c.328,1.991-1.379,4.775-3.367,5.105" fill="#f9ad31"/><path d="M436.464-339.874s-4.327-4.6-2.511-5.505l1.34,2.2s-1.579-5.64-.34-5.375,3.943,1.837,3.663,3.664c-.332,2.179-.515,4-.515,4l-1.637,1.024" fill="#fab485"/><path d="M435.738-337.887l-.993-2.485,4.836-1.932.993,2.485-4.836,1.932" fill="#f9ad31"/><path d="M437.1-316.435l.527,11.9,6.512-2.081-3.069-10.861-3.969,1.044" fill="#fab485"/><path d="M439.179-282.511c.345-13.643-1.4-24.436-2.5-28.8a3.68,3.68,0,0,0-2.944.723c1.036,4.079,2.771,13.908,2.413,28l3.028.076" fill="#3a4da8"/><path d="M455.162-269.559c1.444-10.348-2.545-17.353-2.545-17.353-6.7,3.72-19.884,2.868-19.884,2.868l-1.869,17.484-1.033,19.375a107.2,107.2,0,0,0,5,25.252l5.159-.828a130.6,130.6,0,0,0-.811-24.817s2.589-10.429,4-15.8c.092-.355,1.624-.915,1.7-1.219,0,0,7.692-.408,10.283-4.959" fill="#3a4da8"/><path d="M446.455-222.1l4.511-.663a78.429,78.429,0,0,0,.015-24.513s3.583-7.917,3.884-20.467c.121-.619.215-1.221.3-1.817-2.591,4.551-10.283,4.959-10.283,4.959l-3.308,18.293s1.361,8.787,4.884,24.208" fill="#3a4da8"/><path d="M447.431-264.967a18.689,18.689,0,0,1-2.552.367l-3.308,18.293s1.347,8.689,4.824,23.943a3.09,3.09,0,0,0,1.18-1.279c.455-1.052-.237-1.728-1.092-5.088-.532-2.1-.249-1.783-1.089-5.995a48.411,48.411,0,0,0-1.271-5.633c-.861-2.212-1.729-3.149-1.272-4.359.436-1.153,1.621-1.352,1.635-2.363.011-.855-.833-1.195-1.272-2-1.037-1.9,1.039-4.881,1.636-5.813,1.236-1.935,2.449-5.008,2.581-10.075" fill="#4456af"/><path d="M434.827-221.934l.975,3.172,3.6-.272-.016-3.583-4.557.683" fill="#fab485"/><path d="M429.259-214.026s.044-2.131,4.052-2.8c2.121-.353,1.035-1.921,1.035-1.921l3.953-1.215-3.768,6.635-5.272-.7" fill="#f9ad31"/><path d="M438.924-220c-2.665-.009-2.472,2.261-2.869,3.7a6.606,6.606,0,0,1-5.889,2.385c.957.127,2.491.339,3.705.508a9.236,9.236,0,0,0,3.665-.229l2.239-.6c1.3-.711,2.715-5.619-.631-5.756l-.22-.005" fill="#3a4da8"/><path d="M429.512-213.991c.228.035.441.055.653.072-.805-.108-1.2-.159-.653-.072" fill="#f79525"/><path d="M446.455-222.1l.928,3.191,3.6-.272-.015-3.581-4.511.663" fill="#fab485"/><path d="M440.842-214.173s.041-2.131,4.052-2.8c2.12-.351,1.032-1.919,1.032-1.919l3.953-1.216-3.767,6.635-5.271-.7" fill="#f9ad31"/><path d="M450.506-220.15c-2.665-.009-2.472,2.26-2.869,3.7a6.6,6.6,0,0,1-5.889,2.384c.956.129,2.491.341,3.705.509a9.211,9.211,0,0,0,3.665-.229l2.239-.6c1.3-.711,2.715-5.62-.629-5.755l-.221-.005" fill="#3a4da8"/><path d="M441.092-214.138c.228.036.443.055.655.071-.805-.108-1.2-.157-.655-.071" fill="#f79525"/><path d="M440.615-221.571l-6.7.729-.305-2.819,6.7-.731.307,2.82" fill="#3a4da8"/><path d="M452.219-222.237l-6.7.731-.307-2.82,6.7-.729.307,2.819" fill="#3a4da8"/><path d="M436.986-312.039l-.108,1.993s2.631.917,4.276.431a3.594,3.594,0,0,0,2.216-2.025l-.549-1.483s-1.484,2.332-5.835,1.084" fill="#fff"/><path d="M438.258-328.55s-3.857,3.487.873,7.059c0,0,1.751,1.275-.836,4.371a1.694,1.694,0,0,0,.005,2.187c1.569,1.845,5.007,4.551,8.671-1.155,1.7-2.645,1.924-5.745.5-7.581a9.2,9.2,0,0,0-4.7-3.473c-1.9-.66-2.9-.432-4.521-1.407" fill="#331412"/><path d="M438.276-317.125A12.9,12.9,0,0,0,434-306.935c.037,4.347,4.4,7.839,4.5,8.859.267,2.795-4.227,8.689-3.584,11.609.928,4.224,8.444,5.763,15.815,2.685,8.425-3.517,9.517-14.728,1.992-22.435-3.327-3.407-2.241-10.095-2.876-14.967-.383-2.94-1.248.167-2.667-2.009-2.123-3.253-7.349-4.36-8.159-3.368-.761.932,2.569,3.351,1.836,6.184-.369,1.42-.824,1.737-2.576,3.252" fill="#331412"/><path d="M440.524-320.406a1.356,1.356,0,0,1-.764,1.736,1.356,1.356,0,0,1-1.857-.381,1.356,1.356,0,0,1,.764-1.736,1.356,1.356,0,0,1,1.857.381" fill="#fab485"/><path d="M449.419-319.082l-11.088-8.759a7.066,7.066,0,0,1,9.924-1.165,7.065,7.065,0,0,1,1.164,9.924" fill="#f9ad31"/><path d="M445.874-330.235a7.07,7.07,0,0,1,2.381,1.229,7.065,7.065,0,0,1,1.164,9.924l-2.885-2.279a7.057,7.057,0,0,0-.66-8.875" fill="#f79525"/><path d="M448.932-318.471l1.207-1.617-13.133-9.8-1.207,1.619,13.133,9.8" fill="#f79525"/></g></g></svg>