<svg width="30px" height="30px" viewBox="0 0 0.9 0.9" xmlns="http://www.w3.org/2000/svg" fill="none"><path stroke="#FF0000" stroke-linecap="round" stroke-linejoin="round" stroke-width="0.075" d="M0.412 0.188h0.375M0.412 0.337h0.188"/><path width="4" height="4" x="3" y="5" stroke="#FF0000" stroke-linecap="round" stroke-linejoin="round" stroke-width="0.075" rx="1" d="M0.15 0.188H0.225A0.037 0.037 0 0 1 0.263 0.225V0.3A0.037 0.037 0 0 1 0.225 0.337H0.15A0.037 0.037 0 0 1 0.112 0.3V0.225A0.037 0.037 0 0 1 0.15 0.188z"/><path stroke="#FF0000" stroke-linecap="round" stroke-linejoin="round" stroke-width="0.075" d="M0.412 0.563h0.375m-0.375 0.15h0.188"/><path width="4" height="4" x="3" y="15" stroke="#FF0000" stroke-linecap="round" stroke-linejoin="round" stroke-width="0.075" rx="1" d="M0.15 0.563H0.225A0.037 0.037 0 0 1 0.263 0.6V0.675A0.037 0.037 0 0 1 0.225 0.713H0.15A0.037 0.037 0 0 1 0.112 0.675V0.6A0.037 0.037 0 0 1 0.15 0.563z"/></svg>