<svg fill="#FF0000" width="30px" height="30px" viewBox="0 0 0.9 0.9" xmlns="http://www.w3.org/2000/svg"><path d="M0.787 0.45a0.037 0.037 0 0 0 -0.037 0.037v0.225a0.037 0.037 0 0 1 -0.037 0.037H0.188a0.037 0.037 0 0 1 -0.037 -0.037V0.188a0.037 0.037 0 0 1 0.037 -0.037h0.225a0.037 0.037 0 0 0 0 -0.075H0.188a0.112 0.112 0 0 0 -0.112 0.112v0.525a0.112 0.112 0 0 0 0.112 0.112h0.525a0.112 0.112 0 0 0 0.112 -0.112v-0.225a0.037 0.037 0 0 0 -0.037 -0.037m-0.563 0.028V0.637a0.037 0.037 0 0 0 0.037 0.037h0.159a0.037 0.037 0 0 0 0.027 -0.011l0.26 -0.26L0.814 0.3a0.037 0.037 0 0 0 0 -0.053l-0.159 -0.161a0.037 0.037 0 0 0 -0.053 0l-0.106 0.106 -0.26 0.26a0.037 0.037 0 0 0 -0.011 0.027m0.403 -0.313 0.106 0.106 -0.053 0.053 -0.106 -0.106ZM0.3 0.494l0.222 -0.222 0.106 0.106L0.406 0.6H0.3Z"/></svg>