<svg xmlns="http://www.w3.org/2000/svg" viewBox="0 0 30 30" xml:space="preserve" width="30" height="30"><path fill="#fff" d="M29.837 12.016a1.03 1.03 0 0 0-.866-.473h-4.212V8.73a1.03 1.03 0 0 0-1.03-1.03h-8.25V5.956a1.03 1.03 0 0 0-1.03-1.03H1.03A1.03 1.03 0 0 0 0 5.956v18.088a1.03 1.03 0 0 0 1.03 1.03h22.698a1.03 1.03 0 0 0 .937-.602l5.242-11.471a1.03 1.03 0 0 0-.07-.985M2.633 23.014l4.301-9.412h20.434l-4.301 9.412zm3.639-11.471a1.03 1.03 0 0 0-.937.602L2.06 19.313V6.986h11.359V8.73a1.03 1.03 0 0 0 1.03 1.03h8.25v1.783z"/></svg>