<svg xmlns="http://www.w3.org/2000/svg" fill="#ffffff" width="30px" height="30px" viewBox="0 0 1.95 1.95" enable-background="new 0 0 52 52" xml:space="preserve"><g><path d="M1.706 0.375H1.238V0.225c0 -0.083 -0.068 -0.15 -0.15 -0.15h-0.225c-0.083 0 -0.15 0.068 -0.15 0.15v0.15H0.244c-0.03 0 -0.056 0.026 -0.056 0.056v0.112c0 0.03 0.026 0.056 0.056 0.056h1.462c0.03 0 0.056 -0.026 0.056 -0.056v-0.112c0 -0.03 -0.026 -0.056 -0.056 -0.056M0.862 0.263c0 -0.022 0.015 -0.037 0.037 -0.037h0.15c0.022 0 0.037 0.015 0.037 0.037v0.112h-0.225z"/><path d="M1.556 0.75h-1.162c-0.03 0 -0.056 0.026 -0.056 0.056V1.688c0 0.105 0.083 0.188 0.188 0.188h0.9c0.105 0 0.188 -0.083 0.188 -0.188V0.806c0 -0.03 -0.026 -0.056 -0.056 -0.056M0.862 1.575c0 0.022 -0.015 0.037 -0.037 0.037h-0.075c-0.022 0 -0.037 -0.015 -0.037 -0.037V1.05c0 -0.022 0.015 -0.037 0.037 -0.037h0.075c0.022 0 0.037 0.015 0.037 0.037zm0.375 0c0 0.022 -0.015 0.037 -0.037 0.037h-0.075c-0.022 0 -0.037 -0.015 -0.037 -0.037V1.05c0 -0.022 0.015 -0.037 0.037 -0.037h0.075c0.022 0 0.037 0.015 0.037 0.037z"/></g></svg>