<svg xmlns="http://www.w3.org/2000/svg" width="30" height="30" viewBox="0 0 30 30" fill="none" stroke="#FF0000" stroke-width="2" stroke-linecap="round" stroke-linejoin="round"><path x1="2" x2="5" y1="12" y2="12" d="M2.5 15L6.25 15"/><path x1="19" x2="22" y1="12" y2="12" d="M23.75 15L27.5 15"/><path x1="12" x2="12" y1="2" y2="5" d="M15 2.5L15 6.25"/><path x1="12" x2="12" y1="19" y2="22" d="M15 23.75L15 27.5"/><path cx="12" cy="12" r="7" d="M23.75 15A8.75 8.75 0 0 1 15 23.75A8.75 8.75 0 0 1 6.25 15A8.75 8.75 0 0 1 23.75 15z"/><path cx="12" cy="12" r="3" d="M18.75 15A3.75 3.75 0 0 1 15 18.75A3.75 3.75 0 0 1 11.25 15A3.75 3.75 0 0 1 18.75 15z"/></svg>