<svg width="800" height="800" viewBox="0 0 24 24" xmlns="http://www.w3.org/2000/svg"><path d="M0 1050.4h24l-4-6H4z" fill="#95a5a6" transform="translate(0 -1028.4)"/><path fill="#f1c40f" d="M2 1032.4h20v17H2z" transform="translate(0 -1028.4)"/><path fill="#ecf0f1" d="M4 1039.4h9v9H4zM14 1040.4h6v9h-6z" transform="translate(0 -1028.4)"/><path fill="#f39c12" d="M2 1037.4h20v4H2z" transform="translate(0 -1028.4)"/><path fill="#bdc3c7" d="M14 1039.4h6v1h-6zM4 1039.4h9v2H4z" transform="translate(0 -1028.4)"/><path d="M0 1036.4v1.5c0 .8.672 1.5 1.5 1.5s1.5-.7 1.5-1.5v-1.5z" fill="#c0392b" transform="translate(0 -1028.4)"/><path d="M3 1036.4v1.5c0 .8.672 1.5 1.5 1.5s1.5-.7 1.5-1.5v-1.5z" fill="#bdc3c7" transform="translate(0 -1028.4)"/><path d="M6 1036.4v1.5c0 .8.672 1.5 1.5 1.5s1.5-.7 1.5-1.5v-1.5z" fill="#c0392b" transform="translate(0 -1028.4)"/><path d="M9 1036.4v1.5c0 .8.672 1.5 1.5 1.5s1.5-.7 1.5-1.5v-1.5z" fill="#bdc3c7" transform="translate(0 -1028.4)"/><path d="M12 1036.4v1.5c0 .8.672 1.5 1.5 1.5s1.5-.7 1.5-1.5v-1.5z" fill="#c0392b" transform="translate(0 -1028.4)"/><path d="M15 1036.4v1.5c0 .8.672 1.5 1.5 1.5s1.5-.7 1.5-1.5v-1.5z" fill="#bdc3c7" transform="translate(0 -1028.4)"/><path d="M18 1036.4v1.5c0 .8.672 1.5 1.5 1.5s1.5-.7 1.5-1.5v-1.5z" fill="#c0392b" transform="translate(0 -1028.4)"/><path d="M21 1036.4v1.5c0 .8.672 1.5 1.5 1.5s1.5-.7 1.5-1.5v-1.5z" fill="#bdc3c7" transform="translate(0 -1028.4)"/><path d="M10 1032.4h2v4H9z" fill="#ecf0f1" transform="translate(0 -1028.4)"/><path d="M12 1032.4h2l1 4h-3z" fill="#e74c3c" transform="translate(0 -1028.4)"/><path d="M5 1032.4h3l-2 4H3z" fill="#ecf0f1" transform="translate(0 -1028.4)"/><path d="M8 1032.4h2l-1 4H6z" fill="#e74c3c" transform="translate(0 -1028.4)"/><path d="M16 1032.4h-2l1 4h3z" fill="#ecf0f1" transform="translate(0 -1028.4)"/><path d="M19 1032.4h-3l2 4h3zm-17 0h3l-2 4H0z" fill="#e74c3c" transform="translate(0 -1028.4)"/><path d="M22 1032.4h-3l2 4h3z" fill="#ecf0f1" transform="translate(0 -1028.4)"/><path fill="#3498db" d="M15 1041.4h4v8h-4z" transform="translate(0 -1028.4)"/><path fill="#ecf0f1" d="M14 1044.4h5v1h-5z" transform="translate(0 -1028.4)"/><path fill="#bdc3c7" d="M19 1040.4h1v1h-1z" transform="translate(0 -1028.4)"/><path fill="#2980b9" d="M15 1040.4h4v1h-4z" transform="translate(0 -1028.4)"/><path fill="#bdc3c7" d="M14 1040.4h1v1h-1z" transform="translate(0 -1028.4)"/><path fill="#3498db" d="M5 1040.4h7v7H5z" transform="translate(0 -1028.4)"/><g fill="#ecf0f1"><path d="M4 1043.4h9v1H4z" transform="translate(0 -1028.4)"/><path d="M8 1040.4h1v7H8zM1 1032.4h22l-3.667-2H4.667z" transform="translate(0 -1028.4)"/></g><path fill="#bdc3c7" d="M8 1040.4h1v1H8zM1 1031.4h22l-3.667-2H4.667z" transform="translate(0 -1028.4)"/><path fill="#7f8c8d" d="M1 1031.4h22v1H1z" transform="translate(0 -1028.4)"/><path fill="#2980b9" d="M15 1046.4h4v3h-4z" transform="translate(0 -1028.4)"/><path fill="#7f8c8d" d="M0 1050.4h24v1H0z" transform="translate(0 -1028.4)"/><path d="M5 1040.4v1h3v-1zm4 0v1h3v-1zm-4 6v1h3v-1zm4 0v1h3v-1z" fill="#2980b9" transform="translate(0 -1028.4)"/><path d="m2 1032.4-.5 1h3l.5-1zm5 0-.25 1h3l.25-1zm5 0v1h2.25l-.25-1zm4 0 .5 1h3l-.5-1z" fill="#c0392b" transform="translate(0 -1028.4)"/><path d="m5 1032.4-.5 1h3.001l.499-1zm5 0-.25 1H12v-1zm4 0 .25 1h2.25l-.5-1zm5 0 .5 1h3l-.5-1z" fill="#bdc3c7" transform="translate(0 -1028.4)"/></svg>