<svg width="30" height="30" viewBox="0 0 3.75 3.75" xmlns="http://www.w3.org/2000/svg" aria-hidden="true" class="iconify iconify--gis"><path fill="#FFFFFF" d="M2.636 0.374a0.06 0.06 0 0 0 -0.061 0.06l0.014 2.423a0.06 0.06 0 0 0 0.035 0.054l0.948 0.44a0.06 0.06 0 0 0 0.085 -0.054V0.881a0.06 0.06 0 0 0 -0.035 -0.054L2.66 0.379a0.06 0.06 0 0 0 -0.024 -0.006m-0.282 0.013a0.06 0.06 0 0 0 -0.024 0.006l-0.988 0.459a0.06 0.06 0 0 0 -0.035 0.055l0.014 2.41a0.06 0.06 0 0 0 0.085 0.054l0.988 -0.459a0.06 0.06 0 0 0 0.035 -0.055l-0.014 -2.41a0.06 0.06 0 0 0 -0.061 -0.06zm-2.198 0.012a0.06 0.06 0 0 0 -0.061 0.06v2.416a0.06 0.06 0 0 0 0.035 0.054l0.946 0.44a0.06 0.06 0 0 0 0.085 -0.055l-0.014 -2.423a0.06 0.06 0 0 0 -0.035 -0.054L0.179 0.405a0.06 0.06 0 0 0 -0.024 -0.006" fill-rule="evenodd"/></svg>