<svg width="30px" height="30px" viewBox="0 0 3.75 3.75" xmlns="http://www.w3.org/2000/svg" xmlns:xlink="http://www.w3.org/1999/xlink" aria-hidden="true" role="img" class="iconify iconify--gis" preserveAspectRatio="xMidYMid meet"><path d="M3.75 0.844v-0.011a0.112 0.112 0 0 0 -0.001 -0.01c0 0.007 0.001 0.014 0.001 0.021" fill="#FFFFFF" fill-rule="evenodd"/><path d="M2.775 0.375h0.263v0.337h0.337v0.263h-0.337v0.337h-0.263v-0.337h-0.337v-0.263h0.337zm0.131 -0.188C2.543 0.188 2.25 0.48 2.25 0.844S2.543 1.5 2.906 1.5 3.563 1.207 3.563 0.844 3.27 0.188 2.906 0.188" fill="#FFFFFF" fill-rule="evenodd"/><path d="m0.188 0.428 1.023 0.475 0.014 2.436L0.188 2.857zM0.097 0.188A0.094 0.094 0 0 0 0 0.281v2.636a0.094 0.094 0 0 0 0.054 0.085l1.187 0.552A0.094 0.094 0 0 0 1.282 3.563a0.094 0.094 0 0 0 0.039 -0.009l1.148 -0.533 1.148 0.533A0.094 0.094 0 0 0 3.75 3.469v-2.625a0.839 0.839 0 0 1 -0.188 0.529v1.949L2.525 2.84l-0.007 -1.248a0.848 0.848 0 0 1 -0.113 -0.071l0.007 1.319 -1.075 0.5 -0.014 -2.423 0.793 -0.368a0.848 0.848 0 0 1 0.187 -0.294l-1.022 0.475L0.133 0.196a0.094 0.094 0 0 0 -0.036 -0.009" fill="#FFFFFF" fill-rule="evenodd"/></svg>