<svg fill="#ff0000" width="40px" height="40px" viewBox="0 0 1.2 1.2" xmlns="http://www.w3.org/2000/svg"><path d="M0.8 0.15a0.05 0.05 0 0 0 -0.035 0.085 0.09 0.09 0 0 1 0.03 0.045 0.298 0.298 0 0 0 -0.259 -0.047A0.126 0.126 0 0 0 0.45 0.348C0.448 0.399 0.433 0.4 0.411 0.402A0.227 0.227 0 0 1 0.255 0.354L0.13 0.26A0.05 0.05 0 0 0 0.05 0.3v0.15a0.05 0.05 0 0 0 0.008 0.028l0.086 0.128a0.249 0.249 0 1 0 0.401 0.243 0.85 0.85 0 0 0 0.11 -0.002 0.25 0.25 0 1 0 0.422 -0.224C1.15 0.561 1.15 0.446 1.15 0.4c0 -0.198 -0.229 -0.25 -0.35 -0.25M0.3 0.95a0.15 0.15 0 1 1 0.15 -0.15 0.15 0.15 0 0 1 -0.15 0.15m0.6 0a0.15 0.15 0 0 1 -0.15 -0.15v-0.001A0.15 0.15 0 1 1 0.9 0.95m0.074 -0.388a0.246 0.246 0 0 0 -0.318 0.183 0.75 0.75 0 0 1 -0.111 0.004A0.251 0.251 0 0 0 0.3 0.55a0.25 0.25 0 0 0 -0.067 0.01L0.15 0.435V0.4l0.045 0.034a0.326 0.326 0 0 0 0.226 0.068c0.081 -0.008 0.125 -0.058 0.129 -0.149 0 -0.009 0.002 -0.019 0.021 -0.026a0.215 0.215 0 0 1 0.194 0.059 0.05 0.05 0 0 0 0.058 0.009 0.135 0.135 0 0 0 0.071 -0.093 0.12 0.12 0 0 0 -0.001 -0.041C0.964 0.276 1.05 0.313 1.05 0.4c0 0.092 -0.013 0.151 -0.076 0.162"/></svg>