<?xml version="1.0" encoding="UTF-8" standalone="no"?>
<!-- Created with Inkscape (http://www.inkscape.org/) -->

<svg
   version="1.1"
   id="svg2"
   width="907.97333"
   height="580.84003"
   viewBox="0 0 907.97333 580.84003"
   sodipodi:docname="7171676_3544877.eps"
   xmlns:inkscape="http://www.inkscape.org/namespaces/inkscape"
   xmlns:sodipodi="http://sodipodi.sourceforge.net/DTD/sodipodi-0.dtd"
   xmlns="http://www.w3.org/2000/svg"
   xmlns:svg="http://www.w3.org/2000/svg">
  <defs
     id="defs6" />
  <sodipodi:namedview
     id="namedview4"
     pagecolor="#ffffff"
     bordercolor="#000000"
     borderopacity="0.25"
     inkscape:showpageshadow="2"
     inkscape:pageopacity="0.0"
     inkscape:pagecheckerboard="0"
     inkscape:deskcolor="#d1d1d1" />
  <g
     id="g8"
     inkscape:groupmode="layer"
     inkscape:label="ink_ext_XXXXXX"
     transform="matrix(1.3333333,0,0,-1.3333333,0,580.84)">
    <g
       id="g10"
       transform="scale(0.1)">
      <path
         d="m 1758.03,3384.14 c 12.85,93.35 -118.89,170.15 -217.89,178.13 -47.21,3.8 -96.25,-3.42 -140.97,12.17 -96.9,33.77 -135.6,158.96 -230.15,198.84 -70.69,29.81 -152.07,3.27 -220.598,-31.22 -68.527,-34.49 -136.25,-77.89 -212.809,-82.79 -66.597,-4.27 -138.918,20.43 -197.175,-12.1 -43.418,-24.24 -66.165,-74.27 -106.184,-103.78 -39.149,-28.88 -90.219,-35 -138.793,-37.64 -48.574,-2.64 -98.863,-3.13 -143.098,-23.38 -44.23,-20.26 -80.82,-67.03 -71.6442,-114.8 l 1679.3112,16.57"
         style="fill:#f3f2f1;fill-opacity:1;fill-rule:nonzero;stroke:none"
         id="path12" />
      <path
         d="m 5899.14,3324.18 c 12.84,93.35 -118.9,170.14 -217.89,178.12 -47.21,3.8 -96.25,-3.41 -140.98,12.17 -96.89,33.78 -135.6,158.96 -230.15,198.84 -70.69,29.81 -152.07,3.28 -220.59,-31.22 -68.54,-34.48 -136.25,-77.89 -212.81,-82.79 -66.6,-4.26 -138.92,20.43 -197.18,-12.1 -43.42,-24.24 -66.16,-74.27 -106.18,-103.79 -39.15,-28.87 -90.22,-34.98 -138.8,-37.62 -48.58,-2.65 -98.86,-3.14 -143.1,-23.39 -44.23,-20.26 -80.82,-67.02 -71.64,-114.79 l 1679.32,16.57"
         style="fill:#f3f2f1;fill-opacity:1;fill-rule:nonzero;stroke:none"
         id="path14" />
      <path
         d="m 2755.45,3994.06 c 7.75,56.28 -71.68,102.57 -131.36,107.38 -28.46,2.3 -58.02,-2.05 -84.99,7.34 -58.41,20.36 -81.75,95.84 -138.75,119.88 -42.61,17.97 -91.68,1.97 -132.99,-18.82 -41.31,-20.79 -82.14,-46.96 -128.3,-49.91 -40.15,-2.58 -83.74,12.31 -118.87,-7.3 -26.17,-14.61 -39.88,-44.77 -64.01,-62.57 -23.6,-17.41 -54.39,-21.09 -83.68,-22.69 -29.28,-1.59 -59.6,-1.89 -86.26,-14.1 -26.67,-12.2 -48.73,-40.4 -43.19,-69.2 l 1012.4,9.99"
         style="fill:#e7e8e5;fill-opacity:1;fill-rule:nonzero;stroke:none"
         id="path16" />
      <path
         d="m 6452.28,3836.65 c 5.79,42.09 -53.61,76.71 -98.24,80.31 -21.29,1.72 -43.4,-1.54 -63.56,5.49 -43.68,15.23 -61.14,71.67 -103.77,89.65 -31.87,13.44 -68.56,1.47 -99.46,-14.08 -30.89,-15.55 -61.43,-35.12 -95.94,-37.32 -30.03,-1.93 -62.64,9.21 -88.91,-5.46 -19.57,-10.93 -29.82,-33.48 -47.87,-46.79 -17.66,-13.02 -40.67,-15.78 -62.58,-16.97 -21.9,-1.19 -44.57,-1.41 -64.52,-10.54 -19.94,-9.14 -36.44,-30.23 -32.3,-51.76 l 757.15,7.47"
         style="fill:#e7e8e5;fill-opacity:1;fill-rule:nonzero;stroke:none"
         id="path18" />
      <path
         d="m 4736.82,892.648 c 68.48,-37.078 138.52,-82.218 211.73,-108.718 396.89,-143.66 804.15,-165.371 1205.48,-57.231 128.8,34.711 222.83,90.68 276.72,169.403 26.23,38.32 29.99,88.867 5.46,128.288 -39.21,62.99 -121.97,58.44 -190.41,46.11 -140.36,-25.28 -283.45,-63.89 -423.47,-36.78 -93.89,18.18 -179.44,64.84 -269.16,97.97 -93.49,34.53 -200.15,53.9 -290.62,9.89 -7.48,-3.64 -13.13,-10.82 -13.89,-19.11 -1.33,-14.46 11.88,-20.6 23.18,-25.32 100.33,-41.86 207.04,-18.3 289.07,-87.96 35.88,-30.499 30.08,-86.21 -11.3,-108.69 -52.74,-28.648 -136.63,-41.711 -212.92,-33.781 -68.73,7.152 -129.91,61.633 -197.76,48.562 l -402.11,-22.633"
         style="fill:#e7e8e5;fill-opacity:1;fill-rule:nonzero;stroke:none"
         id="path20" />
      <path
         d="m 5349.69,3961.73 10.63,-19.43 c 4,-7.33 10.03,-13.35 17.35,-17.36 l 19.44,-10.63 -19.44,-10.63 c -7.32,-4 -13.35,-10.02 -17.35,-17.36 l -10.63,-19.42 -10.63,19.42 c -4,7.34 -10.03,13.36 -17.35,17.36 l -19.44,10.63 19.44,10.63 c 7.32,4.01 13.35,10.03 17.35,17.36 l 10.63,19.43"
         style="fill:#e7e8e5;fill-opacity:1;fill-rule:nonzero;stroke:none"
         id="path22" />
      <path
         d="m 2125.88,3634.93 10.63,-19.43 c 4.01,-7.33 10.03,-13.36 17.36,-17.36 l 19.42,-10.63 -19.42,-10.62 c -7.33,-4.01 -13.35,-10.03 -17.36,-17.36 l -10.63,-19.43 -10.63,19.43 c -4,7.33 -10.03,13.35 -17.36,17.36 l -19.43,10.62 19.43,10.63 c 7.33,4 13.36,10.03 17.36,17.36 l 10.63,19.43"
         style="fill:#e7e8e5;fill-opacity:1;fill-rule:nonzero;stroke:none"
         id="path24" />
      <path
         d="m 800.004,2961.25 10.625,-19.43 c 4.008,-7.32 10.027,-13.35 17.355,-17.35 l 19.43,-10.63 -19.43,-10.63 c -7.328,-4 -13.347,-10.03 -17.355,-17.36 l -10.625,-19.43 -10.629,19.43 c -4.008,7.33 -10.031,13.36 -17.359,17.36 l -19.43,10.63 19.43,10.63 c 7.328,4 13.351,10.03 17.359,17.35 l 10.629,19.43"
         style="fill:#e7e8e5;fill-opacity:1;fill-rule:nonzero;stroke:none"
         id="path26" />
      <path
         d="m 4974.09,4356.32 10.62,-19.43 c 4.01,-7.33 10.03,-13.35 17.37,-17.35 l 19.42,-10.63 -19.42,-10.63 c -7.34,-4.01 -13.36,-10.03 -17.37,-17.36 l -10.62,-19.43 -10.63,19.43 c -4.01,7.33 -10.02,13.35 -17.36,17.36 l -19.42,10.63 19.42,10.63 c 7.34,4 13.35,10.02 17.36,17.35 l 10.63,19.43"
         style="fill:#e7e8e5;fill-opacity:1;fill-rule:nonzero;stroke:none"
         id="path28" />
      <path
         d="m 3744.35,3605.91 6.51,-11.89 c 2.45,-4.48 6.14,-8.18 10.62,-10.63 l 11.9,-6.5 -11.9,-6.51 c -4.48,-2.45 -8.17,-6.14 -10.62,-10.62 l -6.51,-11.89 -6.5,11.89 c -2.45,4.48 -6.14,8.17 -10.63,10.62 l -11.89,6.51 11.89,6.5 c 4.49,2.45 8.18,6.15 10.63,10.63 l 6.5,11.89"
         style="fill:#e7e8e5;fill-opacity:1;fill-rule:nonzero;stroke:none"
         id="path30" />
      <path
         d="m 875.52,4280.92 4.246,-7.76 c 1.593,-2.92 4.004,-5.32 6.925,-6.93 l 7.758,-4.24 -7.758,-4.24 c -2.921,-1.6 -5.332,-4.01 -6.925,-6.93 l -4.246,-7.76 -4.243,7.76 c -1.601,2.92 -4.004,5.33 -6.929,6.93 l -7.758,4.24 7.758,4.24 c 2.925,1.61 5.328,4.01 6.929,6.93 l 4.243,7.76"
         style="fill:#dadbd8;fill-opacity:1;fill-rule:nonzero;stroke:none"
         id="path32" />
      <path
         d="m 3840.91,4210.66 4.23,-7.76 c 1.61,-2.93 4.01,-5.33 6.94,-6.93 l 7.75,-4.24 -7.75,-4.24 c -2.93,-1.6 -5.33,-4.01 -6.94,-6.94 l -4.23,-7.75 -4.25,7.75 c -1.6,2.93 -4.01,5.34 -6.93,6.94 l -7.76,4.24 7.76,4.24 c 2.92,1.6 5.33,4 6.93,6.93 l 4.25,7.76"
         style="fill:#dadbd8;fill-opacity:1;fill-rule:nonzero;stroke:none"
         id="path34" />
      <path
         d="m 5300.55,2924.47 4.23,-7.76 c 1.6,-2.93 4.01,-5.33 6.94,-6.93 l 7.75,-4.24 -7.75,-4.25 c -2.93,-1.59 -5.34,-4 -6.94,-6.93 l -4.23,-7.76 -4.24,7.76 c -1.6,2.93 -4.02,5.34 -6.94,6.93 l -7.75,4.25 7.75,4.24 c 2.92,1.6 5.34,4 6.94,6.93 l 4.24,7.76"
         style="fill:#dadbd8;fill-opacity:1;fill-rule:nonzero;stroke:none"
         id="path36" />
      <path
         d="m 6388.3,3315.36 4.25,-7.75 c 1.6,-2.93 4,-5.34 6.92,-6.93 l 7.76,-4.25 -7.76,-4.24 c -2.92,-1.6 -5.32,-4 -6.92,-6.93 l -4.25,-7.76 -4.24,7.76 c -1.6,2.93 -4,5.33 -6.93,6.93 l -7.76,4.24 7.76,4.25 c 2.93,1.59 5.33,4 6.93,6.93 l 4.24,7.75"
         style="fill:#dadbd8;fill-opacity:1;fill-rule:nonzero;stroke:none"
         id="path38" />
      <path
         d="m 547.41,2603.39 4.242,-7.76 c 1.598,-2.93 4.004,-5.33 6.93,-6.93 l 7.758,-4.24 -7.758,-4.25 c -2.926,-1.6 -5.332,-4 -6.93,-6.93 l -4.242,-7.75 -4.242,7.75 c -1.602,2.93 -4.004,5.33 -6.93,6.93 l -7.758,4.25 7.758,4.24 c 2.926,1.6 5.328,4 6.93,6.93 l 4.242,7.76"
         style="fill:#dadbd8;fill-opacity:1;fill-rule:nonzero;stroke:none"
         id="path40" />
      <path
         d="m 2177.13,464.23 c 0,-1.429 -368.2,-2.609 -822.3,-2.609 -454.252,0 -822.377,1.18 -822.377,2.609 0,1.442 368.125,2.61 822.377,2.61 454.1,0 822.3,-1.168 822.3,-2.61"
         style="fill:#dadbd8;fill-opacity:1;fill-rule:nonzero;stroke:none"
         id="path42" />
      <path
         d="m 2594.98,529.102 c 0,-1.43 -208.42,-2.59 -465.47,-2.59 -257.14,0 -465.53,1.16 -465.53,2.59 0,1.437 208.39,2.609 465.53,2.609 257.05,0 465.47,-1.172 465.47,-2.609"
         style="fill:#dadbd8;fill-opacity:1;fill-rule:nonzero;stroke:none"
         id="path44" />
      <path
         d="m 6571.34,2851.56 18.15,-33.2 c 6.85,-12.51 17.14,-22.81 29.66,-29.65 l 33.19,-18.16 -33.19,-18.14 c -12.52,-6.85 -22.81,-17.14 -29.66,-29.66 l -18.15,-33.19 -18.16,33.19 c -6.84,12.52 -17.13,22.81 -29.65,29.66 l -33.19,18.14 33.19,18.16 c 12.52,6.84 22.81,17.14 29.65,29.65 l 18.16,33.2"
         style="fill:#e7e8e5;fill-opacity:1;fill-rule:nonzero;stroke:none"
         id="path46" />
      <path
         d="m 6809.83,1376.83 c 0,0 -3.56,-0.41 -10.52,-0.95 -7.08,-0.52 -17.4,-1.27 -30.9,-2.25 -27.29,-1.88 -67.33,-4.63 -118.85,-8.18 -103.34,-6.87 -252.67,-16.8 -437.17,-29.08 -369.27,-24.05 -879.22,-57.27 -1442.44,-93.97 -128.04,-8.27 -253.32,-16.34 -374.47,-24.15 l 1.76,0.87 C 4245.03,1044.41 4102.17,880.441 3973.43,732.672 l -0.3,-0.34 -0.4,-0.203 C 3839.74,665.73 3718.36,605.141 3610.23,551.16 l 0.83,0.828 C 3524.81,381.41 3455.01,243.371 3406.72,147.852 c -24.2,-47.582 -43,-84.5512 -55.8,-109.7426 -6.4,-12.4492 -11.28,-21.961 -14.63,-28.48831 C 3332.97,3.23047 3331.14,0 3331.14,0 c 0,0 1.5,3.37891 4.66,9.87109 3.25,6.57811 7.98,16.16801 14.16,28.71871 12.61,25.2891 31.11,62.4102 54.91,110.1912 47.95,95.699 117.24,233.989 202.86,404.867 l 0.28,0.563 0.55,0.269 c 108.03,54.2 229.29,115.032 362.15,181.688 l -0.68,-0.539 c 128.6,147.891 271.31,312.001 423.35,486.841 l 0.7,0.81 1.06,0.07 c 121.16,7.84 246.44,15.95 374.48,24.24 563.26,36.11 1073.24,68.79 1442.53,92.46 184.55,11.57 333.91,20.95 437.28,27.43 51.55,3.12 91.61,5.54 118.92,7.19 13.5,0.76 23.83,1.35 30.92,1.74 6.98,0.37 10.56,0.42 10.56,0.42"
         style="fill:#17282f;fill-opacity:1;fill-rule:nonzero;stroke:none"
         id="path48" />
      <path
         d="m 4215.38,655.391 c -1.35,0.507 40.3,114.05 93.03,253.55 52.73,139.549 96.56,252.219 97.91,251.719 1.33,-0.51 -40.31,-114.02 -93.04,-253.57 -52.73,-139.5 -96.56,-252.199 -97.9,-251.699"
         style="fill:#17282f;fill-opacity:1;fill-rule:nonzero;stroke:none"
         id="path50" />
      <path
         d="m 4146.27,443.531 c -1.17,-0.832 -38.61,50.039 -83.6,113.59 -45,63.59 -80.51,115.777 -79.34,116.609 1.17,0.829 38.59,-50.019 83.6,-113.601 44.98,-63.551 80.52,-115.77 79.34,-116.598"
         style="fill:#17282f;fill-opacity:1;fill-rule:nonzero;stroke:none"
         id="path52" />
      <path
         d="m 3066.67,1809.9 138.44,-970.478 137.24,970.658 2.17,-0.3 136.7,974.22 c -110.24,17.78 -223.29,27.15 -338.55,27.15 -75.1,0 -149.27,-3.99 -222.35,-11.64 l 142.31,-990.2 c 1.35,0.19 2.69,0.39 4.04,0.59"
         style="fill:#f03d5f;fill-opacity:1;fill-rule:nonzero;stroke:none"
         id="path54" />
      <path
         d="M 3207.27,831.309 4601.46,2452.73 c -143.22,119.18 -411.7,90.52 -583.25,168.81 l -404.31,-890.78 2.17,-0.98 -408.8,-898.471"
         style="fill:#f03d5f;fill-opacity:1;fill-rule:nonzero;stroke:none"
         id="path56" />
      <path
         d="m 3216.5,831.012 h -4.27 l 2547.64,885.838 c -64.11,182.29 -152.49,353.12 -261.34,508.61 L 3211.72,831.012 h -3.39 l 1.4,1.636 -2.52,-1.636 h -0.03 l 0.03,0.156 -0.2,-0.156 0.92,5.308 -1.82,-3.988 0.19,-1.32 -1.17,-0.871 -0.4,0.871 h -0.82 l 0.2,1.347 -1.56,3.391 0.63,-4.379 0.32,-0.359 h -0.26 l 0.01,-0.153 -1.99,1.301 0.99,-1.148 h -3.26 L 1494.11,1873.64 C 1374.35,1712.66 972.777,1689.55 902.41,1497.89 l 1354.29,-391.4 0.02,0.03 940.99,-275.508 h -3.7 l 9.08,-2.672 -0.12,-0.078 0.18,0.058 0.02,-0.011 0.4,0.293 0.03,-0.153 0.64,0.192 -0.09,0.168 0.13,-0.149 0.21,0.051 -0.09,-0.18 0.23,-0.281 0.65,-0.551 0.52,0.391 -0.11,-0.27 0.44,0.121 -0.03,0.071 0.04,-0.063 0.57,0.172 0.05,-0.223 0.38,0.352 0.22,-0.059 -0.59,-0.39 3.81,-1.66 -3.12,2.007 0.02,0.114 h -0.32 l 0.09,0.019 -0.41,0.27 0.12,0.89 4.33,1.289 -3.55,-2.312 8.76,2.594"
         style="fill:#f03d5f;fill-opacity:1;fill-rule:nonzero;stroke:none"
         id="path58" />
      <path
         d="m 2557.05,1576.96 645.7,-745.101 -409.58,897.411 0.32,0.16 -427.6,934.2 c -181.7,-71.93 -390.4,-111.76 -543.3,-228.6 l 734.31,-858.2 0.15,0.13"
         style="fill:#f03d5f;fill-opacity:1;fill-rule:nonzero;stroke:none"
         id="path60" />
      <path
         d="m 3206.49,826.102 0.02,0.066 -0.16,0.094 0.14,-0.16"
         style="fill:#f03d5f;fill-opacity:1;fill-rule:nonzero;stroke:none"
         id="path62" />
      <path
         d="m 3204.16,828.031 -0.11,-0.269 -0.38,0.238 0.11,-0.738 0.07,0.09 -0.02,-0.082 0.66,0.191 -0.34,0.219 0.23,0.281 0.18,-0.051 -0.07,0.168 0.14,0.172 h -1 l 0.53,-0.219"
         style="fill:#f03d5f;fill-opacity:1;fill-rule:nonzero;stroke:none"
         id="path64" />
      <path
         d="m 3199.42,825.969 3.95,1.172 0.13,0.961 -0.24,0.148 -3.84,-2.281"
         style="fill:#f03d5f;fill-opacity:1;fill-rule:nonzero;stroke:none"
         id="path66" />
      <path
         d="m 3206.67,827.352 0.06,0.418 -0.27,-0.18 0.21,-0.238"
         style="fill:#f03d5f;fill-opacity:1;fill-rule:nonzero;stroke:none"
         id="path68" />
      <path
         d="m 3204.18,824.488 1.05,-7.386 1,7.136 -1.08,2.391 -0.97,-2.141"
         style="fill:#f03d5f;fill-opacity:1;fill-rule:nonzero;stroke:none"
         id="path70" />
      <path
         d="m 3206.33,827.5 -0.13,-0.07 0.19,-0.051 -0.06,0.121"
         style="fill:#f03d5f;fill-opacity:1;fill-rule:nonzero;stroke:none"
         id="path72" />
      <path
         d="M 3205.11,839.422 3066.67,1809.9 c -1.35,-0.2 -2.69,-0.4 -4.04,-0.59 l -142.31,990.2 c 73.08,7.65 147.25,11.64 222.35,11.64 115.26,0 228.31,-9.37 338.55,-27.15 l -136.7,-974.22 -2.17,0.3 -137.24,-970.658"
         style="fill:#fde3e9;fill-opacity:1;fill-rule:nonzero;stroke:none"
         id="path74" />
      <path
         d="m 3207.27,831.309 408.8,898.471 -2.17,0.98 404.31,890.78 c 171.55,-78.29 440.03,-49.63 583.25,-168.81 L 3207.27,831.309"
         style="fill:#fde3e9;fill-opacity:1;fill-rule:nonzero;stroke:none"
         id="path76" />
      <path
         d="m 3210.58,826.141 -3.81,1.66 0.59,0.39 -0.22,0.059 -0.38,-0.352 -0.05,0.223 -0.57,-0.172 -0.04,0.063 0.03,-0.071 -0.44,-0.121 0.11,0.27 -0.52,-0.391 -0.65,0.551 -0.23,0.281 0.09,0.18 -0.21,-0.051 -0.13,0.149 0.09,-0.168 -0.64,-0.192 -0.03,0.153 -0.4,-0.293 -0.02,0.011 -0.18,-0.058 0.12,0.078 -9.08,2.672 h 3.7 l -940.99,275.508 -0.02,-0.03 -665.22,192.26 829.3,8.18 778.21,-475.918 h 3.26 l -0.99,1.148 1.99,-1.301 -0.01,0.153 h 0.26 l -0.32,0.359 -0.63,4.379 1.56,-3.391 -0.2,-1.347 h 0.82 l 0.4,-0.871 1.17,0.871 -0.19,1.32 1.82,3.988 -0.92,-5.308 0.2,0.156 -0.03,-0.156 h 0.03 l 2.52,1.636 -1.4,-1.636 h 3.39 l 1730.26,1055.078 108.92,8.02 c -0.48,-0.8 -0.96,-1.61 -1.43,-2.42 -11.86,-20.29 -19.01,-42.5 -24.17,-64.48 -5.1,-22.06 -8.28,-44.07 -11.13,-65.64 -5.92,-43.17 -10.33,-84.97 -13.73,-124.83 -5.8,-69.19 -8.72,-132.55 -10.48,-187.6 L 3212.23,831.012 h 4.27 l -8.76,-2.594 3.55,2.312 -4.33,-1.289 -0.12,-0.89 0.41,-0.27 -0.09,-0.019 h 0.32 l -0.02,-0.114 3.12,-2.007 m 1783.3,624.369 c 2.14,54.64 5.38,117.39 11.34,185.81 0.53,5.93 1.07,11.89 1.64,17.9 l -10.62,-202.89 -2.36,-0.82 m 48.64,415.05 c 3.25,8.06 7.01,15.94 11.44,23.51 1.08,1.86 2.2,3.7 3.36,5.51 l 0.32,0.03 c -5.6,-9.16 -10.62,-18.88 -15.12,-29.05 m 582.8,45.36 -49.45,35.57 c 1.9,0.2 3.87,0.41 5.92,0.64 10.96,1.22 23.92,2.91 38.23,5.12 0.82,-6.55 2.73,-21.63 5.3,-41.33 m -53.43,38.43 -1.21,0.87 40,5.27 c -10.83,-1.82 -20.73,-3.39 -29.37,-4.71 -3.33,-0.5 -6.48,-0.98 -9.42,-1.43"
         style="fill:#fde3e9;fill-opacity:1;fill-rule:nonzero;stroke:none"
         id="path78" />
      <path
         d="m 3202.75,831.859 -645.7,745.101 -0.15,-0.13 -734.31,858.2 c 152.9,116.84 361.6,156.67 543.3,228.6 l 427.6,-934.2 -0.32,-0.16 409.58,-897.411"
         style="fill:#fde3e9;fill-opacity:1;fill-rule:nonzero;stroke:none"
         id="path80" />
      <path
         d="m 3206.49,826.102 -0.14,0.16 0.16,-0.094 -0.02,-0.066"
         style="fill:#fde3e9;fill-opacity:1;fill-rule:nonzero;stroke:none"
         id="path82" />
      <path
         d="m 3203.78,827.262 -0.11,0.738 0.38,-0.238 0.11,0.269 -0.53,0.219 h 1 l -0.14,-0.172 0.07,-0.168 -0.18,0.051 -0.23,-0.281 0.34,-0.219 -0.66,-0.191 0.02,0.082 -0.07,-0.09"
         style="fill:#fde3e9;fill-opacity:1;fill-rule:nonzero;stroke:none"
         id="path84" />
      <path
         d="m 3199.42,825.969 3.84,2.281 0.24,-0.148 -0.13,-0.961 -3.95,-1.172"
         style="fill:#fde3e9;fill-opacity:1;fill-rule:nonzero;stroke:none"
         id="path86" />
      <path
         d="m 3206.67,827.352 -0.21,0.238 0.27,0.18 -0.06,-0.418"
         style="fill:#fde3e9;fill-opacity:1;fill-rule:nonzero;stroke:none"
         id="path88" />
      <path
         d="m 3205.23,817.102 -1.05,7.386 0.97,2.141 1.08,-2.391 -1,-7.136"
         style="fill:#fde3e9;fill-opacity:1;fill-rule:nonzero;stroke:none"
         id="path90" />
      <path
         d="m 3206.39,827.379 -0.19,0.051 0.13,0.07 0.06,-0.121"
         style="fill:#fde3e9;fill-opacity:1;fill-rule:nonzero;stroke:none"
         id="path92" />
      <path
         d="m 2713.64,839.461 c 5.89,187.419 116.86,388.439 281.37,478.439 164.5,90 376.49,86.01 537.5,-10.1 161.01,-96.13 265.11,-280.83 263.95,-468.339"
         style="fill:#f03d5f;fill-opacity:1;fill-rule:nonzero;stroke:none"
         id="path94" />
      <path
         d="m 5141.77,1524.33 -9.5,-249.64 c 0,0 -256.93,-74.21 -263.18,-120.18 l 483.39,-35.77 30.74,388.38 -241.45,17.21"
         style="fill:#f03d5f;fill-opacity:1;fill-rule:nonzero;stroke:none"
         id="path96" />
      <path
         d="m 5277.24,1248.12 c -1.75,0 -3.5,0.26 -5.18,0.83 -6.39,2.14 -11.83,9.04 -13.27,16.05 l 0.51,8.46 c 0.07,0.16 0.13,0.32 0.2,0.48 2.9,6.66 11.15,11.8 18.56,11.8 2.51,0 4.92,-0.59 7,-1.91 l -0.06,0.03 c 8.16,-3.93 12.97,-14.13 10.28,-22.83 -2.35,-7.59 -10.21,-12.91 -18.04,-12.91"
         style="fill:#f89db4;fill-opacity:1;fill-rule:nonzero;stroke:none"
         id="path98" />
      <path
         d="m 4998.24,1144.96 -129.15,9.55 c -0.95,11.16 10.54,18.31 16.88,21.39 -9.84,-7.51 -15.98,-14.74 -16.88,-21.39 l 129.15,-9.55"
         style="fill:#ffffff;fill-opacity:1;fill-rule:nonzero;stroke:none"
         id="path100" />
      <path
         d="m 5352.48,1118.74 -118.04,8.74 2.81,35.47 116.8,-4.94 -1.57,-39.27 m -354.24,26.22 -129.15,9.55 c 0.9,6.65 7.04,13.88 16.88,21.39 2.37,1.15 4.03,1.73 4.03,1.73 l 109.31,-4.62 -1.07,-28.05"
         style="fill:#f89db4;fill-opacity:1;fill-rule:nonzero;stroke:none"
         id="path102" />
      <path
         d="m 5124.63,1277.73 c -0.1,-2.38 11.62,-4.32 22.67,-12.77 11.28,-8.16 16.51,-18.82 18.74,-18.05 2.22,0.3 -0.26,14.67 -13.82,24.67 -13.47,10.11 -27.94,8.34 -27.59,6.15"
         style="fill:#17282f;fill-opacity:1;fill-rule:nonzero;stroke:none"
         id="path104" />
      <path
         d="m 5072.37,1260.51 c -0.71,-2.25 9.22,-7.02 16.5,-17.6 7.58,-10.36 8.8,-21.31 11.17,-21.37 2.18,-0.54 4.84,13.16 -4.46,26.14 -9.18,13.06 -22.98,15.08 -23.21,12.83"
         style="fill:#17282f;fill-opacity:1;fill-rule:nonzero;stroke:none"
         id="path106" />
      <path
         d="m 5039.08,1201.96 c 2.11,-0.67 6.27,10.88 1.16,24.26 -5.01,13.41 -15.76,19.34 -16.9,17.45 -1.48,-1.85 5.17,-9.31 9.2,-20.36 4.28,-10.94 4.22,-20.94 6.54,-21.35"
         style="fill:#17282f;fill-opacity:1;fill-rule:nonzero;stroke:none"
         id="path108" />
      <path
         d="m 5133.1,1334.38 c 0.83,-2.23 11.9,0.23 25.17,-1.66 13.32,-1.62 23.37,-6.88 24.75,-4.94 1.49,1.61 -8,11.09 -23.67,13.1 -15.64,2.13 -27.27,-4.56 -26.25,-6.5"
         style="fill:#17282f;fill-opacity:1;fill-rule:nonzero;stroke:none"
         id="path110" />
      <path
         d="m 5375.93,1414.97 v 0 l 0.09,1.12 c 0,-0.01 0,0 0,-0.01 l -0.09,-1.11"
         style="fill:#a7a9a8;fill-opacity:1;fill-rule:nonzero;stroke:none"
         id="path112" />
      <path
         d="m 5375.93,1414.97 -107.67,6.99 1.84,30.49 87.23,-10.1 c 6.07,-8.54 12.32,-17.33 18.69,-26.26 l -0.09,-1.12"
         style="fill:#ba2c42;fill-opacity:1;fill-rule:nonzero;stroke:none"
         id="path114" />
      <path
         d="m 5135.95,1384.71 c -0.11,-0.98 9.12,-3.13 24.21,-1.67 7.51,0.73 16.44,2.52 25.9,5.91 4.74,1.7 9.6,3.8 14.46,6.35 2.33,1.27 5.07,2.52 7.73,5.14 2.79,2.28 4.75,8.43 2.01,12.48 -2.21,3.9 -6.46,5.83 -9.95,6.16 -3.55,0.39 -6.49,-0.12 -9.17,-0.57 -5.48,-0.91 -10.65,-2.33 -15.43,-4.05 -9.55,-3.52 -17.45,-8.29 -23.41,-13 -11.98,-9.56 -16.46,-18.1 -15.69,-18.62 1.02,-0.84 7.01,6.14 19.06,13.86 6.01,3.85 13.61,7.72 22.49,10.57 4.46,1.4 9.22,2.54 14.22,3.26 5.23,0.97 9.58,0.68 10.72,-1.7 0.41,-0.9 0.45,-1.25 -0.73,-2.67 -1.21,-1.29 -3.38,-2.5 -5.68,-3.75 -4.48,-2.48 -8.97,-4.58 -13.33,-6.37 -8.74,-3.56 -17.01,-5.82 -24.06,-7.24 -14.15,-2.84 -23.31,-2.81 -23.35,-4.09"
         style="fill:#17282f;fill-opacity:1;fill-rule:nonzero;stroke:none"
         id="path116" />
      <path
         d="m 5138.77,1381.1 c 0.81,-0.42 6.11,7.68 8.11,22.91 0.97,7.55 0.86,16.79 -1.33,26.74 -1.14,4.97 -2.79,10.09 -5.08,15.16 -2.48,4.99 -5.47,11.64 -14.54,13.37 -4.78,0.53 -9.03,-2.91 -10.62,-6.01 -1.84,-3.15 -2.36,-5.93 -3.14,-8.69 -1.3,-5.57 -1.61,-11.12 -1.22,-16.3 0.76,-10.41 4.34,-19.27 8.49,-25.78 8.52,-13.22 18.16,-16.76 18.42,-15.98 0.87,1.12 -7.02,6.29 -13.36,18.86 -3.12,6.2 -5.71,14.26 -5.98,23.31 -0.13,4.52 0.29,9.26 1.49,13.96 1.13,5.09 3.37,9.08 5.25,8.42 2.4,-0.14 6.21,-4.31 7.88,-8.56 2.17,-4.52 3.81,-9.1 5.03,-13.56 2.38,-8.97 3.09,-17.42 2.9,-24.5 -0.39,-14.24 -3.56,-22.89 -2.3,-23.35"
         style="fill:#17282f;fill-opacity:1;fill-rule:nonzero;stroke:none"
         id="path118" />
      <path
         d="m 5003.08,1272.32 -9.49,-249.65 c 0,0 -256.93,-74.201 -263.18,-120.17 l 483.39,-35.781 30.74,388.381 -241.46,17.22"
         style="fill:#f03d5f;fill-opacity:1;fill-rule:nonzero;stroke:none"
         id="path120" />
      <path
         d="m 5138.56,996.109 c -1.76,0 -3.51,0.262 -5.19,0.832 -9.22,3.079 -16.45,16.069 -12.55,24.989 2.9,6.65 11.15,11.79 18.55,11.79 2.48,0 4.87,-0.58 6.93,-1.87 8.17,-3.92 12.99,-14.13 10.3,-22.83 -2.35,-7.6 -10.21,-12.911 -18.04,-12.911 m 7.81,35.701 v 0"
         style="fill:#f89db4;fill-opacity:1;fill-rule:nonzero;stroke:none"
         id="path122" />
      <path
         d="m 4808.8,896.699 -78.39,5.801 c -0.95,11.148 10.51,18.289 16.85,21.371 -9.82,-7.512 -15.95,-14.73 -16.85,-21.371 l 78.39,-5.801"
         style="fill:#ffffff;fill-opacity:1;fill-rule:nonzero;stroke:none"
         id="path124" />
      <path
         d="m 5213.8,866.719 -405,29.98 -78.39,5.801 c 0.9,6.641 7.03,13.859 16.85,21.371 2.39,1.16 4.06,1.738 4.06,1.738 l 464.05,-19.621 -1.57,-39.269"
         style="fill:#f89db4;fill-opacity:1;fill-rule:nonzero;stroke:none"
         id="path126" />
      <path
         d="m 4985.95,1025.71 c -0.1,-2.37 11.62,-4.31 22.67,-12.76 11.27,-8.16 16.51,-18.829 18.74,-18.052 2.22,0.293 -0.26,14.662 -13.83,24.662 -13.46,10.11 -27.94,8.35 -27.58,6.15"
         style="fill:#17282f;fill-opacity:1;fill-rule:nonzero;stroke:none"
         id="path128" />
      <path
         d="m 4933.69,1008.49 c -0.71,-2.25 9.22,-7.01 16.49,-17.599 7.59,-10.352 8.81,-21.301 11.18,-21.379 2.18,-0.524 4.84,13.179 -4.46,26.16 -9.18,13.048 -23,15.068 -23.21,12.818"
         style="fill:#17282f;fill-opacity:1;fill-rule:nonzero;stroke:none"
         id="path130" />
      <path
         d="m 4900.4,949.941 c 2.11,-0.66 6.27,10.887 1.16,24.258 -5.01,13.422 -15.76,19.352 -16.9,17.449 -1.48,-1.839 5.17,-9.308 9.2,-20.359 4.27,-10.937 4.21,-20.949 6.54,-21.348"
         style="fill:#17282f;fill-opacity:1;fill-rule:nonzero;stroke:none"
         id="path132" />
      <path
         d="m 4994.41,1082.37 c 0.83,-2.23 11.91,0.22 25.18,-1.67 13.32,-1.62 23.37,-6.87 24.74,-4.94 1.5,1.61 -7.99,11.1 -23.66,13.11 -15.64,2.13 -27.27,-4.57 -26.26,-6.5"
         style="fill:#17282f;fill-opacity:1;fill-rule:nonzero;stroke:none"
         id="path134" />
      <path
         d="m 5237.35,1164.21 2.42,30.58 c 0.02,0 0.05,0.01 0.07,0.01 l -2.49,-30.59 m -237.84,14.17 v 0 l 0.1,2.6 -0.1,-2.6"
         style="fill:#ba2c42;fill-opacity:1;fill-rule:nonzero;stroke:none"
         id="path136" />
      <path
         d="m 5237.24,1162.96 -237.73,15.42 0.1,2.6 0.56,14.34 c 26.08,-3.24 78.58,-8.73 135.08,-8.73 35.09,0 71.71,2.12 104.52,8.2 l -2.42,-30.58 -0.11,-1.25"
         style="fill:#ba2c42;fill-opacity:1;fill-rule:nonzero;stroke:none"
         id="path138" />
      <path
         d="m 4997.26,1132.7 c -0.1,-0.98 9.12,-3.13 24.22,-1.67 7.51,0.73 16.43,2.51 25.9,5.91 4.73,1.7 9.6,3.8 14.44,6.34 2.35,1.27 5.09,2.51 7.74,5.15 2.8,2.27 4.75,8.42 2.01,12.48 -2.2,3.9 -6.45,5.82 -9.94,6.16 -3.56,0.38 -6.5,-0.12 -9.17,-0.58 -5.48,-0.91 -10.66,-2.32 -15.43,-4.06 -9.55,-3.51 -17.45,-8.27 -23.41,-12.99 -11.98,-9.55 -16.46,-18.09 -15.69,-18.61 1,-0.86 7.01,6.14 19.06,13.86 6.01,3.84 13.6,7.72 22.49,10.57 4.45,1.39 9.22,2.54 14.22,3.26 5.21,0.96 9.58,0.67 10.72,-1.7 0.41,-0.91 0.45,-1.25 -0.73,-2.68 -1.21,-1.3 -3.39,-2.5 -5.68,-3.76 -4.49,-2.47 -8.97,-4.57 -13.33,-6.35 -8.74,-3.57 -17.03,-5.82 -24.08,-7.24 -14.13,-2.84 -23.29,-2.81 -23.34,-4.09"
         style="fill:#17282f;fill-opacity:1;fill-rule:nonzero;stroke:none"
         id="path140" />
      <path
         d="m 5000.09,1129.08 c 0.8,-0.42 6.11,7.69 8.1,22.92 0.97,7.54 0.86,16.79 -1.34,26.74 -1.12,4.96 -2.77,10.08 -5.07,15.16 -2.48,4.98 -5.46,11.63 -14.54,13.36 -4.77,0.54 -9.02,-2.9 -10.61,-6 -1.84,-3.15 -2.36,-5.93 -3.15,-8.69 -1.3,-5.58 -1.61,-11.12 -1.22,-16.31 0.77,-10.4 4.34,-19.27 8.49,-25.77 8.53,-13.22 18.16,-16.78 18.42,-15.99 0.88,1.13 -7.01,6.29 -13.35,18.86 -3.13,6.2 -5.71,14.26 -5.98,23.32 -0.13,4.51 0.29,9.25 1.49,13.96 1.13,5.08 3.37,9.08 5.25,8.42 2.4,-0.15 6.2,-4.32 7.88,-8.57 2.16,-4.51 3.81,-9.09 5.03,-13.56 2.38,-8.96 3.08,-17.43 2.9,-24.51 -0.39,-14.23 -3.56,-22.89 -2.3,-23.34"
         style="fill:#17282f;fill-opacity:1;fill-rule:nonzero;stroke:none"
         id="path142" />
      <path
         d="m 5645.35,1896.52 -273.41,196.65 -230.43,-5.84 -22.74,-617.35 282.8,-32.76 13.18,267.4 336.16,-260.19 93.61,267.81 -199.17,184.28"
         style="fill:#17282f;fill-opacity:1;fill-rule:nonzero;stroke:none"
         id="path144" />
      <path
         d="m 5728.39,1571.68 -46.42,92.77 -285.84,262.77 c -53.4,48.01 -188.29,53.84 -258.99,41.3 h 22.49 c -106.31,-18.85 -143.17,-144.02 -149.49,-251.81 l -27.18,-519.07 c 0,0 163.43,-25.04 271.78,0.27 l 21.64,358.66 c 0,0 243.48,-344.99 269.97,-374.04 56.82,-62.32 165.11,-221.05 345.43,-221.952 224.4,-1.098 382.51,174.602 382.51,174.602 l -144.36,200.88 -401.54,235.62"
         style="fill:#17282f;fill-opacity:1;fill-rule:nonzero;stroke:none"
         id="path146" />
      <path
         d="m 5224.18,1680.31 c 0.63,0.32 5.44,-7.75 12.57,-21.13 7.13,-13.37 16.53,-32.07 26.7,-52.79 9.76,-19.81 18.59,-37.73 26.13,-53.01 6.75,-13.51 11.12,-21.78 10.48,-22.18 -0.58,-0.36 -6.1,7.29 -13.72,20.43 -7.64,13.13 -17.38,31.7 -27.56,52.45 -10.19,20.76 -19.06,39.69 -25.33,53.47 -6.28,13.78 -9.93,22.43 -9.27,22.76"
         style="fill:#33535f;fill-opacity:1;fill-rule:nonzero;stroke:none"
         id="path148" />
      <path
         d="m 5278.98,1537.26 c -0.22,-0.56 -7.51,1.51 -18.28,7.25 -10.76,5.71 -24.74,15.55 -37.41,29.32 -12.63,13.81 -21.24,28.59 -25.99,39.8 -4.79,11.23 -6.22,18.67 -5.65,18.84 1.56,0.71 10.61,-28.38 35.48,-55.12 24.49,-27.07 52.68,-38.6 51.85,-40.09"
         style="fill:#33535f;fill-opacity:1;fill-rule:nonzero;stroke:none"
         id="path150" />
      <path
         d="m 5560.11,1166.87 c -0.14,-0.11 -2.07,2.21 -5.59,6.73 -3.76,4.92 -8.83,11.56 -15.21,19.93 -13.28,17.87 -31.98,43.05 -54.97,74 -45.94,62.83 -109.72,149.4 -176.67,247.6 -10.95,16.8 -22.23,32.65 -31.03,49.75 l 4.92,0.93 c -5.35,-104.98 -9.78,-197.94 -16.52,-264.34 -3.23,-33.21 -6.53,-59.8 -9.3,-78.04 -1.27,-9.13 -2.58,-16.15 -3.38,-20.92 -0.85,-4.75 -1.37,-7.22 -1.53,-7.2 -0.16,0.02 0.04,2.54 0.57,7.35 0.63,5.23 1.45,12.23 2.49,21.01 2.19,18.3 4.97,44.91 7.73,78.11 5.81,66.39 9.61,159.24 14.78,264.31 l 0.47,9.54 4.46,-8.62 c 8.33,-16.1 19.81,-32.39 30.67,-48.97 66.83,-98.05 130.16,-184.99 175.32,-248.35 22.42,-31.35 40.68,-56.86 53.63,-74.96 6.05,-8.61 10.85,-15.45 14.41,-20.51 3.25,-4.72 4.89,-7.24 4.75,-7.35"
         style="fill:#33535f;fill-opacity:1;fill-rule:nonzero;stroke:none"
         id="path152" />
      <path
         d="m 5613.03,1726.8 c -0.06,-0.06 -0.98,0.66 -2.72,2.15 -1.92,1.68 -4.44,3.88 -7.64,6.66 -6.86,6.16 -16.59,14.88 -28.99,26 -25.32,22.41 -60.7,56.33 -107.14,94.92 -23.33,19.11 -49.69,39.18 -80.07,57.4 -30.3,18.19 -64.93,34.29 -103.41,44.2 -38.3,9.98 -80.92,13.1 -123.04,3.85 -20.95,-4.68 -41.62,-12.77 -60.18,-24.8 -18.65,-11.91 -34.51,-28.44 -45.88,-48.11 -11.49,-19.64 -18.51,-41.36 -23.61,-63.04 -5.05,-21.74 -8.24,-43.61 -11.12,-65.16 -5.98,-43.06 -10.48,-84.75 -14.01,-124.55 -6.93,-79.6 -10.18,-151.53 -12.31,-211.94 -2.09,-60.42 -3.13,-109.35 -4.01,-143.15 -0.45,-16.65 -0.83,-29.7 -1.08,-38.92 -0.17,-4.23 -0.3,-7.58 -0.41,-10.13 -0.12,-2.27 -0.22,-3.45 -0.31,-3.45 -0.1,0 -0.17,1.18 -0.22,3.46 -0.03,2.55 -0.07,5.9 -0.11,10.13 0.03,9.23 0.06,22.28 0.11,38.94 0.26,33.82 0.73,82.77 2.35,143.24 1.66,60.45 4.53,132.47 11.21,212.24 3.4,39.86 7.81,81.66 13.73,124.83 2.85,21.57 6.03,43.58 11.13,65.64 5.16,21.98 12.31,44.19 24.17,64.48 11.72,20.32 28.29,37.57 47.54,49.84 19.18,12.41 40.43,20.66 61.89,25.43 43.12,9.4 86.54,6.07 125.37,-4.19 39,-10.19 73.95,-26.63 104.44,-45.14 30.54,-18.55 56.9,-38.91 80.18,-58.26 46.3,-39.1 81.26,-73.39 106.16,-96.27 12.12,-11.43 21.62,-20.38 28.34,-26.72 3.03,-2.94 5.45,-5.26 7.28,-7.04 1.62,-1.61 2.41,-2.47 2.36,-2.54"
         style="fill:#33535f;fill-opacity:1;fill-rule:nonzero;stroke:none"
         id="path154" />
      <path
         d="m 5279.99,1614.11 c -1.14,-0.86 -5.46,2.89 -9.63,8.38 -4.18,5.5 -6.63,10.67 -5.49,11.54 1.14,0.87 5.46,-2.88 9.63,-8.38 4.18,-5.5 6.63,-10.67 5.49,-11.54"
         style="fill:#33535f;fill-opacity:1;fill-rule:nonzero;stroke:none"
         id="path156" />
      <path
         d="m 5339.97,1535.15 c -1.15,-0.88 -8.79,7.26 -17.07,18.16 -8.28,10.91 -14.06,20.45 -12.92,21.32 1.14,0.87 8.79,-7.26 17.07,-18.17 8.27,-10.9 14.06,-20.44 12.92,-21.31"
         style="fill:#33535f;fill-opacity:1;fill-rule:nonzero;stroke:none"
         id="path158" />
      <path
         d="m 5399.94,1456.17 c -1.14,-0.86 -8.79,7.27 -17.07,18.17 -8.28,10.91 -14.06,20.45 -12.92,21.32 1.15,0.87 8.79,-7.27 17.07,-18.17 8.28,-10.91 14.06,-20.45 12.92,-21.32"
         style="fill:#33535f;fill-opacity:1;fill-rule:nonzero;stroke:none"
         id="path160" />
      <path
         d="m 5459.97,1377.24 c -1.14,-0.87 -8.8,7.26 -17.09,18.14 -8.31,10.9 -14.1,20.43 -12.95,21.31 1.14,0.86 8.79,-7.26 17.09,-18.15 8.29,-10.89 14.09,-20.42 12.95,-21.3"
         style="fill:#33535f;fill-opacity:1;fill-rule:nonzero;stroke:none"
         id="path162" />
      <path
         d="m 5521.33,1299.35 c -1.12,-0.92 -8.97,7.01 -17.53,17.71 -8.58,10.71 -14.6,20.09 -13.47,20.98 1.13,0.89 8.97,-7.04 17.53,-17.71 8.54,-10.68 14.58,-20.07 13.47,-20.98"
         style="fill:#33535f;fill-opacity:1;fill-rule:nonzero;stroke:none"
         id="path164" />
      <path
         d="m 5586.46,1224.59 c -1.04,-0.98 -9.34,6.48 -18.52,16.67 -9.19,10.2 -15.75,19.22 -14.67,20.17 1.09,0.94 9.38,-6.52 18.53,-16.68 9.15,-10.15 15.71,-19.17 14.66,-20.16"
         style="fill:#33535f;fill-opacity:1;fill-rule:nonzero;stroke:none"
         id="path166" />
      <path
         d="m 5657.67,1155.61 c -0.93,-1.1 -9.89,5.56 -19.99,14.86 -10.1,9.3 -17.48,17.67 -16.47,18.69 1,1.03 9.96,-5.62 19.99,-14.86 10.04,-9.23 17.41,-17.6 16.47,-18.69"
         style="fill:#33535f;fill-opacity:1;fill-rule:nonzero;stroke:none"
         id="path168" />
      <path
         d="m 5736.63,1095.83 c -0.7,-1.18 -10.75,3.86 -22.06,11.72 -11.11,8.13 -19.39,15.63 -18.51,16.76 0.88,1.14 10.51,-4.45 21.52,-12.5 11.17,-7.76 19.83,-14.7 19.05,-15.98"
         style="fill:#33535f;fill-opacity:1;fill-rule:nonzero;stroke:none"
         id="path170" />
      <path
         d="m 5830.35,1070.65 c 0.28,-1.35 -10.86,-4.53 -24.94,-3.36 -13.93,1.94 -24.54,6.17 -24.11,7.31 0.5,1.57 11.35,-0.25 24.53,-2.12 13.3,-1.13 24.29,-0.36 24.52,-1.83"
         style="fill:#33535f;fill-opacity:1;fill-rule:nonzero;stroke:none"
         id="path172" />
      <path
         d="m 5916.1,1116.98 c 1.03,-0.94 -5.86,-10.02 -16.9,-18.55 -11.02,-8.58 -21.62,-12.88 -22.25,-11.63 -0.7,1.31 8.43,7.46 19.05,15.74 10.68,8.23 19.03,15.46 20.1,14.44"
         style="fill:#33535f;fill-opacity:1;fill-rule:nonzero;stroke:none"
         id="path174" />
      <path
         d="m 5967.89,1200.87 c 1.31,-0.53 -1.72,-11.36 -7.78,-23.78 -6.04,-12.45 -12.91,-21.42 -14.12,-20.67 -1.24,0.77 3.51,10.74 9.44,22.96 5.95,12.2 11.09,22.04 12.46,21.49"
         style="fill:#33535f;fill-opacity:1;fill-rule:nonzero;stroke:none"
         id="path176" />
      <path
         d="m 5992.35,1271.43 c 1.37,-0.44 0.78,-6.12 -1.32,-12.71 -2.1,-6.59 -4.91,-11.56 -6.28,-11.11 -1.36,0.45 -0.77,6.13 1.32,12.71 2.1,6.56 4.9,11.54 6.28,11.11"
         style="fill:#33535f;fill-opacity:1;fill-rule:nonzero;stroke:none"
         id="path178" />
      <path
         d="m 6111.39,1012.84 c 0.09,-0.18 -2.62,-1.78 -8.09,-2.75 -5.43,-1.03 -13.62,-1.29 -23.31,0.46 -9.72,1.51 -20.88,4.84 -33.29,6.86 -12.37,2.13 -26.21,1.1 -39.51,-4.57 -13.35,-5.47 -24.93,-13.469 -35.43,-20.731 -10.5,-7.308 -20.1,-13.918 -28.65,-18.73 -8.46,-4.961 -16.02,-7.707 -21.2,-9.457 -5.35,-1.344 -8.3,-1.891 -8.39,-1.543 -0.26,0.891 11.54,3.672 27.71,14.172 8.13,5.09 17.36,11.918 27.75,19.48 10.4,7.489 22.14,15.839 36.25,21.639 13.98,6.02 29.46,7.02 42.25,4.47 12.87,-2.37 23.82,-6.05 33.2,-7.98 18.81,-4.56 30.54,-0.43 30.71,-1.32"
         style="fill:#33535f;fill-opacity:1;fill-rule:nonzero;stroke:none"
         id="path180" />
      <path
         d="m 5754.72,1216.45 c -0.27,-0.24 -2.83,2.34 -7.26,7.24 -2.26,2.42 -4.91,5.47 -7.65,9.29 -2.78,3.78 -6.18,7.94 -9.21,13.03 -6.59,9.84 -13.23,22.34 -19.39,36.76 -5.87,14.53 -11.09,31.03 -14.49,48.82 -3.19,17.84 -4.22,35.12 -3.93,50.79 0.6,15.67 2.33,29.72 4.96,41.27 1.01,5.83 2.7,10.93 3.94,15.45 1.19,4.55 2.58,8.34 3.83,11.41 2.38,6.16 3.84,9.49 4.19,9.37 0.95,-0.34 -4.27,-13.98 -8.34,-36.94 -2.13,-11.45 -3.46,-25.28 -3.78,-40.65 -0.02,-15.37 1.13,-32.28 4.25,-49.75 3.33,-17.43 8.3,-33.62 13.82,-47.97 5.79,-14.24 11.97,-26.68 18.07,-36.62 12.01,-19.98 21.77,-30.85 20.99,-31.5"
         style="fill:#33535f;fill-opacity:1;fill-rule:nonzero;stroke:none"
         id="path182" />
      <path
         d="m 5668.62,1335.82 c -0.38,-0.36 -6.41,5.77 -11.41,18.46 -5.02,12.45 -8.09,32.15 -1.73,52.29 6.42,20.13 20.29,34.45 31.57,41.72 11.41,7.48 19.86,9.01 19.97,8.5 0.34,-0.84 -7.5,-3.6 -17.83,-11.49 -10.26,-7.72 -22.76,-21.56 -28.74,-40.31 -5.93,-18.77 -3.69,-37.27 0.23,-49.5 3.89,-12.4 8.7,-19.18 7.94,-19.67"
         style="fill:#33535f;fill-opacity:1;fill-rule:nonzero;stroke:none"
         id="path184" />
      <path
         d="m 5243.25,1531.03 c -1.44,0.12 -2.15,5.79 -1.59,12.66 0.55,6.89 2.16,12.38 3.59,12.26 1.44,-0.12 2.15,-5.79 1.59,-12.68 -0.55,-6.87 -2.16,-12.36 -3.59,-12.24"
         style="fill:#33535f;fill-opacity:1;fill-rule:nonzero;stroke:none"
         id="path186" />
      <path
         d="m 5236.12,1442.66 c -1.43,0.12 -1.8,10.1 -0.81,22.3 0.98,12.2 2.94,22 4.38,21.88 1.43,-0.11 1.79,-10.1 0.81,-22.3 -0.98,-12.2 -2.94,-22 -4.38,-21.88"
         style="fill:#33535f;fill-opacity:1;fill-rule:nonzero;stroke:none"
         id="path188" />
      <path
         d="m 5229,1354.29 c -1.43,0.11 -1.8,10.1 -0.82,22.29 0.99,12.21 2.94,22.01 4.38,21.89 1.43,-0.12 1.79,-10.1 0.82,-22.31 -0.99,-12.19 -2.95,-21.99 -4.38,-21.87"
         style="fill:#33535f;fill-opacity:1;fill-rule:nonzero;stroke:none"
         id="path190" />
      <path
         d="m 5221.87,1265.91 c -1.43,0.12 -1.79,10.11 -0.81,22.31 0.98,12.2 2.94,22 4.38,21.88 1.43,-0.12 1.79,-10.1 0.81,-22.3 -0.99,-12.2 -2.94,-22 -4.38,-21.89"
         style="fill:#33535f;fill-opacity:1;fill-rule:nonzero;stroke:none"
         id="path192" />
      <path
         d="m 5216.31,1196.81 c -1.44,0.12 -2.15,5.79 -1.6,12.67 0.55,6.88 2.16,12.37 3.6,12.25 1.43,-0.12 2.15,-5.79 1.59,-12.66 -0.56,-6.89 -2.17,-12.38 -3.59,-12.26"
         style="fill:#33535f;fill-opacity:1;fill-rule:nonzero;stroke:none"
         id="path194" />
      <path
         d="m 5235.25,1596.71 c 1.06,-0.91 -2.48,-6.27 -9.57,-9.04 -7.1,-2.83 -13.39,-1.17 -13.18,0.21 0.1,1.48 5.4,2.25 11.28,4.63 5.92,2.28 10.43,5.25 11.47,4.2"
         style="fill:#33535f;fill-opacity:1;fill-rule:nonzero;stroke:none"
         id="path196" />
      <path
         d="m 5238.79,1639.15 c 1,0.98 6.02,-3.17 7.87,-10.58 1.88,-7.38 -0.41,-13.37 -1.76,-13.06 -1.46,0.24 -1.68,5.65 -3.29,11.78 -1.49,6.16 -3.97,10.92 -2.82,11.86"
         style="fill:#33535f;fill-opacity:1;fill-rule:nonzero;stroke:none"
         id="path198" />
      <path
         d="m 5036.33,1850.39 c 0.19,-0.11 -0.68,-1.86 -1.99,-5.25 -1.19,-3.47 -2.79,-8.62 -4.29,-15.45 -3.14,-13.6 -6.53,-33.58 -9.74,-58.4 -6.56,-49.64 -12.81,-118.59 -17.89,-194.86 -5.04,-76.31 -7.91,-145.49 -9.31,-195.58 -0.58,-24.5 -1.05,-44.59 -1.4,-59.32 -0.17,-6.54 -0.31,-11.88 -0.41,-16.15 -0.15,-3.69 -0.32,-5.62 -0.49,-5.63 -0.19,0 -0.37,1.93 -0.57,5.62 -0.14,4.27 -0.33,9.61 -0.55,16.15 -0.32,14.02 -0.5,34.32 -0.26,59.4 0.46,50.17 2.75,119.45 7.79,195.85 5.09,76.37 11.93,145.38 19.44,195.03 3.7,24.83 7.65,44.81 11.41,58.39 1.83,6.81 3.77,11.96 5.31,15.35 1.66,3.35 2.84,4.93 2.95,4.85"
         style="fill:#f03d5f;fill-opacity:1;fill-rule:nonzero;stroke:none"
         id="path200" />
      <path
         d="m 4884.3,1863.94 c -4.27,-4.21 -45.07,-107.09 -52.92,-109.41 -7.84,-2.32 -16.37,5.15 -18.6,19.9 -2.23,14.74 17.08,75.96 17.08,75.96 l -49.69,-24.96 -21.77,-54.7 c 0,0 -15.85,-64.36 -29.64,-60.97 -13.78,3.38 -10.97,3.57 -12.56,23.35 -1.58,19.78 11.11,61.69 11.11,61.69 0,0 -17.74,-94.39 -45.78,-79.98 -8.77,4.51 10.4,90.02 8.04,82.62 -36.52,-114.56 -50.45,-59.14 -47.38,-41.99 l 14.33,99.47 92.14,136.24 120.57,-29.37 15.07,-97.85"
         style="fill:#f8a58d;fill-opacity:1;fill-rule:nonzero;stroke:none"
         id="path202" />
      <path
         d="m 4748.07,1834.83 c 0.45,-0.71 -3.71,-3.35 -7.3,-9.94 -3.78,-6.5 -6.26,-16.89 -9.67,-28.45 -6.8,-23 -13.45,-41.3 -14.82,-40.89 -1.38,0.4 3.02,19.36 9.82,42.36 3.37,11.36 6.53,22.22 11.56,28.95 4.92,6.84 10.24,8.54 10.41,7.97"
         style="fill:#f68260;fill-opacity:1;fill-rule:nonzero;stroke:none"
         id="path204" />
      <path
         d="m 4717.14,1855.15 c 1.29,-0.82 -7.61,-16.21 -15.76,-36.39 -8.29,-20.12 -12.69,-37.34 -14.18,-37.04 -1.34,0.22 0.86,18.33 9.35,39.02 8.39,20.71 19.49,35.2 20.59,34.41"
         style="fill:#f68260;fill-opacity:1;fill-rule:nonzero;stroke:none"
         id="path206" />
      <path
         d="m 4807.02,1892.71 c 1.08,-0.76 -14.39,-15.58 -39.44,-19.72 -25.01,-4.44 -44.53,4.37 -43.77,5.45 0.38,1.56 19.44,-4.54 42.89,-0.32 23.49,3.83 39.44,15.94 40.32,14.59"
         style="fill:#f68260;fill-opacity:1;fill-rule:nonzero;stroke:none"
         id="path208" />
      <path
         d="m 4846.26,1863.54 c 0.37,-1.29 -13.94,-4.45 -30.32,1.55 -16.45,5.84 -25.44,17.4 -24.34,18.16 1.07,1.12 10.97,-7.94 26.1,-13.27 15.04,-5.55 28.45,-4.89 28.56,-6.44"
         style="fill:#f68260;fill-opacity:1;fill-rule:nonzero;stroke:none"
         id="path210" />
      <path
         d="m 4764.62,1846.94 c 1.45,0.27 3.59,-5.22 7.7,-10.84 4.01,-5.7 8.52,-9.48 7.8,-10.77 -0.58,-1.27 -7.22,0.99 -12.04,7.74 -4.84,6.71 -4.85,13.73 -3.46,13.87"
         style="fill:#f68260;fill-opacity:1;fill-rule:nonzero;stroke:none"
         id="path212" />
      <path
         d="m 4745.17,1986.13 c 0.3,-0.22 -1.69,-3.42 -5.49,-9.02 -4.53,-6.5 -9.98,-14.34 -16.37,-23.52 -13.74,-19.86 -32.9,-47.31 -49.08,-80.25 -16.19,-32.94 -24.71,-65.41 -27.07,-89.26 -2.59,-23.91 -0.45,-38.87 -1.43,-38.95 -0.31,-0.04 -1.15,3.64 -1.9,10.41 -0.78,6.77 -1.17,16.67 -0.34,28.86 1.45,24.38 9.59,57.77 26.06,91.23 16.43,33.45 36.25,60.77 50.78,80.12 7.31,9.66 13.42,17.34 17.72,22.57 4.31,5.24 6.84,8.02 7.12,7.81"
         style="fill:#f03d5f;fill-opacity:1;fill-rule:nonzero;stroke:none"
         id="path214" />
      <path
         d="m 5933.97,2475.64 -30.37,88.08 -221.77,147.19 -165.67,117.81 9.79,-148.94 c 0,0 12.02,-180.2 55.23,-213.14 22.19,-16.91 71.49,-12.81 71.49,-12.81 l 17.98,-39.63 263.32,61.44"
         style="fill:#f8a58d;fill-opacity:1;fill-rule:nonzero;stroke:none"
         id="path216" />
      <path
         d="m 5670.65,2414.2 c -1.32,-0.59 -10.42,16.67 -20.34,38.55 -9.93,21.89 -16.91,40.11 -15.6,40.71 1.3,0.59 10.42,-16.67 20.34,-38.55 9.92,-21.89 16.91,-40.11 15.6,-40.71"
         style="fill:#f68260;fill-opacity:1;fill-rule:nonzero;stroke:none"
         id="path218" />
      <path
         d="m 5903.6,2563.72 c -40.01,-21.43 -65.69,-33.89 -110.69,-39.87 -44.99,-5.99 -92.78,0.73 -130.95,25.3 -38.17,24.56 -65.04,68.5 -62.79,113.84 0.37,7.42 1.4,15.25 -1.78,21.96 -3.18,6.71 -12.76,10.94 -18.2,5.89 -3.05,-2.81 -15.97,-17.24 -19.34,-19.67 -6.36,-4.56 -6.81,10.88 -6.8,18.71 0.18,63.43 -13.49,96.13 -26.07,112.79 -19.92,26.4 -27.54,60.84 -15.29,91.56 14.09,35.36 45,63.13 85.91,84.73 61.79,32.62 134.34,38.03 201.1,17.41 65.15,-20.12 63.46,-14.63 96.45,-58.49 33.43,-44.42 48.62,-131.48 24.77,-196.68 l -16.32,-177.48"
         style="fill:#17282f;fill-opacity:1;fill-rule:nonzero;stroke:none"
         id="path220" />
      <path
         d="m 5450.67,2958.22 c -1.22,14.11 4.04,29.25 15.52,37.54 11.48,8.29 29.29,7.76 38.61,-2.89 -5.34,19.01 10.21,40.93 29.91,42.18 18.56,1.18 34.39,-12.84 52.33,-17.76 17.51,-4.81 36.3,-0.65 53.14,6.13 16.85,6.78 32.59,16.15 49.65,22.37 35.57,13 76.24,11.37 110.66,-4.43 34.42,-15.81 62.16,-45.59 75.5,-81.03 24.9,7.78 53.18,-4.86 68.53,-25.95 15.35,-21.09 19.29,-48.78 16.24,-74.68 -2.07,-17.5 -7.13,-34.41 -13.02,-51.07 0,-1.47 0.15,-2.9 0.12,-4.37 -1.17,-62.59 -51.15,-238.73 -51.15,-238.73 -46.55,-0.71 -19.26,189.2 -19.26,189.2 -57.12,22.07 -35.84,107.65 -50.12,120.63 -14.28,12.98 -44.16,43.15 -163.74,-17.97 -46.43,-23.73 -108.18,-22.99 -141.88,-15.35 -0.99,0.21 -2,0.37 -2.98,0.6 l -0.69,0.15 -0.99,0.4 c -10.74,2.79 -21.1,6.95 -30.67,13 -10.83,6.86 -20.68,16.14 -25.27,28.11 -4.6,11.96 -2.87,26.9 6.52,35.63 -8.82,11.07 -15.74,24.18 -16.96,38.29"
         style="fill:#17282f;fill-opacity:1;fill-rule:nonzero;stroke:none"
         id="path222" />
      <path
         d="m 5573.91,2685 c 2.4,8.32 59.64,41.59 76.22,-24.66 16.59,-66.26 -53.35,-69.24 -53.95,-67.36 -0.59,1.87 -22.27,92.02 -22.27,92.02"
         style="fill:#f8a58d;fill-opacity:1;fill-rule:nonzero;stroke:none"
         id="path224" />
      <path
         d="m 5610.14,2623.14 c 0.24,0.29 1.36,-0.52 3.53,-0.93 2.12,-0.39 5.55,-0.17 8.67,1.99 6.36,4.32 9.47,16.91 6.81,28.93 -1.34,6.07 -4.04,11.5 -7.36,15.72 -3.25,4.34 -7.22,6.94 -10.9,6.69 -3.71,-0.07 -5.69,-2.81 -6.03,-4.87 -0.42,-2.08 0.33,-3.3 0.01,-3.5 -0.15,-0.21 -1.7,0.75 -1.85,3.62 -0.05,1.39 0.33,3.15 1.57,4.81 1.26,1.69 3.44,2.93 5.96,3.28 5.19,0.93 10.97,-2.62 14.62,-7.25 3.95,-4.59 7.12,-10.65 8.63,-17.47 2.92,-13.45 -0.79,-27.66 -9.68,-32.82 -4.36,-2.39 -8.59,-1.96 -11,-0.89 -2.46,1.12 -3.18,2.51 -2.98,2.69"
         style="fill:#f68260;fill-opacity:1;fill-rule:nonzero;stroke:none"
         id="path226" />
      <path
         d="m 5691.5,2809.44 c -0.06,-0.35 -3.13,-0.06 -8.66,0.78 -5.53,0.77 -13.45,2.46 -23.1,5.07 -19.3,5.14 -45.42,14.98 -71.76,30.58 -26.31,15.69 -47.43,33.93 -61.18,48.43 -6.9,7.23 -12.17,13.37 -15.49,17.87 -3.38,4.45 -5.1,7.01 -4.83,7.23 0.69,0.56 8.63,-8.85 22.92,-22.49 14.25,-13.67 35.36,-31.13 61.24,-46.56 25.91,-15.35 51.34,-25.55 70.15,-31.54 18.82,-6.02 30.88,-8.51 30.71,-9.37"
         style="fill:#33535f;fill-opacity:1;fill-rule:nonzero;stroke:none"
         id="path228" />
      <path
         d="m 5934.16,2489.45 c 0,0 229.27,-61.59 261.66,-94.85 9.44,-9.7 -4.14,-63.66 13.06,-127.97 41.74,-156.09 160.05,-435.7 171.57,-568.31 16.25,-187.24 -25.13,-446.34 -68.33,-520.81 -1.36,-2.32 -2.83,-4.65 -4.39,-6.98 -64.42,-95.59 -210.76,-83.28 -262.08,19.93 -29.98,60.32 -68.88,115.55 -112.64,121.98 -83,12.19 -203.94,102.67 -226.75,149.88 -22.82,47.19 -21.38,155.05 -21.38,155.05 0,0 -23.14,64.4 -30.55,99.34 -12.09,57 -34.76,239.13 -34.76,239.13 l 1.45,397.8 49.63,60.56 263.51,75.25"
         style="fill:#f03d5f;fill-opacity:1;fill-rule:nonzero;stroke:none"
         id="path230" />
      <path
         d="m 5671.86,1654.02 c 0.81,0.24 4.94,-12.73 12.75,-33.17 7.79,-20.43 20.14,-48.04 38.85,-75.66 18.54,-27.69 37.54,-51.39 50.62,-69.01 6.61,-8.78 11.88,-15.94 15.42,-20.97 3.54,-5.02 5.37,-7.9 5.09,-8.13 -0.58,-0.45 -9.45,9.86 -23.4,26.82 -13.83,17.05 -33.3,40.39 -52.08,68.42 -18.95,27.97 -31.03,56.4 -37.96,77.27 -3.49,10.47 -6.01,19.02 -7.46,25 -1.51,5.98 -2.17,9.32 -1.83,9.43"
         style="fill:#17282f;fill-opacity:1;fill-rule:nonzero;stroke:none"
         id="path232" />
      <path
         d="m 5671.92,2409.22 c 68.8,-121.85 185.1,-216.04 318.58,-258.03 48.64,-15.29 107.89,-21.62 145.09,13.26 23.19,21.74 54.58,72.89 74.07,98 17.29,22.29 27.7,25.51 44.77,47.99 16.11,21.21 33.73,36.38 29.12,64.23 -6.3,38.03 -48.3,57.26 -84.66,70.09 -67.11,23.69 -134.23,47.38 -201.35,71.06 -15.35,5.42 -31.68,10.91 -47.6,7.53 -15.93,-3.39 -282.6,-98.51 -278.02,-114.13"
         style="fill:#f03d5f;fill-opacity:1;fill-rule:nonzero;stroke:none"
         id="path234" />
      <path
         d="m 5768.74,2368.31 -129.99,-31.17 c -16.17,-3.88 -31.91,-9.45 -46.93,-16.61 l -209.34,-99.86 -233.37,-46.64 -239.75,-50.8 c -40.67,-8.62 -77.76,-29.41 -106.34,-59.61 l -64.08,-67.74 58.09,-71.46 c 23.55,-28.98 59.78,-44.6 97.01,-41.86 l 38.9,2.86 330.94,24.38 481.92,63.49 22.94,395.02"
         style="fill:#f03d5f;fill-opacity:1;fill-rule:nonzero;stroke:none"
         id="path236" />
      <path
         d="m 5706.11,1974.55 c 0.28,0.23 3.2,-2.81 8.24,-8.46 4.99,-5.7 12.33,-13.84 21.51,-23.76 18.35,-19.87 44.7,-46.39 76.1,-73.12 31.45,-26.69 61.89,-48.43 84.45,-63.32 11.27,-7.47 20.49,-13.39 26.92,-17.4 6.39,-4.05 9.85,-6.46 9.68,-6.77 -0.18,-0.31 -3.98,1.49 -10.71,5.02 -6.75,3.49 -16.29,8.95 -27.87,16.05 -23.18,14.17 -54.17,35.58 -85.84,62.46 -31.61,26.9 -57.74,54.03 -75.47,74.62 -8.87,10.29 -15.81,18.82 -20.34,24.93 -4.57,6.07 -6.95,9.53 -6.67,9.75"
         style="fill:#17282f;fill-opacity:1;fill-rule:nonzero;stroke:none"
         id="path238" />
      <path
         d="m 5706.11,1974.55 c 0.34,0.09 1.69,-3.54 3.82,-10.18 2.42,-7.74 5.35,-17.13 8.8,-28.16 7.42,-23.76 17.96,-56.48 31.18,-92.06 13.26,-35.57 26.66,-67.24 36.5,-90.11 4.55,-10.62 8.43,-19.66 11.63,-27.11 2.7,-6.44 4.03,-10.06 3.71,-10.22 -0.33,-0.16 -2.28,3.19 -5.54,9.35 -3.28,6.16 -7.78,15.2 -13.16,26.46 -10.72,22.53 -24.7,54.09 -38.01,89.82 -13.28,35.72 -23.31,68.76 -29.85,92.84 -3.25,12.05 -5.71,21.84 -7.21,28.66 -1.54,6.81 -2.22,10.62 -1.87,10.71"
         style="fill:#17282f;fill-opacity:1;fill-rule:nonzero;stroke:none"
         id="path240" />
      <path
         d="m 5792.65,1995.56 c 0.11,-0.35 -3.18,-1.71 -9.22,-3.89 -6.05,-2.19 -14.9,-5.08 -25.89,-8.42 -21.99,-6.69 -52.71,-14.86 -87.07,-21.93 -34.39,-7.05 -65.84,-11.66 -88.68,-14.19 -11.42,-1.27 -20.69,-2.1 -27.1,-2.46 -6.42,-0.39 -9.98,-0.44 -10.02,-0.08 -0.08,0.76 13.98,2.74 36.64,6.19 22.64,3.45 53.87,8.62 88.11,15.64 34.22,7.05 64.94,14.62 87.13,20.38 22.18,5.75 35.88,9.49 36.1,8.76"
         style="fill:#17282f;fill-opacity:1;fill-rule:nonzero;stroke:none"
         id="path242" />
      <path
         d="m 5285.65,1959.47 c 0,-0.37 -2.3,-0.54 -6.52,-0.54 -4.21,-0.12 -10.31,0.58 -17.69,2.17 -7.41,1.51 -15.96,4.52 -25,8.86 -8.9,4.56 -18.22,10.59 -26.9,18.27 -8.57,7.8 -15.58,16.4 -21.08,24.77 -5.29,8.52 -9.2,16.7 -11.51,23.91 -2.37,7.16 -3.72,13.14 -4.06,17.34 -0.46,4.19 -0.54,6.49 -0.18,6.54 0.96,0.15 2.21,-9.03 7.7,-22.59 2.65,-6.82 6.77,-14.52 12.07,-22.55 5.5,-7.9 12.31,-16.06 20.54,-23.55 8.33,-7.36 17.17,-13.25 25.62,-17.87 8.56,-4.4 16.66,-7.66 23.71,-9.57 14.08,-3.98 23.35,-4.24 23.3,-5.19"
         style="fill:#17282f;fill-opacity:1;fill-rule:nonzero;stroke:none"
         id="path244" />
      <path
         d="m 5358.6,1998.24 c -0.81,0.42 2.94,7.48 6.12,19.66 3.25,12.14 5.06,29.71 1.63,48.59 -3.56,18.85 -11.55,34.61 -18.92,44.78 -7.33,10.24 -13.37,15.47 -12.76,16.16 0.29,0.42 7.28,-3.86 15.69,-13.92 8.41,-9.96 17.39,-26.3 21.1,-46.08 3.63,-19.78 1.09,-38.26 -3.2,-50.57 -4.25,-12.4 -9.24,-18.91 -9.66,-18.62"
         style="fill:#17282f;fill-opacity:1;fill-rule:nonzero;stroke:none"
         id="path246" />
      <path
         d="m 5382.48,2220.67 c 0.15,-0.71 -12.8,-3.98 -33.86,-8.68 -21.05,-4.71 -50.2,-10.86 -82.46,-17.34 -32.28,-6.46 -61.55,-12.03 -82.79,-15.78 -21.09,-3.71 -34.82,-5.77 -34.26,-4.84 -0.82,0.48 12.64,3.81 33.53,8.45 21.06,4.68 50.22,10.81 82.49,17.28 32.26,6.47 61.53,12.05 82.77,15.84 21.23,3.78 34.44,5.77 34.58,5.07"
         style="fill:#17282f;fill-opacity:1;fill-rule:nonzero;stroke:none"
         id="path248" />
      <path
         d="m 5806.38,2350.75 c -0.1,-0.95 -17.83,1.08 -46.49,0.93 -14.34,0 -31.38,-0.97 -50.19,-2.99 -18.78,-2.25 -39.32,-5.69 -60.53,-10.88 -21.17,-5.37 -40.93,-11.96 -58.59,-18.78 -17.55,-7.04 -33.07,-14.18 -45.73,-20.91 -25.38,-13.31 -40.08,-23.41 -40.61,-22.62 -0.21,0.3 3.32,3.02 9.89,7.71 6.51,4.77 16.41,11.04 28.97,18.16 12.54,7.18 28.04,14.75 45.7,22.11 17.74,7.14 37.69,13.95 59.11,19.38 21.45,5.25 42.26,8.59 61.28,10.6 19.04,1.78 36.28,2.37 50.73,1.9 14.43,-0.39 26.1,-1.28 34.1,-2.44 8.01,-1.06 12.39,-1.81 12.36,-2.17"
         style="fill:#17282f;fill-opacity:1;fill-rule:nonzero;stroke:none"
         id="path250" />
      <path
         d="m 5897.94,2050.05 c -0.84,0.38 4.13,11.22 9.44,29.55 5.35,18.28 10.25,44.37 9.91,73.45 -0.45,29.08 -6.05,55.02 -11.89,73.15 -5.81,18.18 -11.08,28.88 -10.25,29.29 0.33,0.16 1.89,-2.38 4.47,-7.14 2.64,-4.72 5.87,-11.88 9.26,-20.95 6.84,-18.11 13.17,-44.56 13.62,-74.28 0.35,-29.72 -5.26,-56.33 -11.6,-74.61 -3.15,-9.17 -6.18,-16.42 -8.69,-21.2 -2.45,-4.84 -3.95,-7.41 -4.27,-7.26"
         style="fill:#17282f;fill-opacity:1;fill-rule:nonzero;stroke:none"
         id="path252" />
      <path
         d="m 6261.78,2320.06 c 0.15,-0.11 -1.08,-2.02 -3.57,-5.56 -2.49,-3.53 -6.22,-8.7 -11.26,-15.2 -10.2,-12.68 -24.97,-32.2 -50.38,-48.05 -12.66,-7.67 -28.19,-14.19 -45.92,-15.5 -9.89,-1.16 -19.8,0.89 -29.79,2.94 -8.19,1.67 -16.44,3.35 -24.79,3.26 -18.58,-0.54 -37.88,-10.38 -59.64,-10.87 -21.43,-1.25 -44.02,2.5 -64.82,11.96 -20.83,9.6 -38.08,23.99 -53.43,38.54 -15.41,14.61 -29.14,29.64 -43.23,42.8 -14.01,13.19 -28.4,24.61 -43.55,32.3 -15.08,7.85 -30.8,11.28 -45.2,11.94 -14.45,0.6 -27.58,-1.19 -38.92,-3.47 -11.34,-2.28 -20.98,-5.01 -28.83,-7.3 -7.43,-2.26 -13.41,-4.07 -18.06,-5.48 -4.13,-1.26 -6.33,-1.84 -6.39,-1.67 -0.06,0.17 2.02,1.08 6.05,2.66 4.03,1.55 10,3.81 17.79,6.42 7.79,2.61 17.4,5.64 28.85,8.22 11.41,2.58 24.74,4.68 39.65,4.3 14.83,-0.43 31.29,-3.8 46.99,-11.76 15.77,-7.78 30.61,-19.4 44.89,-32.65 14.36,-13.22 28.19,-28.22 43.47,-42.6 15.22,-14.35 32.09,-28.3 52.08,-37.5 19.98,-9.1 41.73,-12.75 62.37,-11.62 10.37,0.53 20.31,2.41 30.06,5.1 9.75,2.56 19.64,5.32 29.78,5.48 10.16,0.17 19.58,-2.29 28.49,-4.17 8.92,-2.02 17.49,-3.11 25.9,-2.51 16.83,1.04 31.9,7.08 44.31,14.34 24.91,14.96 40.08,33.92 50.7,46.16 4.93,5.99 8.92,10.82 12,14.57 2.75,3.32 4.27,5.02 4.4,4.92"
         style="fill:#17282f;fill-opacity:1;fill-rule:nonzero;stroke:none"
         id="path254" />
      <path
         d="m 5919.77,2513.52 c 0.01,0 0.03,0.01 0.04,0.01 v 0 c -0.01,0 -0.03,-0.01 -0.04,-0.01"
         style="fill:#996152;fill-opacity:1;fill-rule:nonzero;stroke:none"
         id="path256" />
      <path
         d="m 6076.79,2341.63 c -25.91,0 -51.48,3 -74.95,13.52 -6.63,2.98 -12.93,6.49 -18.98,10.38 0.6,0.68 0.86,1.1 0.7,1.25 -0.02,0.04 -0.07,0.06 -0.15,0.06 -0.25,0 -0.8,-0.21 -1.59,-0.63 -27.16,17.8 -49.27,43.48 -74.12,64.95 -24.01,20.76 -60.61,37.88 -93.73,37.88 -8.64,0 -17.05,-1.17 -24.94,-3.74 37.65,14.49 93.12,33.74 130.74,48.22 0.01,0 0.03,0.01 0.05,0.01 63.26,0 66.56,-33.83 94.03,-44.61 27.47,-10.78 57.45,-12.76 86.59,-17.48 27.95,-4.52 55.49,-11.67 82.12,-21.3 16.58,-6 35.36,-16.29 36.59,-33.88 0.89,-12.56 -45.11,-38.77 -56.34,-44.45 -11.23,-5.67 -24.15,-6.74 -36.7,-7.72 -16.28,-1.25 -32.87,-2.46 -49.32,-2.46"
         style="fill:#9c2438;fill-opacity:1;fill-rule:nonzero;stroke:none"
         id="path258" />
      <path
         d="m 5787.64,2464.83 v 0 0 0"
         style="fill:#996152;fill-opacity:1;fill-rule:nonzero;stroke:none"
         id="path260" />
      <path
         d="m 5787.64,2464.83 v 0 c 0.47,0.16 0.93,0.32 1.39,0.47 -0.05,-0.02 -0.11,-0.04 -0.16,-0.06 l -1.23,-0.41"
         style="fill:#9c2438;fill-opacity:1;fill-rule:nonzero;stroke:none"
         id="path262" />
      <path
         d="m 6160.05,2350.54 c -0.24,0.36 5.96,5.51 18.63,8.41 6.26,1.3 14.57,1.34 22.64,-2.36 7.98,-3.61 15.29,-10.44 20.29,-18.98 10.02,-17.21 11.18,-36.08 7.86,-48.52 -3.33,-12.75 -10.44,-17.91 -10.63,-17.43 -0.78,0.56 4.91,6.31 7.04,18.23 2.21,11.63 0.48,29.26 -8.74,45.05 -4.58,7.81 -10.99,13.92 -17.87,17.32 -6.9,3.42 -14.11,3.81 -20,3.05 -11.89,-1.75 -18.85,-5.67 -19.22,-4.77"
         style="fill:#17282f;fill-opacity:1;fill-rule:nonzero;stroke:none"
         id="path264" />
      <path
         d="m 5947.58,2261.63 c -0.29,-0.47 -6.48,4.1 -10.23,15.29 -4,10.97 -3.05,28.23 4.84,43.93 7.64,15.76 18.09,27.8 26.44,35.41 8.4,7.63 14.56,11.05 14.93,10.52 1.2,-1.17 -21.94,-17.87 -36.68,-48.17 -7.4,-14.92 -8.76,-30.27 -5.98,-40.69 2.53,-10.51 7.38,-15.76 6.68,-16.29"
         style="fill:#17282f;fill-opacity:1;fill-rule:nonzero;stroke:none"
         id="path266" />
      <path
         d="m 6221.9,2388.43 c 0.23,-0.21 -2.09,-3.24 -7.07,-8 -5.02,-4.68 -12.82,-11.01 -23.55,-17.11 -10.71,-6.14 -24.32,-11.99 -40.09,-16.19 -15.75,-4.25 -33.56,-6.8 -52.26,-7.78 -37.12,-1.38 -71.89,-0.96 -95.02,9.52 -11.45,4.9 -19.51,11.3 -24.24,16.32 -4.8,5.02 -6.53,8.51 -6.3,8.65 0.62,0.79 9.31,-12.84 31.94,-21.57 22.3,-9.18 56.5,-9.1 93.34,-7.72 36.94,1.58 69.64,10.49 90.86,22 21.44,11.2 31.76,22.62 32.39,21.88"
         style="fill:#17282f;fill-opacity:1;fill-rule:nonzero;stroke:none"
         id="path268" />
      <path
         d="m 5789.99,1959.08 c -1.43,-0.1 -3.11,6.61 -3.04,15.02 0.06,8.41 1.86,15.1 3.27,14.97 1.45,-0.13 1.99,-6.84 1.95,-15 -0.08,-8.17 -0.74,-14.87 -2.18,-14.99"
         style="fill:#17282f;fill-opacity:1;fill-rule:nonzero;stroke:none"
         id="path270" />
      <path
         d="m 5802.2,1900.51 c -1.35,-0.5 -4.31,5.64 -6.6,13.72 -2.28,8.09 -2.98,14.86 -1.58,15.14 1.42,0.27 4.37,-5.87 6.59,-13.72 2.22,-7.85 2.92,-14.63 1.59,-15.14"
         style="fill:#17282f;fill-opacity:1;fill-rule:nonzero;stroke:none"
         id="path272" />
      <path
         d="m 5821.77,1860.28 c -1.22,-0.78 -3.88,1.51 -5.96,5.1 -2.08,3.6 -2.74,7.05 -1.47,7.72 1.28,0.66 3.95,-1.62 5.97,-5.11 2.02,-3.48 2.68,-6.94 1.46,-7.71"
         style="fill:#17282f;fill-opacity:1;fill-rule:nonzero;stroke:none"
         id="path274" />
      <path
         d="m 5802.59,1858.49 c -1.34,-0.54 -5.31,5 -8.86,12.37 -3.57,7.39 -5.43,13.94 -4.18,14.64 1.26,0.71 5.22,-4.82 8.87,-12.37 3.63,-7.54 5.49,-14.09 4.17,-14.64"
         style="fill:#17282f;fill-opacity:1;fill-rule:nonzero;stroke:none"
         id="path276" />
      <path
         d="m 5820.21,1801.22 c -1.41,-0.29 -4.22,5.92 -6.26,13.87 -2.05,7.95 -2.6,14.75 -1.22,15.18 1.37,0.43 4.18,-5.78 6.26,-13.87 2.08,-8.1 2.63,-14.89 1.22,-15.18"
         style="fill:#17282f;fill-opacity:1;fill-rule:nonzero;stroke:none"
         id="path278" />
      <path
         d="m 5828.2,1741.75 c -1.44,-0.08 -3.25,6.5 -4.05,14.7 -0.8,8.19 -0.3,15 1.12,15.2 1.43,0.2 3.24,-6.38 4.05,-14.69 0.81,-8.31 0.32,-15.12 -1.12,-15.21"
         style="fill:#17282f;fill-opacity:1;fill-rule:nonzero;stroke:none"
         id="path280" />
      <path
         d="m 5828.55,1681.78 c -1.43,0.07 -2.45,6.82 -2.27,15.05 0.18,8.24 1.49,14.93 2.94,14.94 1.43,0.01 2.45,-6.73 2.26,-15.05 -0.17,-8.33 -1.49,-15.02 -2.93,-14.94"
         style="fill:#17282f;fill-opacity:1;fill-rule:nonzero;stroke:none"
         id="path282" />
      <path
         d="m 5822.91,1622.01 c -1.42,0.21 -1.8,7.03 -0.84,15.23 0.96,8.2 2.9,14.75 4.33,14.61 1.43,-0.13 1.81,-6.94 0.84,-15.22 -0.96,-8.27 -2.91,-14.82 -4.33,-14.62"
         style="fill:#17282f;fill-opacity:1;fill-rule:nonzero;stroke:none"
         id="path284" />
      <path
         d="m 5813.43,1562.77 c -1.43,0.18 -1.52,7 -0.2,15.21 1.32,8.21 3.53,14.66 4.95,14.42 1.41,-0.26 1.51,-7.07 0.2,-15.21 -1.31,-8.15 -3.53,-14.61 -4.95,-14.42"
         style="fill:#17282f;fill-opacity:1;fill-rule:nonzero;stroke:none"
         id="path286" />
      <path
         d="m 5813.43,1503.01 c -1.39,-0.32 -3.98,6.2 -4.61,14.66 -0.66,8.45 0.74,15.24 2.15,15.19 1.46,-0.03 2.41,-6.7 3.04,-14.79 0.61,-8.09 0.84,-14.76 -0.58,-15.06"
         style="fill:#17282f;fill-opacity:1;fill-rule:nonzero;stroke:none"
         id="path288" />
      <path
         d="m 5837.84,1448.61 c -1.22,-0.77 -5.56,4.51 -9.68,11.77 -4.13,7.28 -6.41,13.67 -5.11,14.28 1.3,0.62 5.64,-4.66 9.68,-11.78 4.04,-7.11 6.33,-13.5 5.11,-14.27"
         style="fill:#17282f;fill-opacity:1;fill-rule:nonzero;stroke:none"
         id="path290" />
      <path
         d="m 5863.05,1394.51 c -1.44,-0.25 -3.75,5.97 -6.53,13.55 -2.71,7.58 -4.89,13.92 -3.58,14.62 1.21,0.66 5.58,-4.82 8.48,-12.85 2.92,-8.02 3.03,-15.09 1.63,-15.32"
         style="fill:#17282f;fill-opacity:1;fill-rule:nonzero;stroke:none"
         id="path292" />
      <path
         d="m 5853.65,1344.79 c -1.09,0.97 1.17,5.27 3.62,10.51 2.51,5.2 4.53,9.68 5.98,9.4 1.38,-0.24 1.56,-5.7 -1.27,-11.65 -2.83,-5.96 -7.29,-9.22 -8.33,-8.26"
         style="fill:#17282f;fill-opacity:1;fill-rule:nonzero;stroke:none"
         id="path294" />
      <path
         d="m 5894.95,1624.44 c -6.59,0 -13.26,1.37 -19.16,4.04 -17.3,7.79 -26.52,27.27 -37.57,42.7 -2.91,4.07 -5.74,8.09 -8.49,12.07 0.92,2.41 1.63,7.52 1.75,13.47 0.19,8.32 -0.83,15.05 -2.26,15.05 v 0 c -1.45,-0.01 -2.76,-6.7 -2.94,-14.94 -0.08,-3.37 0.05,-6.5 0.33,-9.02 -17.32,25.5 -31.4,49.51 -43.65,74.28 -9.41,22 -21.28,50.5 -33.05,82.06 -3.34,8.99 -6.51,17.8 -9.5,26.32 -5.14,21.11 -19.28,63.19 -28.81,88.55 -0.58,1.86 -1.14,3.65 -1.67,5.35 -0.48,1.5 -0.92,2.84 -1.32,4.02 l 1.37,0.18 c 0.81,-1.11 1.75,-2.37 2.8,-3.77 2.42,-3.27 5.53,-7.22 9.26,-11.78 5.55,-7.3 11.52,-14.74 15.35,-18.36 0.57,-0.54 1.14,-1.08 1.71,-1.62 13.31,-14.97 30.42,-32.66 50.36,-50.91 0.62,-2.74 2.14,-6.86 4.27,-11.27 3.39,-7.04 7.16,-12.41 8.66,-12.41 0.07,0 0.14,0.01 0.2,0.04 1.32,0.55 -0.54,7.1 -4.17,14.64 -0.28,0.57 -0.56,1.14 -0.84,1.69 1.15,-1.03 2.32,-2.05 3.49,-3.08 7.1,-6.51 14.34,-12.67 21.98,-18.44 15.27,-12.28 30.12,-23.19 43.72,-32.53 13.03,-12.15 23.01,-26.34 24.44,-43.75 0.93,-11.17 -2.57,-22.36 -1.6,-33.53 1.64,-19.01 15.53,-34.28 26.52,-49.89 10.98,-15.62 19.6,-36.64 10.13,-53.22 -6.21,-10.83 -18.62,-15.94 -31.31,-15.94 m -69.62,147.22 c -0.02,0 -0.04,0 -0.06,-0.01 -1.42,-0.2 -1.92,-7.01 -1.12,-15.2 0.79,-8.16 2.59,-14.7 4.03,-14.7 0,0 0.01,0 0.02,0 1.44,0.09 1.93,6.9 1.12,15.21 -0.79,8.19 -2.57,14.7 -3.99,14.7 m -12.46,58.63 c -0.05,0 -0.09,-0.01 -0.14,-0.02 -1.38,-0.43 -0.83,-7.23 1.22,-15.18 2,-7.77 4.72,-13.88 6.16,-13.88 0.04,0 0.07,0.01 0.1,0.01 1.41,0.29 0.86,7.08 -1.22,15.18 -2.01,7.82 -4.71,13.89 -6.12,13.89"
         style="fill:#ba2c42;fill-opacity:1;fill-rule:nonzero;stroke:none"
         id="path296" />
      <path
         d="m 5708.61,1968.39 c -0.17,0.5 -0.33,0.97 -0.48,1.41 0.27,0.07 0.54,0.13 0.81,0.2 0.32,-0.44 0.67,-0.92 1.04,-1.43 l -1.37,-0.18"
         style="fill:#ba2c42;fill-opacity:1;fill-rule:nonzero;stroke:none"
         id="path298" />
      <path
         d="m 5866.77,1820.77 c -13.6,9.34 -28.45,20.25 -43.72,32.53 3.51,-2.64 7.1,-5.2 10.8,-7.67 11.13,-7.44 22.92,-15.55 32.92,-24.86 m -65.7,50.97 c -1.17,1.03 -2.34,2.05 -3.49,3.08 -0.06,0.1 -0.11,0.2 -0.16,0.31 1.21,-1.14 2.43,-2.27 3.65,-3.39 m -11.61,10.39 c -19.94,18.25 -37.05,35.94 -50.36,50.91 18.67,-17.76 34.44,-34.71 50.21,-50.13 0.04,-0.25 0.09,-0.5 0.15,-0.78 m -67.42,70.89 c -3.73,4.56 -6.84,8.51 -9.26,11.78 -1.05,1.4 -1.99,2.66 -2.8,3.77 -0.37,0.51 -0.72,0.99 -1.04,1.43 0.18,0.04 0.36,0.09 0.53,0.13 2.31,-3.24 7.25,-10.11 12.57,-17.11"
         style="fill:#0f191d;fill-opacity:1;fill-rule:nonzero;stroke:none"
         id="path300" />
      <path
         d="m 5782.96,1762.09 c -16.15,32.64 -29.14,66.61 -42.23,107.04 -0.1,0.44 -0.21,0.89 -0.32,1.34 2.99,-8.52 6.16,-17.33 9.5,-26.32 11.77,-31.56 23.64,-60.06 33.05,-82.06 m -71.36,196.93 c -1.5,4.01 -2.89,7.6 -4.11,10.62 0.21,0.06 0.43,0.11 0.64,0.16 0.15,-0.44 0.31,-0.91 0.48,-1.41 0.4,-1.18 0.84,-2.52 1.32,-4.02 0.53,-1.7 1.09,-3.49 1.67,-5.35"
         style="fill:#0f191d;fill-opacity:1;fill-rule:nonzero;stroke:none"
         id="path302" />
      <path
         d="m 5707.49,1969.64 c -0.06,0.15 -0.12,0.29 -0.18,0.43 -0.86,2.12 -0.73,2.68 -0.35,2.68 0.42,0 1.14,-0.69 1.14,-0.69 0,0 0.5,-0.7 1.37,-1.93 -0.17,-0.04 -0.35,-0.09 -0.53,-0.13 -0.27,-0.07 -0.54,-0.13 -0.81,-0.2 -0.21,-0.05 -0.43,-0.1 -0.64,-0.16"
         style="fill:#0f191d;fill-opacity:1;fill-rule:nonzero;stroke:none"
         id="path304" />
      <path
         d="m 5802.39,1858.45 c -1.5,0 -5.27,5.37 -8.66,12.41 -2.13,4.41 -3.65,8.53 -4.27,11.27 -0.06,0.28 -0.11,0.53 -0.15,0.78 2.7,-2.64 5.4,-5.24 8.11,-7.78 0.05,-0.11 0.1,-0.21 0.16,-0.31 0.28,-0.55 0.56,-1.12 0.84,-1.69 3.63,-7.54 5.49,-14.09 4.17,-14.64 -0.06,-0.03 -0.13,-0.04 -0.2,-0.04"
         style="fill:#0f191d;fill-opacity:1;fill-rule:nonzero;stroke:none"
         id="path306" />
      <path
         d="m 5820.11,1801.21 c -1.44,0 -4.16,6.11 -6.16,13.88 -2.05,7.95 -2.6,14.75 -1.22,15.18 0.05,0.01 0.09,0.02 0.14,0.02 1.41,0 4.11,-6.07 6.12,-13.89 2.08,-8.1 2.63,-14.89 1.22,-15.18 -0.03,0 -0.06,-0.01 -0.1,-0.01"
         style="fill:#0f191d;fill-opacity:1;fill-rule:nonzero;stroke:none"
         id="path308" />
      <path
         d="m 5828.18,1741.75 c -1.44,0 -3.24,6.54 -4.03,14.7 -0.8,8.19 -0.3,15 1.12,15.2 0.02,0.01 0.04,0.01 0.06,0.01 1.42,0 3.2,-6.51 3.99,-14.7 0.81,-8.31 0.32,-15.12 -1.12,-15.21 -0.01,0 -0.02,0 -0.02,0"
         style="fill:#0f191d;fill-opacity:1;fill-rule:nonzero;stroke:none"
         id="path310" />
      <path
         d="m 5829.73,1683.25 c -1.05,1.53 -2.09,3.05 -3.12,4.56 -0.28,2.52 -0.41,5.65 -0.33,9.02 0.18,8.24 1.49,14.93 2.94,14.94 v 0 c 1.43,0 2.45,-6.73 2.26,-15.05 -0.12,-5.95 -0.83,-11.06 -1.75,-13.47"
         style="fill:#0f191d;fill-opacity:1;fill-rule:nonzero;stroke:none"
         id="path312" />
      <path
         d="m 5825.19,1387.73 c -1.39,0 -2.79,0.14 -4.13,0.43 -7.47,1.58 -13.74,6.54 -19.44,11.62 -59.95,53.29 -89.2,132.13 -116.26,207.64 l 0.05,0.2 c 7.25,-19.13 18.17,-42.38 33.7,-65.3 18.78,-28.03 38.25,-51.37 52.08,-68.42 13.66,-16.61 22.45,-26.83 23.35,-26.83 0.02,0 0.04,0 0.05,0.01 0.28,0.23 -1.55,3.11 -5.09,8.13 -3.54,5.03 -8.81,12.19 -15.42,20.97 -13.08,17.62 -32.08,41.32 -50.62,69.01 -16.78,24.78 -28.45,49.55 -36.3,69.14 l 0.21,0.82 c 31.69,-63.48 82.55,-146.34 138.27,-190.25 9.11,-7.17 19.62,-17.89 14.92,-28.49 -2.53,-5.74 -9,-8.68 -15.37,-8.68"
         style="fill:#ba2c42;fill-opacity:1;fill-rule:nonzero;stroke:none"
         id="path314" />
      <path
         d="m 5794.54,1447.07 c -0.9,0 -9.69,10.22 -23.35,26.83 -13.83,17.05 -33.3,40.39 -52.08,68.42 -15.53,22.92 -26.45,46.17 -33.7,65.3 l 1.75,6.71 c 7.85,-19.59 19.52,-44.36 36.3,-69.14 18.54,-27.69 37.54,-51.39 50.62,-69.01 6.61,-8.78 11.88,-15.94 15.42,-20.97 3.54,-5.02 5.37,-7.9 5.09,-8.13 -0.01,-0.01 -0.03,-0.01 -0.05,-0.01"
         style="fill:#0f191d;fill-opacity:1;fill-rule:nonzero;stroke:none"
         id="path316" />
      <path
         d="m 6221.07,2224.29 c -2.94,9.67 -5.71,19.04 -8.26,28.04 5.77,-8.06 8.74,-18.14 8.26,-28.04"
         style="fill:#a7a9a8;fill-opacity:1;fill-rule:nonzero;stroke:none"
         id="path318" />
      <path
         d="m 6176.8,2183.6 c -7.1,0 -14.26,1.25 -21.4,2.5 -0.19,0.03 -0.38,0.06 -0.57,0.1 17.78,22.64 36.96,52.31 51.17,71.43 0.44,0.32 0.88,0.65 1.31,0.97 2.05,-1.9 3.88,-4 5.5,-6.27 2.55,-9 5.32,-18.37 8.26,-28.04 -0.14,-3.01 -0.61,-6.01 -1.41,-8.93 -4.34,-15.67 -18.23,-28.27 -34.24,-31.06 -2.86,-0.5 -5.74,-0.7 -8.62,-0.7"
         style="fill:#ba2c42;fill-opacity:1;fill-rule:nonzero;stroke:none"
         id="path320" />
      <path
         d="m 6067.34,2162.73 c -13.46,0 -26.77,6.53 -38.63,13.52 -51.08,30.13 -95.02,72.26 -127.39,121.95 2.42,-2.45 4.87,-4.91 7.35,-7.37 11.68,-13.09 25.13,-25 39.82,-34.45 7.22,-5 14.89,-9.54 23.12,-13.34 18.22,-8.29 37.82,-12.2 56.81,-12.2 2.68,0 5.36,0.08 8.01,0.24 21.76,0.49 41.06,10.33 59.64,10.87 0.22,0 0.44,0.01 0.66,0.01 8.13,0 16.16,-1.64 24.13,-3.27 7.98,-1.64 15.91,-3.27 23.81,-3.27 2,0 3.99,0.1 5.98,0.33 17.73,1.31 33.26,7.83 45.92,15.5 3.32,2.07 6.46,4.21 9.43,6.38 -14.21,-19.12 -33.39,-48.79 -51.17,-71.43 -6.95,1.21 -13.88,2.4 -20.74,2.4 -3.95,0 -7.88,-0.4 -11.77,-1.41 -16.99,-4.43 -29.62,-19.9 -46.79,-23.6 -2.73,-0.59 -5.46,-0.86 -8.19,-0.86 m -31.82,73.41 c 13.81,2.32 27.36,6.48 41.28,7.84 -3.55,-0.84 -7.08,-1.79 -10.6,-2.71 -9.75,-2.69 -19.69,-4.57 -30.06,-5.1 -0.2,-0.01 -0.41,-0.02 -0.62,-0.03 m 110.16,3.76 c -1.24,0 -2.47,0.03 -3.71,0.1 9.04,0.01 18.08,1.12 26.87,3.24 -5.87,-1.65 -12.04,-2.77 -18.47,-3.17 -1.56,-0.12 -3.12,-0.17 -4.69,-0.17"
         style="fill:#ba2c42;fill-opacity:1;fill-rule:nonzero;stroke:none"
         id="path322" />
      <path
         d="m 6028.42,2230.84 c -18.99,0 -38.59,3.91 -56.81,12.2 -8.23,3.8 -15.9,8.34 -23.12,13.34 20.82,-13.4 44.12,-21.89 68.39,-21.89 3.19,0 6.41,0.15 9.63,0.45 3.02,0.28 6.02,0.7 9.01,1.2 0.21,0.01 0.42,0.02 0.62,0.03 10.37,0.53 20.31,2.41 30.06,5.1 3.52,0.92 7.05,1.87 10.6,2.71 1.07,0.11 2.14,0.2 3.22,0.27 2.19,0.14 4.38,0.2 6.57,0.2 18.31,0 36.53,-4.41 54.89,-4.45 0.1,0 0.19,0 0.29,0 0.06,0 0.13,0 0.2,0 1.24,-0.07 2.47,-0.1 3.71,-0.1 1.57,0 3.13,0.05 4.69,0.17 6.43,0.4 12.6,1.52 18.47,3.17 13.29,3.21 26.02,8.74 37.37,16.35 0.37,-0.33 0.74,-0.65 1.1,-0.99 -0.43,-0.32 -0.87,-0.65 -1.31,-0.97 -2.97,-2.17 -6.11,-4.31 -9.43,-6.38 -12.66,-7.67 -28.19,-14.19 -45.92,-15.5 -1.99,-0.23 -3.98,-0.33 -5.98,-0.33 -7.9,0 -15.83,1.63 -23.81,3.27 -7.97,1.63 -16,3.27 -24.13,3.27 -0.22,0 -0.44,-0.01 -0.66,-0.01 -18.58,-0.54 -37.88,-10.38 -59.64,-10.87 -2.65,-0.16 -5.33,-0.24 -8.01,-0.24 m -119.75,59.99 c -2.48,2.46 -4.93,4.92 -7.35,7.37 -3.38,5.2 -6.64,10.48 -9.77,15.83 l 8.52,-12.95 c 2.74,-3.48 5.61,-6.9 8.6,-10.25"
         style="fill:#0f191d;fill-opacity:1;fill-rule:nonzero;stroke:none"
         id="path324" />
      <path
         d="m 5302.99,1914.95 31.68,4.17 v 0 c -10.67,-1.51 -21.21,-2.9 -31.68,-4.17"
         style="fill:#0f191d;fill-opacity:1;fill-rule:nonzero;stroke:none"
         id="path326" />
      <path
         d="m 4894.28,1883.29 c 57.09,33.41 118.48,59.43 182.18,77.21 28.35,7.92 57.53,14.23 86.89,14.23 4.04,0 8.08,-0.12 12.13,-0.37 53.19,-3.31 112.18,-30.12 159.19,-55.24 l -31.68,-4.17 c -64.11,-7.8 -125.11,-11.44 -191.17,-16.01 l -217.54,-15.65"
         style="fill:#ba2c42;fill-opacity:1;fill-rule:nonzero;stroke:none"
         id="path328" />
      <path
         d="m 5577.77,1957.36 c -0.1,0.02 0,1.21 0.28,3.45 0.41,2.85 0.86,6.07 1.39,9.78 1.38,8.46 2.84,20.79 4.12,36.03 1.36,15.26 1.95,33.49 1.6,53.71 -0.58,20.23 -2.25,42.43 -5.69,65.52 -3.6,23.08 -8.63,44.77 -14.09,64.25 -5.7,19.41 -11.7,36.64 -17.54,50.8 -5.76,14.18 -10.85,25.5 -14.68,33.17 -1.61,3.38 -3,6.31 -4.24,8.92 -0.93,2.05 -1.38,3.16 -1.29,3.21 0.09,0.05 0.73,-0.95 1.85,-2.92 1.39,-2.53 2.96,-5.38 4.77,-8.67 4.18,-7.51 9.58,-18.73 15.63,-32.87 6.12,-14.11 12.37,-31.36 18.26,-50.84 5.65,-19.54 10.79,-41.36 14.43,-64.58 3.44,-23.23 5.04,-45.58 5.48,-65.93 0.18,-20.34 -0.64,-38.67 -2.29,-53.96 -1.56,-15.29 -3.37,-27.63 -5.12,-36.04 -0.75,-3.68 -1.39,-6.87 -1.97,-9.69 -0.48,-2.21 -0.79,-3.36 -0.9,-3.34"
         style="fill:#fafaf9;fill-opacity:1;fill-rule:nonzero;stroke:none"
         id="path330" />
      <path
         d="m 5311.72,1916.58 c -0.11,0 -0.27,0.98 -0.45,2.87 -0.22,2.48 -0.44,5.17 -0.7,8.2 -0.47,7.14 -1.36,17.44 -2.67,30.15 -2.61,25.4 -7.68,60.37 -17.03,98.19 -9.43,37.81 -21.31,71.1 -30.88,94.77 -4.79,11.84 -8.83,21.36 -11.74,27.89 -1.19,2.8 -2.26,5.29 -3.23,7.57 -0.71,1.75 -1.03,2.7 -0.93,2.75 0.1,0.04 0.61,-0.81 1.49,-2.47 1.15,-2.22 2.39,-4.63 3.77,-7.34 3.26,-6.37 7.61,-15.79 12.68,-27.56 10.13,-23.52 22.4,-56.86 31.86,-94.86 9.41,-38.01 14.16,-73.21 16.22,-98.74 1.02,-12.77 1.57,-23.12 1.68,-30.28 0.03,-3.05 0.07,-5.76 0.1,-8.25 -0.01,-1.89 -0.07,-2.88 -0.17,-2.89"
         style="fill:#fafaf9;fill-opacity:1;fill-rule:nonzero;stroke:none"
         id="path332" />
      <path
         d="m 5077.37,1897.8 c -0.06,-0.1 -0.91,0.38 -2.47,1.35 -2.06,1.34 -4.3,2.8 -6.8,4.42 -2.97,1.9 -6.52,4.34 -10.38,7.54 -3.88,3.13 -8.52,6.48 -13.04,10.89 -9.49,8.31 -19.8,19.31 -30.16,32.39 -10.1,13.26 -20.11,28.72 -28.65,46 -8.33,17.4 -14.33,34.81 -18.55,50.95 -3.89,16.23 -6.19,31.12 -6.88,43.72 -0.68,6.27 -0.45,11.99 -0.53,16.99 -0.13,5 0.15,9.3 0.48,12.82 0.26,2.96 0.5,5.62 0.71,8.06 0.2,1.84 0.35,2.81 0.46,2.8 0.11,-0.01 0.17,-0.99 0.17,-2.85 -0.04,-2.44 -0.08,-5.09 -0.13,-8.07 -0.15,-3.5 -0.23,-7.78 0.06,-12.75 0.24,-4.96 0.16,-10.62 0.97,-16.82 0.97,-12.46 3.48,-27.17 7.49,-43.19 4.31,-15.91 10.32,-33.1 18.56,-50.29 8.45,-17.08 18.26,-32.4 28.12,-45.62 10.13,-13.03 20.16,-24.08 29.37,-32.51 4.38,-4.48 8.89,-7.91 12.65,-11.17 3.73,-3.3 7.14,-5.86 10,-7.9 2.36,-1.8 4.48,-3.4 6.42,-4.88 1.46,-1.15 2.2,-1.8 2.13,-1.88"
         style="fill:#fafaf9;fill-opacity:1;fill-rule:nonzero;stroke:none"
         id="path334" />
      <path
         d="m 5812.6,2330.74 c 0.07,0.07 0.96,-0.73 2.58,-2.33 1.59,-1.64 4.08,-3.92 6.92,-7.2 5.87,-6.38 13.83,-16.14 22.35,-29.14 17.09,-25.74 35.28,-66.11 39.56,-113.65 4.29,-47.56 -6.41,-90.54 -18.64,-118.92 -6.07,-14.3 -12.16,-25.33 -16.8,-32.65 -2.2,-3.73 -4.25,-6.43 -5.51,-8.32 -1.31,-1.87 -2.05,-2.81 -2.13,-2.76 -0.23,0.15 2.32,4.21 6.6,11.7 4.29,7.47 10.05,18.59 15.8,32.87 11.59,28.35 21.8,70.86 17.57,117.8 -4.22,46.92 -21.84,86.91 -38.31,112.74 -8.21,13.03 -15.85,22.94 -21.41,29.53 -5.55,6.61 -8.78,10.14 -8.58,10.33"
         style="fill:#fafaf9;fill-opacity:1;fill-rule:nonzero;stroke:none"
         id="path336" />
      <path
         d="m 6238.06,2139.76 c 0.03,-0.11 -1,-0.54 -2.99,-1.26 -2.6,-0.89 -5.49,-1.89 -8.8,-3.02 -7.64,-2.62 -18.84,-5.97 -32.79,-9.72 -27.88,-7.51 -67.05,-15.79 -110.92,-20.42 -43.9,-4.56 -83.95,-4.59 -112.78,-2.99 -14.42,0.77 -26.07,1.73 -34.08,2.7 -3.48,0.43 -6.5,0.8 -9.23,1.13 -2.11,0.3 -3.2,0.5 -3.19,0.61 0.01,0.11 1.13,0.11 3.25,0.02 2.75,-0.17 5.78,-0.34 9.28,-0.55 8.03,-0.59 19.68,-1.22 34.07,-1.71 28.77,-1.01 68.63,-0.64 112.35,3.9 43.7,4.62 82.76,12.5 110.71,19.46 13.97,3.46 25.24,6.49 32.98,8.73 3.37,0.93 6.3,1.73 8.95,2.46 2.06,0.53 3.16,0.76 3.19,0.66"
         style="fill:#fafaf9;fill-opacity:1;fill-rule:nonzero;stroke:none"
         id="path338" />
      <path
         d="m 6323.67,1923.55 c 0.01,-0.11 -1.61,-0.32 -4.7,-0.64 -3.7,-0.32 -8.16,-0.72 -13.53,-1.2 -11.76,-0.92 -28.75,-2.48 -49.71,-4.69 -41.92,-4.36 -99.68,-12.1 -162.76,-24.61 -63.1,-12.58 -119.43,-27.53 -159.83,-39.55 -20.2,-5.98 -36.5,-11.04 -47.71,-14.68 -5.14,-1.62 -9.42,-2.96 -12.96,-4.08 -2.97,-0.89 -4.55,-1.31 -4.59,-1.21 -0.03,0.1 1.47,0.73 4.38,1.81 3.5,1.27 7.71,2.79 12.78,4.63 11.1,4 27.31,9.38 47.47,15.65 40.28,12.56 96.64,27.88 159.84,40.5 63.2,12.53 121.13,19.94 163.17,23.75 21.01,1.92 38.04,3.15 49.83,3.7 5.39,0.25 9.86,0.45 13.58,0.62 3.1,0.11 4.74,0.11 4.74,0"
         style="fill:#fafaf9;fill-opacity:1;fill-rule:nonzero;stroke:none"
         id="path340" />
      <path
         d="m 5819.5,1643.31 c -0.01,-0.21 -2.33,-0.24 -6.52,-0.12 -4.2,0.08 -10.26,0.49 -17.73,1.25 -14.93,1.47 -35.49,4.76 -57.63,10.74 -22.14,6.02 -41.55,13.56 -55.18,19.82 -6.83,3.13 -12.27,5.83 -15.94,7.87 -3.67,2.02 -5.66,3.23 -5.56,3.41 0.22,0.45 8.58,-3.54 22.38,-9.25 13.79,-5.71 33.15,-12.86 55.12,-18.83 21.97,-5.93 42.29,-9.54 57.08,-11.58 14.78,-2.04 24.02,-2.8 23.98,-3.31"
         style="fill:#fafaf9;fill-opacity:1;fill-rule:nonzero;stroke:none"
         id="path342" />
      <path
         d="m 6378.57,1639.38 c 0,0 -1.9,-0.61 -5.58,-1.47 -4.24,-0.94 -9.57,-2.13 -16.12,-3.58 -14.73,-3.08 -34.88,-7.28 -59.45,-12.4 -50.27,-9.99 -120.01,-23.36 -198.02,-30.79 -78.02,-7.5 -149.35,-5.67 -200.29,0.79 -25.49,3.1 -45.95,6.81 -59.96,9.89 -7.04,1.42 -12.42,2.89 -16.1,3.75 -3.66,0.92 -5.54,1.56 -5.54,1.56 0,0 1.98,-0.22 5.68,-0.95 3.72,-0.66 9.13,-1.94 16.19,-3.17 14.08,-2.7 34.53,-6.07 59.98,-8.89 50.86,-5.87 121.91,-7.35 199.75,0.12 77.82,7.42 147.52,20.42 197.88,29.85 24.66,4.72 44.85,8.6 59.64,11.43 6.59,1.22 11.96,2.22 16.24,3.01 3.71,0.66 5.7,0.85 5.7,0.85"
         style="fill:#fafaf9;fill-opacity:1;fill-rule:nonzero;stroke:none"
         id="path344" />
      <path
         d="m 5854.13,1402.58 c -0.18,-0.85 -2.07,-1.18 -4.25,-0.74 -2.18,0.43 -3.81,1.47 -3.63,2.31 0.16,0.85 2.07,1.18 4.25,0.75 2.16,-0.43 3.8,-1.48 3.63,-2.32"
         style="fill:#fafaf9;fill-opacity:1;fill-rule:nonzero;stroke:none"
         id="path346" />
      <path
         d="m 6338.95,1236.9 c 0,0 -4.72,-5.88 -15.18,-14.55 -10.42,-8.63 -27.01,-19.83 -50.01,-27.97 -22.82,-8.1 -52.57,-12.73 -84.4,-6.6 -31.62,5.85 -65.16,21.95 -90.84,49.18 -25.43,27.29 -41.83,59.11 -64.66,81.34 -22.68,22.42 -49.59,34.43 -72.26,42.12 -22.88,7.63 -42.09,11.59 -55.27,14.51 -6.15,1.32 -11.18,2.4 -15.23,3.27 -3.48,0.75 -5.28,1.31 -5.28,1.31 0,0 1.87,-0.14 5.4,-0.7 4.08,-0.71 9.16,-1.6 15.35,-2.67 13.27,-2.57 32.59,-6.21 55.72,-13.63 22.91,-7.48 50.34,-19.41 73.59,-42.16 23.34,-22.55 39.9,-54.46 64.91,-81.25 25.17,-26.69 58.07,-42.59 89.11,-48.5 31.24,-6.16 60.51,-1.87 83.14,5.87 22.79,7.77 39.4,18.55 49.97,26.82 5.35,4.11 9.26,7.61 11.85,10.02 2.61,2.43 4.09,3.59 4.09,3.59"
         style="fill:#fafaf9;fill-opacity:1;fill-rule:nonzero;stroke:none"
         id="path348" />
      <path
         d="m 6083.99,2248.55 c -0.31,-0.16 -3.15,4.19 -6.21,11.99 -3.07,7.77 -6,19.13 -6.58,31.94 -0.54,12.83 1.42,24.39 3.8,32.4 2.37,8.03 4.82,12.61 5.14,12.48 1.03,-0.26 -7.08,-19.61 -5.82,-44.74 0.92,-25.14 10.66,-43.72 9.67,-44.07"
         style="fill:#fafaf9;fill-opacity:1;fill-rule:nonzero;stroke:none"
         id="path350" />
      <path
         d="m 6260.31,2410.65 c -0.43,-0.85 -9.73,4.59 -22.48,4.73 -12.75,0.37 -22.27,-4.68 -22.66,-3.81 -0.58,0.56 8.96,7.3 22.73,6.93 13.76,-0.2 23.02,-7.32 22.41,-7.85"
         style="fill:#fafaf9;fill-opacity:1;fill-rule:nonzero;stroke:none"
         id="path352" />
      <path
         d="m 5782.24,2377.88 c -0.2,0.04 -0.07,1.59 0.35,4.38 0.38,2.8 1.32,6.79 2.86,11.61 3.01,9.63 9.17,22.49 19.07,34.45 9.95,11.94 21.44,20.35 30.37,25.09 4.45,2.39 8.19,4.06 10.88,4.94 2.67,0.93 4.17,1.34 4.25,1.14 0.63,-0.91 -23.72,-9.45 -43.1,-33.16 -19.73,-23.39 -23.66,-48.91 -24.68,-48.45"
         style="fill:#fafaf9;fill-opacity:1;fill-rule:nonzero;stroke:none"
         id="path354" />
      <path
         d="m 6582.72,1756.25 c 18.06,-7.84 31.35,-24.53 38.02,-43.05 6.66,-18.54 7.27,-38.77 5.05,-58.34 -4.3,-37.86 -25.8,-76.07 -48.97,-106.31 -31.87,27.81 -39.2,76.35 -41.38,101.2 -3.44,39.28 14.21,112.36 47.28,106.5"
         style="fill:#f03d5f;fill-opacity:1;fill-rule:nonzero;stroke:none"
         id="path356" />
      <path
         d="m 6613.87,1486.07 c -5.09,21.39 3.81,44.86 20.23,59.49 16.42,14.64 39.37,20.83 61.3,19.15 10.14,-0.77 21.1,-3.73 26.91,-12.08 5.42,-7.8 4.82,-18.7 0.41,-27.13 -4.4,-8.43 -12.03,-14.73 -20.08,-19.77 -27.62,-17.34 -57.53,-29.04 -88.77,-19.66"
         style="fill:#f03d5f;fill-opacity:1;fill-rule:nonzero;stroke:none"
         id="path358" />
      <path
         d="m 6573,1369.99 c -0.19,0.05 0.25,2.81 1.14,7.78 0.99,5.47 2.29,12.53 3.85,21.01 3.52,17.57 8.04,42.74 21.7,67.16 13.46,24.37 32.32,42.31 48.19,51.22 7.89,4.56 14.78,7.28 19.66,8.69 2.4,0.81 4.36,1.12 5.65,1.44 1.31,0.27 2,0.37 2.02,0.28 0.23,-0.61 -11.04,-2.65 -26.33,-12.08 -15.32,-9.17 -33.53,-26.93 -46.78,-50.89 -13.39,-23.92 -18.2,-48.74 -22.2,-66.21 -1.92,-8.81 -3.5,-15.95 -4.72,-20.85 -1.21,-4.9 -2,-7.59 -2.18,-7.55"
         style="fill:#17282f;fill-opacity:1;fill-rule:nonzero;stroke:none"
         id="path360" />
      <path
         d="m 6574.2,1699.42 c 0.1,0 0.23,-1.17 0.39,-3.4 0.15,-2.52 0.34,-5.75 0.57,-9.76 0.46,-8.47 0.96,-20.74 1.45,-35.91 0.98,-30.33 1.75,-72.25 1.55,-118.56 -0.2,-46.33 -1.34,-88.25 -2.58,-118.57 -0.62,-15.16 -1.23,-27.43 -1.75,-35.89 -0.27,-4.01 -0.49,-7.24 -0.66,-9.76 -0.18,-2.23 -0.33,-3.39 -0.42,-3.39 -0.1,0.01 -0.14,1.18 -0.13,3.42 0.02,2.52 0.07,5.76 0.13,9.77 0.22,8.82 0.52,21.01 0.88,35.91 0.74,30.33 1.56,72.23 1.78,118.52 0.18,46.28 -0.27,88.17 -0.75,118.51 -0.24,14.91 -0.42,27.09 -0.56,35.92 -0.03,4.01 -0.05,7.25 -0.07,9.77 0.02,2.24 0.08,3.41 0.17,3.42"
         style="fill:#17282f;fill-opacity:1;fill-rule:nonzero;stroke:none"
         id="path362" />
      <path
         d="m 6558.73,1463.02 c -7.26,45.8 -38.13,87.21 -79.94,107.25 -10.66,5.09 -24.56,8.43 -33.32,0.5 -8.77,-7.93 -6.81,-22.17 -2.52,-33.2 17.86,-45.86 65.81,-78.24 115.03,-77.66"
         style="fill:#f03d5f;fill-opacity:1;fill-rule:nonzero;stroke:none"
         id="path364" />
      <path
         d="m 6483.95,1534.36 c 0.08,0.17 2.48,-0.88 6.76,-2.95 2.15,-1.02 4.78,-2.28 7.65,-4.07 2.86,-1.79 6.33,-3.54 9.72,-6.11 3.49,-2.46 7.37,-5.07 11.14,-8.38 3.96,-3.08 7.82,-6.81 11.85,-10.76 7.85,-8.09 15.75,-17.75 22.51,-28.92 6.65,-11.24 11.47,-22.77 14.83,-33.54 1.52,-5.44 2.97,-10.6 3.75,-15.57 1.07,-4.91 1.47,-9.56 1.91,-13.8 0.59,-4.23 0.39,-8.11 0.53,-11.49 0.15,-3.38 -0.06,-6.29 -0.26,-8.65 -0.35,-4.75 -0.63,-7.35 -0.82,-7.33 -0.62,0.02 0.46,10.52 -1.39,27.26 -0.55,4.17 -1.06,8.75 -2.22,13.57 -0.85,4.87 -2.37,9.93 -3.93,15.26 -3.44,10.55 -8.24,21.84 -14.77,32.86 -6.63,10.98 -14.34,20.51 -21.96,28.58 -3.92,3.93 -7.66,7.66 -11.51,10.79 -3.65,3.34 -7.41,5.99 -10.78,8.53 -13.69,9.82 -23.29,14.18 -23.01,14.72"
         style="fill:#17282f;fill-opacity:1;fill-rule:nonzero;stroke:none"
         id="path366" />
      <path
         d="m 4285.4,4085.27 c 0,67.23 24.06,128.84 64.01,176.72 -60.7,-50.64 -99.34,-126.83 -99.34,-212.06 0,-152.47 123.6,-276.07 276.07,-276.07 85.23,0 161.42,38.65 212.06,99.35 -47.89,-39.96 -109.49,-64.01 -176.73,-64.01 -152.47,0 -276.07,123.6 -276.07,276.07"
         style="fill:#17282f;fill-opacity:1;fill-rule:nonzero;stroke:none"
         id="path368" />
      <path
         d="m 1396.75,4036.33 4.24,-7.76 c 1.6,-2.92 4,-5.32 6.93,-6.93 l 7.76,-4.24 -7.76,-4.24 c -2.93,-1.6 -5.33,-4.01 -6.93,-6.93 l -4.24,-7.76 -4.25,7.76 c -1.59,2.92 -4,5.33 -6.93,6.93 l -7.75,4.24 7.75,4.24 c 2.93,1.61 5.34,4.01 6.93,6.93 l 4.25,7.76"
         style="fill:#f03d5f;fill-opacity:1;fill-rule:nonzero;stroke:none"
         id="path370" />
      <path
         d="m 1927.66,2102.34 4.25,-7.77 c 1.6,-2.92 4,-5.32 6.93,-6.92 l 7.75,-4.25 -7.75,-4.24 c -2.93,-1.6 -5.33,-4 -6.93,-6.93 l -4.25,-7.75 -4.24,7.75 c -1.6,2.93 -4,5.33 -6.93,6.93 l -7.76,4.24 7.76,4.25 c 2.93,1.6 5.33,4 6.93,6.92 l 4.24,7.77"
         style="fill:#33535f;fill-opacity:1;fill-rule:nonzero;stroke:none"
         id="path372" />
      <path
         d="m 1098.35,2657.84 4.24,-7.75 c 1.6,-2.93 4,-5.34 6.93,-6.93 l 7.76,-4.25 -7.76,-4.24 c -2.93,-1.6 -5.33,-4 -6.93,-6.93 l -4.24,-7.76 -4.25,7.76 c -1.59,2.93 -4,5.33 -6.92,6.93 l -7.76,4.24 7.76,4.25 c 2.92,1.59 5.33,4 6.92,6.93 l 4.25,7.75"
         style="fill:#33535f;fill-opacity:1;fill-rule:nonzero;stroke:none"
         id="path374" />
      <path
         d="m 287.098,3073.42 4.242,-7.76 c 1.601,-2.92 4.004,-5.32 6.93,-6.93 l 7.757,-4.24 -7.757,-4.24 c -2.926,-1.6 -5.329,-4.01 -6.93,-6.93 l -4.242,-7.76 -4.239,7.76 c -1.601,2.92 -4.007,5.33 -6.933,6.93 l -7.754,4.24 7.754,4.24 c 2.926,1.61 5.332,4.01 6.933,6.93 l 4.239,7.76"
         style="fill:#33535f;fill-opacity:1;fill-rule:nonzero;stroke:none"
         id="path376" />
      <path
         d="m 4570.22,2999.5 4.24,-7.76 c 1.6,-2.92 4,-5.33 6.93,-6.93 l 7.76,-4.24 -7.76,-4.24 c -2.93,-1.61 -5.33,-4.01 -6.93,-6.94 l -4.24,-7.75 -4.25,7.75 c -1.6,2.93 -4,5.33 -6.92,6.94 l -7.76,4.24 7.76,4.24 c 2.92,1.6 5.32,4.01 6.92,6.93 l 4.25,7.76"
         style="fill:#33535f;fill-opacity:1;fill-rule:nonzero;stroke:none"
         id="path378" />
      <path
         d="m 5113.32,2539.08 4.24,-7.76 c 1.6,-2.93 4.01,-5.33 6.93,-6.93 l 7.75,-4.25 -7.75,-4.24 c -2.92,-1.6 -5.33,-4 -6.93,-6.93 l -4.24,-7.76 -4.24,7.76 c -1.6,2.93 -4.01,5.33 -6.93,6.93 l -7.76,4.24 7.76,4.25 c 2.92,1.6 5.33,4 6.93,6.93 l 4.24,7.76"
         style="fill:#33535f;fill-opacity:1;fill-rule:nonzero;stroke:none"
         id="path380" />
      <path
         d="m 4187.34,3190.11 4.24,-7.76 c 1.6,-2.92 4,-5.33 6.93,-6.93 l 7.76,-4.24 -7.76,-4.24 c -2.93,-1.61 -5.33,-4.01 -6.93,-6.93 l -4.24,-7.76 -4.25,7.76 c -1.6,2.92 -4,5.32 -6.92,6.93 l -7.76,4.24 7.76,4.24 c 2.92,1.6 5.32,4.01 6.92,6.93 l 4.25,7.76"
         style="fill:#f03d5f;fill-opacity:1;fill-rule:nonzero;stroke:none"
         id="path382" />
      <path
         d="m 5651.98,3652.23 4.25,-7.77 c 1.6,-2.92 4,-5.33 6.92,-6.92 l 7.77,-4.25 -7.77,-4.24 c -2.92,-1.6 -5.32,-4 -6.92,-6.93 l -4.25,-7.76 -4.24,7.76 c -1.6,2.93 -4,5.33 -6.93,6.93 l -7.76,4.24 7.76,4.25 c 2.93,1.59 5.33,4 6.93,6.92 l 4.24,7.77"
         style="fill:#f03d5f;fill-opacity:1;fill-rule:nonzero;stroke:none"
         id="path384" />
      <path
         d="m 1004.87,3532.11 10.63,-19.43 c 4,-7.33 10.03,-13.35 17.35,-17.36 l 19.44,-10.62 -19.44,-10.63 c -7.32,-4.01 -13.35,-10.03 -17.35,-17.36 l -10.63,-19.43 -10.624,19.43 c -4.008,7.33 -10.027,13.35 -17.359,17.36 l -19.426,10.63 19.426,10.62 c 7.332,4.01 13.351,10.03 17.359,17.36 l 10.624,19.43"
         style="fill:#f03d5f;fill-opacity:1;fill-rule:nonzero;stroke:none"
         id="path386" />
      <path
         d="m 5044.49,3270.25 10.63,-19.43 c 4,-7.33 10.02,-13.35 17.35,-17.36 l 19.43,-10.63 -19.43,-10.62 c -7.33,-4.01 -13.35,-10.03 -17.35,-17.36 l -10.63,-19.43 -10.62,19.43 c -4.02,7.33 -10.04,13.35 -17.37,17.36 l -19.43,10.62 19.43,10.63 c 7.33,4.01 13.35,10.03 17.37,17.36 l 10.62,19.43"
         style="fill:#f03d5f;fill-opacity:1;fill-rule:nonzero;stroke:none"
         id="path388" />
      <path
         d="m 2540.65,3484.7 10.63,-19.44 c 4.01,-7.32 10.03,-13.35 17.36,-17.36 l 19.43,-10.62 -19.43,-10.63 c -7.33,-4.01 -13.35,-10.03 -17.36,-17.35 l -10.63,-19.43 -10.62,19.43 c -4.01,7.32 -10.03,13.34 -17.36,17.35 l -19.43,10.63 19.43,10.62 c 7.33,4.01 13.35,10.04 17.36,17.36 l 10.62,19.44"
         style="fill:#f03d5f;fill-opacity:1;fill-rule:nonzero;stroke:none"
         id="path390" />
      <path
         d="m 1603.27,3216.65 14.43,-26.39 c 5.45,-9.95 13.63,-18.13 23.58,-23.58 l 26.39,-14.43 -26.39,-14.43 c -9.95,-5.45 -18.13,-13.63 -23.58,-23.58 l -14.43,-26.4 -14.43,26.4 c -5.45,9.95 -13.63,18.13 -23.58,23.58 l -26.39,14.43 26.39,14.43 c 9.95,5.45 18.13,13.63 23.58,23.58 l 14.43,26.39"
         style="fill:#17282f;fill-opacity:1;fill-rule:nonzero;stroke:none"
         id="path392" />
      <path
         d="m 3018.55,4001.14 8.84,-16.15 c 3.33,-6.09 8.34,-11.1 14.42,-14.43 l 16.16,-8.83 -16.16,-8.84 c -6.08,-3.33 -11.09,-8.34 -14.42,-14.43 l -8.84,-16.15 -8.84,16.15 c -3.33,6.09 -8.34,11.1 -14.42,14.43 l -16.16,8.84 16.16,8.83 c 6.08,3.33 11.09,8.34 14.42,14.43 l 8.84,16.15"
         style="fill:#f03d5f;fill-opacity:1;fill-rule:nonzero;stroke:none"
         id="path394" />
      <path
         d="m 426.438,3922.31 18.156,-33.19 c 6.844,-12.52 17.136,-22.81 29.652,-29.66 l 33.192,-18.15 -33.192,-18.15 c -12.516,-6.85 -22.808,-17.14 -29.652,-29.66 l -18.156,-33.18 -18.153,33.18 c -6.844,12.52 -17.137,22.81 -29.648,29.66 l -33.196,18.15 33.196,18.15 c 12.511,6.85 22.804,17.14 29.648,29.66 l 18.153,33.19"
         style="fill:#f03d5f;fill-opacity:1;fill-rule:nonzero;stroke:none"
         id="path396" />
      <path
         d="m 3378.95,3639.73 18.15,-33.19 c 6.84,-12.52 17.14,-22.81 29.66,-29.65 l 33.19,-18.16 -33.19,-18.15 c -12.52,-6.85 -22.82,-17.13 -29.66,-29.65 l -18.15,-33.19 -18.16,33.19 c -6.84,12.52 -17.13,22.8 -29.65,29.65 l -33.19,18.15 33.19,18.16 c 12.52,6.84 22.81,17.13 29.65,29.65 l 18.16,33.19"
         style="fill:#f03d5f;fill-opacity:1;fill-rule:nonzero;stroke:none"
         id="path398" />
      <path
         d="m 0,831.449 c 0,1.442 910.805,2.61 2034.07,2.61 1123.66,0 2034.27,-1.168 2034.27,-2.61 0,-1.437 -910.61,-2.597 -2034.27,-2.597 C 910.805,828.852 0,830.012 0,831.449"
         style="fill:#17282f;fill-opacity:1;fill-rule:nonzero;stroke:none"
         id="path400" />
      <path
         d="m 3840.91,783.93 c 0,-1.442 -615.06,-2.61 -1373.6,-2.61 -758.8,0 -1373.73,1.168 -1373.73,2.61 0,1.429 614.93,2.609 1373.73,2.609 758.54,0 1373.6,-1.18 1373.6,-2.609"
         style="fill:#f03d5f;fill-opacity:1;fill-rule:nonzero;stroke:none"
         id="path402" />
      <path
         d="m 3564.09,726.699 c 0,-1.429 -352.04,-2.609 -786.21,-2.609 -434.31,0 -786.27,1.18 -786.27,2.609 0,1.442 351.96,2.602 786.27,2.602 434.17,0 786.21,-1.16 786.21,-2.602"
         style="fill:#f03d5f;fill-opacity:1;fill-rule:nonzero;stroke:none"
         id="path404" />
      <path
         d="m 3383.96,666.609 c 0,-1.437 -180.91,-2.597 -404.03,-2.597 -223.19,0 -404.06,1.16 -404.06,2.597 0,1.442 180.87,2.602 404.06,2.602 223.12,0 404.03,-1.16 404.03,-2.602"
         style="fill:#f03d5f;fill-opacity:1;fill-rule:nonzero;stroke:none"
         id="path406" />
      <path
         d="m 1921.16,417.07 c 0,-1.429 -179.97,-2.601 -401.91,-2.601 -222.03,0 -401.96,1.172 -401.96,2.601 0,1.442 179.93,2.61 401.96,2.61 221.94,0 401.91,-1.168 401.91,-2.61"
         style="fill:#17282f;fill-opacity:1;fill-rule:nonzero;stroke:none"
         id="path408" />
      <path
         d="m 1295.14,338.82 c 0,-1.429 -84.41,-2.609 -188.51,-2.609 -104.14,0 -188.525,1.18 -188.525,2.609 0,1.442 84.385,2.61 188.525,2.61 104.1,0 188.51,-1.168 188.51,-2.61"
         style="fill:#17282f;fill-opacity:1;fill-rule:nonzero;stroke:none"
         id="path410" />
      <path
         d="m 1054.8,2122.71 c 6.85,49.76 -63.386,90.7 -116.159,94.96 -25.172,2.03 -51.313,-1.82 -75.157,6.49 -51.66,18.01 -72.296,84.75 -122.707,106.01 -37.683,15.89 -81.074,1.74 -117.605,-16.65 -36.531,-18.38 -72.637,-41.52 -113.457,-44.14 -11.93,-0.76 -24.203,0.22 -36.418,1.2 -24.149,1.94 -48.078,3.87 -68.703,-7.64 -23.149,-12.93 -35.27,-39.6 -56.61,-55.34 -20.867,-15.39 -48.093,-18.65 -73.992,-20.06 -25.898,-1.4 -52.711,-1.67 -76.289,-12.47 -23.586,-10.79 -43.09,-35.73 -38.199,-61.2 l 895.296,8.84"
         style="fill:#f03d5f;fill-opacity:1;fill-rule:nonzero;stroke:none"
         id="path412" />
      <path
         d="m 159.504,2113.87 c -0.516,2.69 -0.762,5.37 -0.758,8.03 0.027,22.54 17.859,43.52 38.957,53.17 23.578,10.8 50.391,11.07 76.289,12.47 25.899,1.41 53.125,4.67 73.992,20.06 21.34,15.74 33.461,42.41 56.61,55.34 12.801,7.14 26.875,9.11 41.48,9.11 8.93,0 18.059,-0.73 27.223,-1.47 9.164,-0.73 18.355,-1.47 27.418,-1.47 3.015,0 6.019,0.08 9,0.27 40.82,2.62 76.926,25.76 113.457,44.14 25.418,12.8 54.152,23.54 81.976,23.54 12.168,0 24.165,-2.06 35.629,-6.89 50.411,-21.26 71.047,-88 122.707,-106.01 23.844,-8.31 49.985,-4.46 75.157,-6.49 50.351,-4.06 116.599,-41.52 116.629,-88.17 0,-2.24 -0.15,-4.51 -0.47,-6.79 l -895.296,-8.84"
         style="fill:#fbcbd7;fill-opacity:1;fill-rule:nonzero;stroke:none"
         id="path414" />
      <path
         d="m 2621.54,1308.91 c 19.8,143.77 -183.1,262.04 -335.57,274.33 -72.7,5.85 -148.22,-5.26 -217.11,18.75 -149.23,52.01 -208.84,244.81 -354.46,306.23 -108.86,45.91 -234.19,5.03 -339.73,-48.08 -105.54,-53.12 -209.84,-119.96 -327.75,-127.51 -34.46,-2.21 -69.912,0.62 -105.205,3.46 -69.754,5.59 -138.883,11.18 -198.465,-22.09 -66.871,-37.34 -101.895,-114.39 -163.531,-159.84 -60.293,-44.47 -138.942,-53.89 -213.754,-57.96 -74.809,-4.07 -152.262,-4.82 -220.379,-36.01 C 77.4609,1429 21.1133,1356.97 35.2461,1283.39 l 2586.2939,25.52"
         style="fill:#f03d5f;fill-opacity:1;fill-rule:nonzero;stroke:none"
         id="path416" />
      <path
         d="m 35.2461,1283.39 c -1.4883,7.76 -2.1953,15.5 -2.1875,23.18 0.0703,65.14 51.5859,125.72 112.5274,153.62 68.117,31.19 145.57,31.94 220.379,36.01 74.812,4.07 153.461,13.49 213.754,57.96 61.636,45.45 96.66,122.5 163.531,159.84 36.98,20.65 77.641,26.33 119.844,26.33 25.793,0 52.16,-2.12 78.621,-4.24 26.465,-2.13 53.012,-4.25 79.165,-4.25 8.73,0 17.42,0.24 26.04,0.79 117.91,7.55 222.21,74.39 327.75,127.51 73.43,36.95 156.43,67.98 236.8,67.98 35.16,0 69.81,-5.93 102.93,-19.9 145.62,-61.42 205.23,-254.22 354.46,-306.23 68.89,-24.01 144.41,-12.9 217.11,-18.75 145.47,-11.73 336.85,-119.93 336.92,-254.7 0,-6.49 -0.44,-13.03 -1.35,-19.63 l -200.76,-1.98 -829.3,-8.18 -1556.2339,-15.36"
         style="fill:#f89db4;fill-opacity:1;fill-rule:nonzero;stroke:none"
         id="path418" />
      <path
         d="m 2226.47,1297.12 c 0,-0.1 -1.47,-0.18 -4.34,-0.27 -3.1,-0.07 -7.32,-0.16 -12.72,-0.27 -11.45,-0.12 -27.88,-0.3 -48.92,-0.52 -42.75,-0.26 -104.15,-0.63 -179.92,-1.08 -151.92,-0.77 -361.78,-2.17 -593.56,-4.8 -231.87,-2.64 -441.787,-3.46 -593.709,-3.28 -75.774,0.24 -137.18,0.44 -179.922,0.57 -21.031,0.2 -37.461,0.36 -48.914,0.46 -5.399,0.11 -9.617,0.19 -12.723,0.25 -2.863,0.08 -4.332,0.17 -4.332,0.26 0,0.1 1.469,0.19 4.332,0.27 3.106,0.07 7.324,0.16 12.723,0.27 11.445,0.12 27.879,0.3 48.914,0.52 42.742,0.26 104.141,0.63 179.91,1.08 151.926,0.77 361.801,2.18 593.661,4.8 231.79,2.64 441.68,3.46 593.61,3.28 75.77,-0.24 137.18,-0.43 179.93,-0.57 21.04,-0.2 37.47,-0.35 48.92,-0.46 5.4,-0.11 9.62,-0.19 12.72,-0.24 2.87,-0.09 4.34,-0.18 4.34,-0.27"
         style="fill:#f03d5f;fill-opacity:1;fill-rule:nonzero;stroke:none"
         id="path420" />
    </g>
  </g>
</svg>
