<svg xmlns="http://www.w3.org/2000/svg" viewBox="0 0 40 40" xml:space="preserve" transform="scale(-1 1)" width="40" height="40"><path fill="red" d="M31.333 22.661c-1.838 0 -3.333 1.495 -3.333 3.333 0 1.838 1.495 3.333 3.333 3.333 1.838 0 3.333 -1.495 3.333 -3.333 0 -1.838 -1.495 -3.333 -3.333 -3.333m0 5.333c-1.103 0 -2 -0.897 -2 -2s0.897 -2 2 -2 2 0.897 2 2 -0.897 2 -2 2m-22 -5.333c-1.838 0 -3.333 1.495 -3.333 3.333 0 1.838 1.495 3.333 3.333 3.333s3.333 -1.495 3.333 -3.333c0 -1.838 -1.495 -3.333 -3.333 -3.333m0 5.333c-1.103 0 -2 -0.897 -2 -2s0.897 -2 2 -2 2 0.897 2 2 -0.897 2 -2 2"/><path fill="red" d="m39.805 22.19 -0.471 -0.471v-4.391a0.667 0.667 0 0 0 -0.667 -0.667H27.333v-5.319a0.667 0.667 0 0 0 -0.662 -0.667c-11.383 -0.085 -13.739 1.417 -17.713 6.065 -4.591 0.405 -8.035 2.42 -8.278 4.964L0.195 22.19a0.664 0.664 0 0 0 -0.195 0.471v1.333c0 0.177 0.07 0.347 0.195 0.471l0.471 0.471v1.057a0.667 0.667 0 0 0 0.667 0.667H4a0.667 0.667 0 0 0 0.667 -0.667c0 -2.573 2.093 -4.667 4.667 -4.667s4.667 2.093 4.667 4.667a0.667 0.667 0 0 0 0.667 0.667H26a0.667 0.667 0 0 0 0.667 -0.667c0 -2.573 2.093 -4.667 4.667 -4.667 2.573 0 4.667 2.093 4.667 4.667a0.667 0.667 0 0 0 0.667 0.667h2a0.664 0.664 0 0 0 0.471 -0.195l0.667 -0.667a0.666 0.666 0 0 0 0.195 -0.471v-2.667a0.664 0.664 0 0 0 -0.195 -0.471M20.667 12.18c1.493 -0.123 3.252 -0.175 5.333 -0.174v4.655h-5.333zm-1.333 0.136v4.345h-8.537c2.204 -2.453 4.068 -3.792 8.537 -4.345m19.333 12.736 -0.276 0.276h-1.094c-0.333 -2.996 -2.88 -5.333 -5.963 -5.333s-5.631 2.337 -5.963 5.333H15.297c-0.333 -2.996 -2.88 -5.333 -5.963 -5.333s-5.631 2.337 -5.963 5.333H2v-0.667a0.664 0.664 0 0 0 -0.195 -0.471l-0.471 -0.471v-0.781l0.471 -0.471a0.666 0.666 0 0 0 0.195 -0.471c0 -0.213 0.049 -0.428 0.132 -0.641l1.215 -0.025c0.368 -0.008 0.66 -0.313 0.653 -0.681 -0.008 -0.368 -0.322 -0.648 -0.681 -0.653l-0.089 0.002c1.447 -1.135 4.081 -2.002 7.435 -2.002h27.333v1.333h-0.667a0.667 0.667 0 0 0 -0.667 0.667 0.667 0.667 0 0 0 0.667 0.667h0.667v1.333c0 0.177 0.07 0.347 0.195 0.471l0.472 0.471z"/></svg>