<svg width="30px" height="30px" viewBox="0 0 3.75 3.75" xmlns="http://www.w3.org/2000/svg" xmlns:xlink="http://www.w3.org/1999/xlink" aria-hidden="true" role="img" class="iconify iconify--gis" preserveAspectRatio="xMidYMid meet"><path d="M0.787 1.2C0.355 1.2 0 1.554 0 1.985c0 0.167 0.053 0.323 0.144 0.45l0.548 0.947c0.077 0.1 0.128 0.081 0.191 -0.005l0.604 -1.028c0.012 -0.022 0.022 -0.046 0.03 -0.07A0.776 0.776 0 0 0 1.575 1.985C1.575 1.554 1.22 1.2 0.787 1.2m0 0.368c0.233 0 0.418 0.185 0.418 0.417S1.021 2.403 0.787 2.403c-0.233 0 -0.418 -0.185 -0.418 -0.417S0.554 1.568 0.787 1.568" fill="#ff0000"/><path d="M3.291 0C3.038 0 2.831 0.206 2.831 0.458c0 0.098 0.031 0.188 0.084 0.263l0.319 0.552c0.045 0.058 0.074 0.047 0.112 -0.003l0.352 -0.6c0.007 -0.013 0.013 -0.027 0.018 -0.041a0.45 0.45 0 0 0 0.034 -0.172C3.75 0.206 3.543 0 3.291 0m0 0.215c0.136 0 0.244 0.108 0.244 0.243s-0.108 0.243 -0.244 0.243 -0.244 -0.108 -0.244 -0.243 0.108 -0.243 0.244 -0.243" fill="#ff0000"/><path d="M3.308 1.403c-0.084 0.002 -0.169 0.005 -0.253 0.012l0.013 0.207a4.725 4.725 0 0 1 0.244 -0.011zm-0.449 0.031c-0.13 0.016 -0.261 0.039 -0.391 0.076l0.049 0.201c0.118 -0.034 0.24 -0.055 0.364 -0.071zM2.273 1.579a0.919 0.919 0 0 0 -0.113 0.059l0 0 0 0c-0.052 0.032 -0.106 0.074 -0.15 0.134 -0.032 0.043 -0.058 0.098 -0.065 0.163l0.191 0.021c0.001 -0.015 0.009 -0.035 0.023 -0.054h0v0c0.023 -0.031 0.057 -0.058 0.097 -0.084l0 0a0.75 0.75 0 0 1 0.09 -0.047zM2.175 2.05l-0.124 0.159c0.029 0.027 0.06 0.047 0.09 0.065l0 0 0 0c0.099 0.056 0.2 0.088 0.295 0.118l0.054 -0.199c-0.094 -0.03 -0.183 -0.059 -0.259 -0.102 -0.022 -0.013 -0.041 -0.026 -0.056 -0.04m0.5 0.199 -0.053 0.2 0.025 0.008 0.031 0.01c0.102 0.033 0.199 0.068 0.286 0.117l0.088 -0.184c-0.105 -0.059 -0.215 -0.098 -0.32 -0.132l0 0 -0.032 -0.01zm0.558 0.289 -0.136 0.147c0.032 0.035 0.056 0.077 0.068 0.12l0 0 0 0c0.014 0.05 0.014 0.11 0.003 0.17l0.188 0.04c0.015 -0.085 0.018 -0.177 -0.007 -0.269 -0.022 -0.081 -0.064 -0.151 -0.116 -0.208M3.102 3.099a0.45 0.45 0 0 1 -0.068 0.059h0c-0.068 0.047 -0.146 0.083 -0.229 0.114l0.062 0.197c0.091 -0.034 0.184 -0.075 0.272 -0.136l0 0 0 0a0.637 0.637 0 0 0 0.099 -0.086zm-0.474 0.228c-0.12 0.032 -0.244 0.057 -0.368 0.078l0.029 0.205c0.128 -0.022 0.257 -0.047 0.385 -0.082zm-0.556 0.106c-0.125 0.017 -0.252 0.031 -0.378 0.043l0.017 0.207c0.128 -0.012 0.257 -0.026 0.386 -0.044zm-0.568 0.059c-0.127 0.01 -0.254 0.018 -0.381 0.025l0.01 0.208c0.128 -0.007 0.257 -0.015 0.385 -0.025zm-0.572 0.035c-0.076 0.004 -0.153 0.006 -0.229 0.009l0.006 0.208a21 21 0 0 0 0.231 -0.009z" fill="#ff0000" fill-rule="evenodd"/></svg>