<svg xmlns="http://www.w3.org/2000/svg" width="20" height="18.965" viewBox="0 0 20 18.965"><g transform="translate(0 -13.245)"><g transform="translate(0 16.949)"><path d="M5.185,108.06A5.191,5.191,0,0,0,0,113.245a11.433,11.433,0,0,0,1.623,5.071c1.123,1.956,2.422,3.078,3.562,3.078s2.439-1.122,3.562-3.078a11.433,11.433,0,0,0,1.623-5.071A5.191,5.191,0,0,0,5.185,108.06Zm0,12.593c-1.609,0-4.444-4.282-4.444-7.407a4.444,4.444,0,0,1,8.889,0C9.63,116.37,6.794,120.653,5.185,120.653Z" transform="translate(0 -108.06)"/></g><g transform="translate(2.593 19.541)"><path d="M68.964,174.431a2.593,2.593,0,1,0,2.593,2.593A2.6,2.6,0,0,0,68.964,174.431Zm0,4.444a1.852,1.852,0,1,1,1.852-1.852A1.854,1.854,0,0,1,68.964,178.875Z" transform="translate(-66.371 -174.431)"/></g><g transform="translate(12.593 13.245)"><path d="M326.074,13.245a3.708,3.708,0,0,0-3.7,3.7c0,1.865,2.251,5.556,3.7,5.556s3.7-3.691,3.7-5.556A3.708,3.708,0,0,0,326.074,13.245Zm0,8.519c-.778,0-2.963-3.039-2.963-4.815a2.963,2.963,0,1,1,5.926,0C329.037,18.724,326.851,21.764,326.074,21.764Z" transform="translate(-322.37 -13.245)"/></g><g transform="translate(14.444 15.097)"><path d="M371.63,60.653a1.852,1.852,0,1,0,1.852,1.852A1.854,1.854,0,0,0,371.63,60.653Zm0,2.963a1.111,1.111,0,1,1,1.111-1.111A1.112,1.112,0,0,1,371.63,63.616Z" transform="translate(-369.778 -60.653)"/></g><g transform="translate(7.037 22.874)"><path d="M186.684,263.919a1.446,1.446,0,0,1-.629-1.2c.051-.969,1.251-1.977,1.709-2.284a.37.37,0,0,0-.411-.616c-.08.053-1.955,1.32-2.037,2.859a2.162,2.162,0,0,0,.894,1.808c1.373,1.145,2.135,2.3,1.94,2.952-.166.553-1.04.762-1.744.84a12.631,12.631,0,0,1-5.74-.713.37.37,0,0,0-.291.681,13.289,13.289,0,0,0,6.113.768c1.347-.15,2.144-.608,2.371-1.363C189.261,266.316,187.669,264.74,186.684,263.919Z" transform="translate(-180.151 -259.759)"/></g></g></svg>