<svg xmlns="http://www.w3.org/2000/svg" viewBox="0 0 40 40" xml:space="preserve" width="40" height="40"><path style="fill:#ff0000" d="m39.483 19.73 -4.405 -3.202 -6.186 -7.533a1.255 1.255 0 0 0 -0.97 -0.459H1.255a1.255 1.255 0 0 0 -1.255 1.255v17.871a1.255 1.255 0 0 0 1.255 1.255h3.303c0.52 1.481 1.931 2.545 3.587 2.545s3.067 -1.065 3.587 -2.545h16.091c0.52 1.481 1.931 2.545 3.587 2.545s3.067 -1.065 3.587 -2.545H38.745a1.255 1.255 0 0 0 1.255 -1.255v-6.918a1.255 1.255 0 0 0 -0.517 -1.015M8.145 28.953c-0.711 0 -1.29 -0.579 -1.29 -1.29s0.579 -1.29 1.29 -1.29 1.29 0.579 1.29 1.29 -0.579 1.29 -1.29 1.29m23.264 0c-0.711 0 -1.29 -0.579 -1.29 -1.29s0.579 -1.29 1.29 -1.29 1.29 0.579 1.29 1.29 -0.579 1.29 -1.29 1.29M37.49 26.408h-2.493c-0.519 -1.481 -1.932 -2.545 -3.588 -2.545s-3.068 1.065 -3.588 2.545H11.733c-0.519 -1.481 -1.932 -2.545 -3.588 -2.545s-3.068 1.065 -3.588 2.545H2.51V11.047h24.818l5.911 7.198c0.068 0.083 0.146 0.156 0.232 0.219L37.49 21.384z"/><path style="fill:#ff0000" d="M27.191 12.645a1.255 1.255 0 0 0 -2.225 0.797v4.312a1.255 1.255 0 0 0 1.255 1.255h3.545a1.255 1.255 0 0 0 0.917 -2.112z"/></svg>